<?xml version="1.0" encoding="UTF-8"?>
<svg xmlns="http://www.w3.org/2000/svg" xmlns:xlink="http://www.w3.org/1999/xlink" width="512px" height="512px" viewBox="0 0 512 512" version="1.1">
<g id="surface1">
<path style=" stroke:none;fill-rule:nonzero;fill:rgb(21.960784%,56.862745%,98.823529%);fill-opacity:1;" d="M 227.839844 186.027344 C 247.269531 186.027344 266.699219 186.027344 286.71875 186.027344 C 290.476562 197.296875 294.097656 208.246094 297.273438 219.625 C 299.195312 226.378906 301.410156 233.042969 303.578125 239.722656 C 305.4375 245.460938 307.226562 251.207031 308.882812 257.007812 C 310.074219 261.136719 311.378906 265.230469 312.707031 269.316406 C 312.898438 269.902344 313.085938 270.484375 313.28125 271.089844 C 314.242188 274.039062 315.207031 276.988281 316.179688 279.9375 C 319.183594 289.101562 319.183594 289.101562 319.984375 293.105469 C 321.273438 299.46875 323.707031 305.601562 325.835938 311.722656 C 326.421875 313.417969 327 315.117188 327.578125 316.8125 C 328.101562 318.316406 328.101562 318.316406 328.628906 319.847656 C 329.332031 322.367188 329.449219 324.242188 329.386719 326.828125 C 323.25 326.992188 317.117188 327.144531 310.980469 327.285156 C 308.894531 327.335938 306.804688 327.386719 304.71875 327.445312 C 301.71875 327.523438 298.71875 327.59375 295.71875 327.660156 C 294.320312 327.703125 294.320312 327.703125 292.890625 327.742188 C 291.582031 327.769531 291.582031 327.769531 290.25 327.796875 C 289.484375 327.8125 288.71875 327.832031 287.929688 327.851562 C 285.675781 327.664062 284.335938 327.214844 282.453125 325.972656 C 281.621094 323.863281 281.621094 323.863281 281.058594 321.222656 C 280.847656 320.261719 280.636719 319.300781 280.417969 318.3125 C 280.207031 317.300781 280 316.292969 279.785156 315.253906 C 279.570312 314.265625 279.359375 313.28125 279.136719 312.265625 C 278.730469 310.402344 278.332031 308.535156 277.941406 306.667969 C 277.195312 303.140625 276.410156 299.625 275.625 296.105469 C 262.671875 296.105469 249.71875 296.105469 236.375 296.105469 C 235.246094 301.175781 234.121094 306.246094 232.960938 311.464844 C 232.34375 314.1875 231.726562 316.910156 231.09375 319.625 C 230.953125 320.242188 230.8125 320.859375 230.667969 321.492188 C 229.644531 325.875 229.644531 325.875 228.691406 326.828125 C 227.253906 326.90625 225.808594 326.925781 224.367188 326.921875 C 223.445312 326.921875 222.519531 326.921875 221.570312 326.921875 C 220.066406 326.917969 220.066406 326.917969 218.53125 326.910156 C 217.507812 326.910156 216.488281 326.90625 215.433594 326.90625 C 212.15625 326.902344 208.878906 326.890625 205.601562 326.878906 C 203.382812 326.875 201.167969 326.871094 198.953125 326.867188 C 193.503906 326.859375 188.058594 326.84375 182.613281 326.828125 C 183.554688 322.375 184.585938 318.023438 185.992188 313.691406 C 186.320312 312.679688 186.648438 311.667969 186.984375 310.628906 C 187.339844 309.539062 187.695312 308.449219 188.054688 307.359375 C 188.429688 306.203125 188.804688 305.046875 189.179688 303.890625 C 192.308594 294.273438 195.523438 284.683594 198.742188 275.097656 C 201.789062 266.003906 204.699219 256.878906 207.464844 247.691406 C 209.761719 240.140625 212.351562 232.707031 214.976562 225.265625 C 216.628906 220.535156 218.148438 215.851562 219.359375 210.988281 C 221.628906 202.496094 224.835938 194.285156 227.839844 186.027344 Z M 256 217.601562 C 255.75 218.511719 255.5 219.421875 255.242188 220.363281 C 253.296875 227.410156 251.316406 234.445312 249.261719 241.464844 C 249.058594 242.164062 248.855469 242.863281 248.644531 243.585938 C 247.804688 246.453125 246.964844 249.320312 246.121094 252.183594 C 245.496094 254.316406 244.871094 256.449219 244.25 258.582031 C 244.058594 259.230469 243.867188 259.878906 243.667969 260.546875 C 242.925781 263.097656 242.347656 265.273438 242.347656 267.945312 C 251.359375 267.945312 260.367188 267.945312 269.652344 267.945312 C 268.527344 262.320312 267.335938 256.882812 265.785156 251.382812 C 265.585938 250.65625 265.382812 249.929688 265.175781 249.179688 C 264.539062 246.882812 263.894531 244.589844 263.253906 242.292969 C 262.613281 239.996094 261.96875 237.695312 261.332031 235.398438 C 260.9375 233.976562 260.539062 232.554688 260.140625 231.136719 C 258.894531 226.652344 257.820312 222.152344 256.851562 217.601562 C 256.570312 217.601562 256.289062 217.601562 256 217.601562 Z M 256 217.601562 "/>
<path style=" stroke:none;fill-rule:nonzero;fill:rgb(25.490196%,46.666667%,99.215686%);fill-opacity:1;" d="M 176.847656 179.578125 C 180.863281 183.140625 182.984375 187.605469 183.699219 192.859375 C 184.09375 201.097656 179.851562 207.046875 174.550781 212.992188 C 173.226562 214.1875 173.226562 214.1875 171.519531 214.1875 C 171.519531 214.75 171.519531 215.3125 171.519531 215.894531 C 170.421875 216.941406 170.421875 216.941406 168.90625 218.132812 C 166.566406 220.066406 164.570312 222.054688 162.613281 224.375 C 160.601562 226.746094 158.535156 228.816406 156.160156 230.828125 C 153.800781 232.820312 151.753906 234.871094 149.761719 237.226562 C 147.269531 240.171875 144.566406 242.605469 141.625 245.09375 C 139.371094 247.136719 137.472656 249.417969 135.511719 251.738281 C 133.363281 254.113281 130.972656 256.136719 128.511719 258.179688 C 127.046875 259.351562 127.046875 259.351562 126.292969 261.121094 C 125.730469 261.121094 125.167969 261.121094 124.585938 261.121094 C 124.585938 261.683594 124.585938 262.246094 124.585938 262.828125 C 123.742188 263.390625 122.898438 263.953125 122.027344 264.535156 C 122.511719 267.445312 123.28125 268.570312 125.578125 270.386719 C 130.804688 274.753906 135.53125 279.617188 140.335938 284.4375 C 141.984375 286.089844 143.636719 287.738281 145.289062 289.386719 C 146.34375 290.441406 147.394531 291.492188 148.445312 292.546875 C 148.9375 293.039062 149.429688 293.527344 149.9375 294.035156 C 151.960938 296.066406 153.710938 297.980469 155.308594 300.375 C 155.039062 304.203125 153.214844 307.375 151.464844 310.71875 C 150.851562 311.925781 150.234375 313.128906 149.625 314.335938 C 149.300781 314.972656 148.976562 315.609375 148.644531 316.265625 C 146.847656 319.847656 145.128906 323.46875 143.414062 327.09375 C 143.082031 327.792969 142.75 328.488281 142.40625 329.207031 C 142.097656 329.863281 141.789062 330.515625 141.46875 331.191406 C 141.195312 331.769531 140.921875 332.347656 140.640625 332.945312 C 139.855469 334.648438 139.855469 334.648438 139.09375 337.066406 C 135.285156 335.871094 133.25 333.996094 130.558594 331.09375 C 130.050781 330.617188 129.539062 330.144531 129.011719 329.652344 C 128 328.535156 128 328.535156 128 326.828125 C 127.4375 326.828125 126.875 326.828125 126.292969 326.828125 C 126.292969 326.261719 126.292969 325.699219 126.292969 325.121094 C 125.816406 324.925781 125.34375 324.734375 124.851562 324.535156 C 120.46875 322.042969 117.527344 317.84375 114.347656 314.027344 C 111.773438 311.308594 109.039062 308.824219 106.238281 306.347656 C 100.527344 301.289062 100.527344 301.289062 98.132812 298.667969 C 98.132812 298.101562 98.132812 297.539062 98.132812 296.960938 C 97.007812 296.398438 95.878906 295.832031 94.71875 295.253906 C 94.71875 294.691406 94.71875 294.125 94.71875 293.546875 C 94.007812 293.257812 94.007812 293.257812 93.28125 292.960938 C 90.742188 291.519531 88.984375 289.734375 87.039062 287.574219 C 87.039062 287.011719 87.039062 286.445312 87.039062 285.867188 C 86.246094 285.550781 86.246094 285.550781 85.441406 285.226562 C 83.296875 283.964844 82.976562 282.929688 81.921875 280.746094 C 81.074219 280.464844 80.230469 280.183594 79.359375 279.894531 C 78.207031 278.4375 78.207031 278.4375 77.121094 276.640625 C 76.757812 276.054688 76.394531 275.46875 76.019531 274.863281 C 73.507812 269.996094 73.332031 264.210938 74.863281 258.996094 C 77.699219 252.578125 82.597656 247.683594 87.894531 243.199219 C 88.457031 243.199219 89.019531 243.199219 89.601562 243.199219 C 89.789062 242.734375 89.976562 242.265625 90.171875 241.785156 C 91.664062 239.160156 93.6875 237.226562 95.839844 235.148438 C 96.246094 234.75 96.648438 234.355469 97.066406 233.945312 C 98.273438 232.761719 99.484375 231.582031 100.691406 230.398438 C 102.117188 228.980469 103.539062 227.558594 104.960938 226.132812 C 112.640625 218.453125 112.640625 218.453125 114.570312 216.527344 C 116.628906 214.464844 118.679688 212.394531 120.730469 210.320312 C 122.6875 208.339844 124.652344 206.363281 126.613281 204.386719 C 127.652344 203.339844 128.6875 202.292969 129.71875 201.246094 C 131.21875 199.726562 132.71875 198.214844 134.222656 196.703125 C 134.6875 196.230469 135.148438 195.757812 135.625 195.273438 C 136.75 194.148438 137.917969 193.070312 139.09375 192 C 139.65625 192 140.21875 192 140.800781 192 C 140.992188 191.542969 141.1875 191.085938 141.386719 190.613281 C 145.25 183.625 151.777344 178.6875 159.148438 175.734375 C 165.4375 173.945312 171.578125 175.980469 176.847656 179.578125 Z M 176.847656 179.578125 "/>
<path style=" stroke:none;fill-rule:nonzero;fill:rgb(14.117647%,71.372549%,98.823529%);fill-opacity:1;" d="M 360.265625 179.359375 C 363.960938 182.144531 367.183594 185.222656 370.347656 188.585938 C 371.765625 190.011719 373.1875 191.433594 374.613281 192.851562 C 383.148438 201.386719 383.148438 201.386719 385.308594 203.554688 C 386.644531 204.886719 387.984375 206.214844 389.328125 207.539062 C 392.242188 210.414062 395.101562 213.269531 397.707031 216.425781 C 400.019531 219.207031 402.636719 221.453125 405.386719 223.785156 C 406.949219 225.199219 408.265625 226.640625 409.601562 228.265625 C 411.40625 230.460938 413.292969 232.300781 415.464844 234.132812 C 418.675781 236.855469 421.363281 239.855469 424.101562 243.046875 C 425.742188 244.832031 427.4375 246.28125 429.332031 247.785156 C 434.105469 251.84375 437.503906 257.59375 438.667969 263.785156 C 438.515625 273.136719 433.382812 279.410156 427.042969 285.722656 C 426.492188 286.28125 425.9375 286.839844 425.367188 287.414062 C 423.546875 289.246094 421.71875 291.074219 419.890625 292.898438 C 418.617188 294.175781 417.347656 295.449219 416.078125 296.722656 C 413.417969 299.386719 410.757812 302.046875 408.097656 304.707031 C 404.679688 308.121094 401.269531 311.542969 397.863281 314.96875 C 395.246094 317.597656 392.621094 320.222656 389.996094 322.847656 C 388.734375 324.109375 387.476562 325.371094 386.222656 326.636719 C 384.46875 328.394531 382.710938 330.148438 380.953125 331.898438 C 380.171875 332.6875 380.171875 332.6875 379.375 333.496094 C 375.757812 337.066406 375.757812 337.066406 372.90625 337.066406 C 372.769531 336.605469 372.632812 336.140625 372.492188 335.664062 C 370.910156 330.609375 368.78125 326.128906 366.238281 321.492188 C 365.480469 320.074219 364.726562 318.65625 363.96875 317.238281 C 363.605469 316.546875 363.238281 315.859375 362.859375 315.152344 C 361.402344 312.394531 359.984375 309.628906 358.613281 306.828125 C 357.988281 305.5625 357.988281 305.5625 357.347656 304.269531 C 356.691406 302.078125 356.691406 302.078125 357.308594 300.445312 C 358.539062 298.441406 359.902344 296.960938 361.570312 295.300781 C 362.542969 294.328125 362.542969 294.328125 363.539062 293.335938 C 364.238281 292.644531 364.9375 291.953125 365.660156 291.238281 C 366.378906 290.523438 367.09375 289.808594 367.832031 289.074219 C 370.125 286.792969 372.421875 284.515625 374.71875 282.238281 C 376.273438 280.695312 377.828125 279.148438 379.382812 277.601562 C 383.191406 273.808594 387.007812 270.023438 390.828125 266.238281 C 390.019531 265.289062 389.210938 264.339844 388.398438 263.394531 C 387.949219 262.863281 387.5 262.335938 387.035156 261.792969 C 384.550781 258.941406 381.964844 256.410156 378.988281 254.078125 C 376.191406 251.8125 374.214844 249.089844 372.140625 246.167969 C 370.113281 243.777344 367.878906 241.871094 365.503906 239.839844 C 361.632812 236.40625 358.039062 232.6875 354.398438 229.011719 C 353.613281 228.222656 352.824219 227.429688 352.011719 226.613281 C 350.546875 225.140625 349.082031 223.667969 347.621094 222.195312 C 343.550781 218.082031 343.550781 218.082031 339.386719 214.066406 C 333.96875 208.917969 328.921875 203.300781 328.425781 195.496094 C 328.804688 189.152344 331.082031 184.300781 335.445312 179.734375 C 342.933594 173.324219 352.472656 174.074219 360.265625 179.359375 Z M 360.265625 179.359375 "/>
<path style=" stroke:none;fill-rule:nonzero;fill:rgb(19.607843%,62.745098%,99.215686%);fill-opacity:1;" d="M 268.742188 187.621094 C 273.929688 187.636719 279.007812 187.972656 284.160156 188.585938 C 285.011719 190.484375 285.859375 192.386719 286.699219 194.289062 C 287.339844 195.734375 287.988281 197.175781 288.640625 198.613281 C 289.359375 200.773438 289.410156 202.539062 289.28125 204.800781 C 288.71875 204.800781 288.152344 204.800781 287.574219 204.800781 C 288.066406 205.328125 288.558594 205.855469 289.066406 206.398438 C 292.941406 211.78125 294.660156 218.027344 296.105469 224.425781 C 296.425781 225.636719 296.746094 226.84375 297.066406 228.054688 C 297.8125 231.253906 297.8125 231.253906 297.8125 234.667969 C 298.375 234.667969 298.941406 234.667969 299.519531 234.667969 C 299.90625 235.921875 299.90625 235.921875 300.304688 237.203125 C 302.484375 244.238281 304.738281 251.242188 307.101562 258.214844 C 307.757812 260.210938 308.367188 262.222656 308.941406 264.238281 C 309.59375 266.507812 310.296875 268.683594 311.148438 270.878906 C 311.535156 271.882812 311.921875 272.886719 312.320312 273.921875 C 312.742188 272.652344 312.742188 272.652344 313.171875 271.359375 C 314.203125 274.269531 315.210938 277.1875 316.214844 280.105469 C 316.503906 280.933594 316.796875 281.757812 317.097656 282.609375 C 317.507812 283.804688 317.507812 283.804688 317.921875 285.027344 C 318.179688 285.757812 318.433594 286.492188 318.695312 287.246094 C 319.179688 289.421875 319.019531 290.613281 318.292969 292.691406 C 318.011719 291.285156 317.730469 289.878906 317.441406 288.425781 C 316.875 288.425781 316.3125 288.425781 315.734375 288.425781 C 316.117188 289.132812 316.117188 289.132812 316.511719 289.851562 C 317.515625 292.003906 318.089844 294.066406 318.667969 296.375 C 319.398438 299.175781 320.164062 301.800781 321.386719 304.425781 C 322.644531 307.398438 322.964844 309.988281 323.414062 313.171875 C 324 314.886719 324.65625 316.550781 325.359375 318.214844 C 326.140625 320.484375 326.453125 322.757812 326.828125 325.121094 C 322.378906 325.164062 317.925781 325.191406 313.476562 325.214844 C 311.964844 325.222656 310.449219 325.234375 308.9375 325.25 C 306.761719 325.269531 304.585938 325.277344 302.410156 325.285156 C 301.734375 325.296875 301.054688 325.304688 300.355469 325.3125 C 297.058594 325.3125 295.503906 325.285156 292.691406 323.414062 C 292.691406 323.976562 292.691406 324.539062 292.691406 325.121094 C 289.878906 325.121094 287.0625 325.121094 284.160156 325.121094 C 283.597656 321.175781 283.035156 317.234375 282.453125 313.171875 C 283.015625 313.171875 283.578125 313.171875 284.160156 313.171875 C 284.441406 311.203125 284.722656 309.230469 285.011719 307.199219 C 284.449219 307.199219 283.886719 307.199219 283.308594 307.199219 C 283.308594 308.042969 283.308594 308.890625 283.308594 309.761719 C 282.742188 309.761719 282.179688 309.761719 281.601562 309.761719 C 279.710938 305.140625 279.710938 305.140625 280.640625 302.613281 C 280.957031 302.15625 281.273438 301.699219 281.601562 301.226562 C 280.753906 300.945312 279.910156 300.664062 279.039062 300.375 C 279.039062 298.683594 279.039062 296.992188 279.039062 295.253906 C 276.074219 293.386719 274.699219 293.714844 271.359375 294.398438 C 269.566406 294.457031 267.769531 294.472656 265.972656 294.453125 C 265.0625 294.445312 264.148438 294.4375 263.210938 294.429688 C 262.175781 294.414062 262.175781 294.414062 261.121094 294.398438 C 261.121094 293.554688 261.121094 292.710938 261.121094 291.839844 C 259.710938 291.558594 258.304688 291.277344 256.851562 290.988281 C 256.871094 290.070312 256.886719 289.15625 256.90625 288.214844 C 256.976562 285.199219 256.976562 285.199219 256.375 283.09375 C 256 281.601562 256 281.601562 256.851562 279.039062 C 257.417969 279.039062 257.980469 279.039062 258.558594 279.039062 C 259.457031 276.792969 259.457031 276.792969 259.414062 275.625 C 258.003906 275.34375 256.597656 275.0625 255.148438 274.773438 C 255.148438 273.082031 255.148438 271.394531 255.148438 269.652344 C 264.015625 269.230469 264.015625 269.230469 273.066406 268.800781 C 273.066406 267.109375 273.066406 265.421875 273.066406 263.679688 C 272.503906 264.242188 271.941406 264.804688 271.359375 265.386719 C 271.359375 263.132812 271.359375 260.882812 271.359375 258.558594 C 270.515625 258.980469 270.515625 258.980469 269.652344 259.414062 C 269.386719 258.371094 269.117188 257.328125 268.839844 256.257812 C 268.472656 254.835938 268.101562 253.417969 267.734375 252 C 267.542969 251.261719 267.347656 250.523438 267.152344 249.761719 C 266.03125 245.503906 264.820312 241.308594 263.464844 237.121094 C 262.109375 232.847656 261.421875 228.894531 261.121094 224.425781 C 261.683594 224.988281 262.246094 225.554688 262.828125 226.132812 C 263.109375 225.570312 263.390625 225.007812 263.679688 224.425781 C 263.117188 223.582031 262.554688 222.738281 261.972656 221.867188 C 261.128906 221.867188 260.285156 221.867188 259.414062 221.867188 C 258.992188 219.753906 258.992188 219.753906 258.558594 217.601562 C 259.40625 217.175781 259.40625 217.175781 260.265625 216.746094 C 260.828125 217.589844 261.394531 218.4375 261.972656 219.308594 C 262.253906 218.742188 262.535156 218.179688 262.828125 217.601562 C 261.148438 216.6875 259.441406 215.835938 257.707031 215.039062 C 256.863281 215.460938 256.863281 215.460938 256 215.894531 C 255.71875 215.332031 255.4375 214.765625 255.148438 214.1875 C 253.898438 216.445312 253.441406 217.511719 253.441406 220.160156 C 252.875 220.160156 252.3125 220.160156 251.734375 220.160156 C 251.785156 221.09375 251.839844 222.027344 251.894531 222.988281 C 251.894531 227.59375 250.917969 232.113281 249.171875 236.375 C 248.328125 236.9375 247.484375 237.5 246.613281 238.078125 C 245.652344 236.640625 245.652344 236.640625 244.90625 234.667969 C 245.652344 232.320312 245.652344 232.320312 246.613281 230.398438 C 247.175781 230.398438 247.738281 230.398438 248.320312 230.398438 C 248.21875 229.585938 248.117188 228.773438 248.011719 227.9375 C 247.902344 226.867188 247.792969 225.796875 247.679688 224.691406 C 247.5625 223.632812 247.441406 222.574219 247.320312 221.484375 C 247.496094 217.847656 248.535156 216.851562 250.878906 214.1875 C 250.878906 213.058594 250.878906 211.933594 250.878906 210.773438 C 250.316406 210.492188 249.753906 210.210938 249.171875 209.921875 C 249.621094 208.496094 249.621094 208.496094 250.078125 207.039062 C 251.199219 204.113281 251.199219 204.113281 250.027344 202.238281 C 249.183594 202.238281 248.335938 202.238281 247.464844 202.238281 C 249.386719 200.105469 249.386719 200.105469 251.734375 197.972656 C 252.859375 197.972656 253.984375 197.972656 255.148438 197.972656 C 254.574219 195.316406 254.574219 195.316406 252.535156 194.398438 C 251.988281 194.171875 251.441406 193.941406 250.878906 193.707031 C 251.160156 192.863281 251.441406 192.015625 251.734375 191.148438 C 252.863281 190.828125 254 190.542969 255.148438 190.292969 C 255.429688 189.730469 255.710938 189.167969 256 188.585938 C 256.730469 188.597656 257.457031 188.605469 258.210938 188.617188 C 259.152344 188.625 260.09375 188.632812 261.066406 188.640625 C 262.476562 188.65625 262.476562 188.65625 263.917969 188.671875 C 266.429688 188.578125 266.46875 187.777344 268.742188 187.621094 Z M 268.742188 187.621094 "/>
<path style=" stroke:none;fill-rule:nonzero;fill:rgb(24.313725%,51.372549%,98.823529%);fill-opacity:1;" d="M 176.847656 179.578125 C 180.863281 183.140625 182.984375 187.605469 183.699219 192.859375 C 184.09375 201.097656 179.851562 207.046875 174.550781 212.992188 C 173.226562 214.1875 173.226562 214.1875 171.519531 214.1875 C 171.519531 214.75 171.519531 215.3125 171.519531 215.894531 C 170.421875 216.941406 170.421875 216.941406 168.90625 218.132812 C 166.566406 220.066406 164.570312 222.054688 162.613281 224.375 C 160.601562 226.746094 158.535156 228.816406 156.160156 230.828125 C 153.800781 232.820312 151.753906 234.871094 149.761719 237.226562 C 147.269531 240.171875 144.566406 242.605469 141.625 245.09375 C 139.371094 247.136719 137.472656 249.417969 135.511719 251.738281 C 133.363281 254.113281 130.972656 256.136719 128.511719 258.179688 C 127.046875 259.351562 127.046875 259.351562 126.292969 261.121094 C 125.730469 261.121094 125.167969 261.121094 124.585938 261.121094 C 124.585938 261.683594 124.585938 262.246094 124.585938 262.828125 C 123.742188 263.390625 122.898438 263.953125 122.027344 264.535156 C 122.511719 267.445312 123.28125 268.570312 125.578125 270.386719 C 130.804688 274.753906 135.53125 279.617188 140.335938 284.4375 C 141.984375 286.089844 143.636719 287.738281 145.289062 289.386719 C 146.34375 290.441406 147.394531 291.492188 148.445312 292.546875 C 148.9375 293.039062 149.429688 293.527344 149.9375 294.035156 C 151.960938 296.066406 153.710938 297.980469 155.308594 300.375 C 155.039062 304.203125 153.214844 307.375 151.464844 310.71875 C 150.851562 311.925781 150.234375 313.128906 149.625 314.335938 C 149.300781 314.972656 148.976562 315.609375 148.644531 316.265625 C 146.847656 319.847656 145.128906 323.46875 143.414062 327.09375 C 143.082031 327.792969 142.75 328.488281 142.40625 329.207031 C 142.097656 329.863281 141.789062 330.515625 141.46875 331.191406 C 141.195312 331.769531 140.921875 332.347656 140.640625 332.945312 C 139.855469 334.648438 139.855469 334.648438 139.09375 337.066406 C 135.285156 335.871094 133.25 333.996094 130.558594 331.09375 C 130.050781 330.617188 129.539062 330.144531 129.011719 329.652344 C 128 328.535156 128 328.535156 128 326.828125 C 127.4375 326.828125 126.875 326.828125 126.292969 326.828125 C 126.292969 326.261719 126.292969 325.699219 126.292969 325.121094 C 125.816406 324.925781 125.34375 324.734375 124.851562 324.535156 C 120.46875 322.042969 117.527344 317.84375 114.347656 314.027344 C 111.773438 311.308594 109.039062 308.824219 106.238281 306.347656 C 100.527344 301.289062 100.527344 301.289062 98.132812 298.667969 C 98.132812 298.101562 98.132812 297.539062 98.132812 296.960938 C 97.007812 296.398438 95.878906 295.832031 94.71875 295.253906 C 94.71875 294.691406 94.71875 294.125 94.71875 293.546875 C 94.007812 293.257812 94.007812 293.257812 93.28125 292.960938 C 90.742188 291.519531 88.984375 289.734375 87.039062 287.574219 C 87.039062 287.011719 87.039062 286.445312 87.039062 285.867188 C 86.246094 285.550781 86.246094 285.550781 85.441406 285.226562 C 83.296875 283.964844 82.976562 282.929688 81.921875 280.746094 C 81.074219 280.464844 80.230469 280.183594 79.359375 279.894531 C 75.945312 275.308594 75.945312 275.308594 75.945312 273.066406 C 76.792969 273.066406 77.636719 273.066406 78.507812 273.066406 C 79.941406 274.6875 79.941406 274.6875 81.441406 276.800781 C 83.417969 279.585938 84.792969 281.046875 87.894531 282.453125 C 88.460938 283.589844 89.03125 284.730469 89.601562 285.867188 C 90.144531 286.128906 90.691406 286.394531 91.253906 286.667969 C 93.011719 287.574219 93.011719 287.574219 94.148438 289.496094 C 97.273438 294.632812 102.195312 298.925781 106.878906 302.667969 C 109.320312 304.71875 111.242188 306.902344 113.238281 309.375 C 114.3125 310.726562 114.3125 310.726562 116.054688 311.464844 C 116.054688 312.03125 116.054688 312.59375 116.054688 313.171875 C 116.617188 313.171875 117.179688 313.171875 117.761719 313.171875 C 118.304688 313.738281 118.851562 314.300781 119.414062 314.878906 C 121.070312 316.882812 121.070312 316.882812 123.734375 316.585938 C 123.453125 317.429688 123.171875 318.277344 122.878906 319.148438 C 124.632812 321.066406 125.445312 321.707031 128 322.558594 C 128.582031 323.535156 128.582031 323.535156 129.171875 324.535156 C 130.730469 327.109375 132.457031 328.417969 134.828125 330.238281 C 135.390625 331.085938 135.953125 331.929688 136.535156 332.800781 C 138.503906 328.859375 140.476562 324.914062 142.507812 320.851562 C 143.070312 320.851562 143.632812 320.851562 144.214844 320.851562 C 144.285156 320.28125 144.355469 319.710938 144.425781 319.125 C 145.265625 315.800781 146.808594 313.105469 148.480469 310.132812 C 151.113281 305.457031 151.113281 305.457031 152.746094 300.375 C 151.902344 300.089844 151.058594 299.808594 150.1875 299.519531 C 146.773438 295.714844 146.773438 295.714844 146.773438 293.546875 C 146.28125 293.324219 145.789062 293.101562 145.28125 292.871094 C 140.316406 290.207031 136.566406 285.964844 133.121094 281.601562 C 132.273438 280.894531 131.429688 280.191406 130.558594 279.464844 C 128.1875 277.488281 126.472656 275.492188 124.585938 273.066406 C 123.742188 272.644531 123.742188 272.644531 122.878906 272.214844 C 122.878906 271.648438 122.878906 271.085938 122.878906 270.507812 C 122.035156 270.507812 121.191406 270.507812 120.320312 270.507812 C 118.742188 267.847656 118.148438 265.914062 118.613281 262.828125 C 120.578125 260.371094 122.5625 258.941406 125.441406 257.707031 C 125.441406 257.144531 125.441406 256.582031 125.441406 256 C 126.84375 254.617188 126.84375 254.617188 128.691406 253.066406 C 131.265625 250.902344 131.265625 250.902344 133.664062 248.558594 C 134.828125 247.464844 134.828125 247.464844 136.535156 247.464844 C 136.746094 246.9375 136.957031 246.410156 137.171875 245.867188 C 138.417969 243.753906 139.414062 243.242188 141.652344 242.347656 C 141.652344 241.785156 141.652344 241.21875 141.652344 240.640625 C 142.933594 239.253906 142.933594 239.253906 144.214844 238.078125 C 143.648438 238.078125 143.085938 238.078125 142.507812 238.078125 C 142.507812 238.644531 142.507812 239.207031 142.507812 239.785156 C 141.238281 239.363281 141.238281 239.363281 139.945312 238.933594 C 139.945312 238.371094 139.945312 237.808594 139.945312 237.226562 C 138.257812 236.382812 138.257812 236.382812 136.535156 235.519531 C 136.535156 234.957031 136.535156 234.394531 136.535156 233.8125 C 137.097656 233.8125 137.660156 233.8125 138.238281 233.8125 C 138.523438 233.25 138.804688 232.6875 139.09375 232.105469 C 139.09375 232.667969 139.09375 233.234375 139.09375 233.8125 C 140.359375 234.234375 140.359375 234.234375 141.652344 234.667969 C 141.652344 235.230469 141.652344 235.792969 141.652344 236.375 C 143.40625 234.800781 143.40625 234.800781 144.214844 232.960938 C 144.074219 232.433594 143.933594 231.902344 143.785156 231.359375 C 143.359375 229.546875 143.359375 229.546875 143.808594 228.007812 C 144.316406 225.65625 143.9375 223.992188 143.414062 221.652344 C 143.246094 220.890625 143.082031 220.132812 142.910156 219.347656 C 142.777344 218.769531 142.644531 218.195312 142.507812 217.601562 C 143.351562 217.601562 144.195312 217.601562 145.066406 217.601562 C 145.03125 216.964844 144.996094 216.332031 144.960938 215.679688 C 145.070312 213.21875 145.398438 211.945312 146.773438 209.921875 C 147.617188 209.636719 148.464844 209.355469 149.332031 209.066406 C 149.332031 208.503906 149.332031 207.941406 149.332031 207.359375 C 148.066406 206.9375 148.066406 206.9375 146.773438 206.507812 C 147.054688 205.660156 147.335938 204.816406 147.625 203.945312 C 147.34375 203.101562 147.0625 202.257812 146.773438 201.386719 C 147.335938 201.386719 147.898438 201.386719 148.480469 201.386719 C 148.480469 200.824219 148.480469 200.261719 148.480469 199.679688 C 147.355469 199.960938 146.226562 200.242188 145.066406 200.535156 C 144.882812 199.132812 144.882812 199.132812 144.691406 197.707031 C 144.3125 194.617188 144.3125 194.617188 143.359375 192 C 142.796875 192 142.234375 192 141.652344 192 C 141.460938 192.476562 141.265625 192.949219 141.066406 193.441406 C 139.632812 195.964844 137.777344 197.683594 135.679688 199.679688 C 135.203125 200.191406 134.730469 200.699219 134.238281 201.226562 C 133.121094 202.238281 133.121094 202.238281 131.414062 202.238281 C 131.414062 202.804688 131.414062 203.367188 131.414062 203.945312 C 130.851562 203.945312 130.285156 203.945312 129.707031 203.945312 C 129.511719 204.421875 129.320312 204.898438 129.121094 205.386719 C 128.003906 207.355469 126.738281 208.699219 125.109375 210.25 C 123.320312 212.039062 121.671875 213.941406 120 215.839844 C 117.300781 218.867188 114.554688 221.550781 111.410156 224.105469 C 110.027344 225.328125 108.929688 226.609375 107.785156 228.054688 C 105.9375 230.253906 104.921875 230.976562 102.398438 232.105469 C 101.835938 232.953125 101.273438 233.796875 100.691406 234.667969 C 100.023438 235.035156 99.355469 235.40625 98.667969 235.785156 C 95.894531 237.570312 94.78125 239.585938 93.011719 242.347656 C 91.609375 243.785156 90.1875 245.207031 88.746094 246.613281 C 88.042969 247.457031 87.339844 248.304688 86.613281 249.171875 C 84.480469 251.734375 84.480469 251.734375 82.292969 253.8125 C 77.753906 258.585938 76.1875 263.304688 75.09375 269.652344 C 74.8125 269.652344 74.53125 269.652344 74.238281 269.652344 C 73.597656 262.960938 74.609375 258.117188 78.507812 252.585938 C 81.382812 249.207031 84.507812 246.066406 87.894531 243.199219 C 88.457031 243.199219 89.019531 243.199219 89.601562 243.199219 C 89.789062 242.734375 89.976562 242.265625 90.171875 241.785156 C 91.664062 239.160156 93.6875 237.226562 95.839844 235.148438 C 96.246094 234.75 96.648438 234.355469 97.066406 233.945312 C 98.273438 232.761719 99.484375 231.582031 100.691406 230.398438 C 102.117188 228.980469 103.539062 227.558594 104.960938 226.132812 C 112.640625 218.453125 112.640625 218.453125 114.570312 216.527344 C 116.628906 214.464844 118.679688 212.394531 120.730469 210.320312 C 122.6875 208.339844 124.652344 206.363281 126.613281 204.386719 C 127.652344 203.339844 128.6875 202.292969 129.71875 201.246094 C 131.21875 199.726562 132.71875 198.214844 134.222656 196.703125 C 134.6875 196.230469 135.148438 195.757812 135.625 195.273438 C 136.75 194.148438 137.917969 193.070312 139.09375 192 C 139.65625 192 140.21875 192 140.800781 192 C 140.992188 191.542969 141.1875 191.085938 141.386719 190.613281 C 145.25 183.625 151.777344 178.6875 159.148438 175.734375 C 165.4375 173.945312 171.578125 175.980469 176.847656 179.578125 Z M 139.945312 223.574219 C 141.074219 224.136719 142.199219 224.699219 143.359375 225.28125 C 143.359375 226.125 143.359375 226.96875 143.359375 227.839844 C 142.796875 227.558594 142.234375 227.277344 141.652344 226.988281 C 141.371094 227.832031 141.089844 228.675781 140.800781 229.546875 C 140.238281 229.546875 139.671875 229.546875 139.09375 229.546875 C 139.375 227.574219 139.65625 225.605469 139.945312 223.574219 Z M 139.945312 223.574219 "/>
<path style=" stroke:none;fill-rule:nonzero;fill:rgb(24.705882%,52.156863%,92.54902%);fill-opacity:1;" d="M 176.847656 179.578125 C 180.863281 183.140625 182.984375 187.605469 183.699219 192.859375 C 184.09375 201.097656 179.851562 207.046875 174.550781 212.992188 C 173.226562 214.1875 173.226562 214.1875 171.519531 214.1875 C 171.519531 214.75 171.519531 215.3125 171.519531 215.894531 C 170.421875 216.941406 170.421875 216.941406 168.90625 218.132812 C 166.566406 220.066406 164.570312 222.054688 162.613281 224.375 C 160.601562 226.746094 158.535156 228.816406 156.160156 230.828125 C 153.800781 232.820312 151.753906 234.871094 149.761719 237.226562 C 147.269531 240.171875 144.566406 242.605469 141.625 245.09375 C 139.371094 247.136719 137.472656 249.417969 135.511719 251.738281 C 133.363281 254.113281 130.972656 256.136719 128.511719 258.179688 C 127.046875 259.351562 127.046875 259.351562 126.292969 261.121094 C 125.730469 261.121094 125.167969 261.121094 124.585938 261.121094 C 124.585938 261.683594 124.585938 262.246094 124.585938 262.828125 C 123.742188 263.390625 122.898438 263.953125 122.027344 264.535156 C 122.511719 267.445312 123.28125 268.570312 125.578125 270.386719 C 130.804688 274.753906 135.53125 279.617188 140.335938 284.4375 C 141.984375 286.089844 143.636719 287.738281 145.289062 289.386719 C 146.34375 290.441406 147.394531 291.492188 148.445312 292.546875 C 148.9375 293.039062 149.429688 293.527344 149.9375 294.035156 C 151.960938 296.066406 153.710938 297.980469 155.308594 300.375 C 155.039062 304.203125 153.214844 307.375 151.464844 310.71875 C 150.851562 311.925781 150.234375 313.128906 149.625 314.335938 C 149.300781 314.972656 148.976562 315.609375 148.644531 316.265625 C 146.847656 319.847656 145.128906 323.46875 143.414062 327.09375 C 143.082031 327.792969 142.75 328.488281 142.40625 329.207031 C 142.097656 329.863281 141.789062 330.515625 141.46875 331.191406 C 141.195312 331.769531 140.921875 332.347656 140.640625 332.945312 C 139.855469 334.648438 139.855469 334.648438 139.09375 337.066406 C 135.285156 335.871094 133.25 333.996094 130.558594 331.09375 C 130.050781 330.617188 129.539062 330.144531 129.011719 329.652344 C 128 328.535156 128 328.535156 128 326.828125 C 127.4375 326.828125 126.875 326.828125 126.292969 326.828125 C 126.292969 326.261719 126.292969 325.699219 126.292969 325.121094 C 125.816406 324.925781 125.34375 324.734375 124.851562 324.535156 C 120.46875 322.042969 117.527344 317.84375 114.347656 314.027344 C 111.773438 311.308594 109.039062 308.824219 106.238281 306.347656 C 100.527344 301.289062 100.527344 301.289062 98.132812 298.667969 C 98.132812 298.101562 98.132812 297.539062 98.132812 296.960938 C 97.007812 296.398438 95.878906 295.832031 94.71875 295.253906 C 94.71875 294.691406 94.71875 294.125 94.71875 293.546875 C 94.007812 293.257812 94.007812 293.257812 93.28125 292.960938 C 90.742188 291.519531 88.984375 289.734375 87.039062 287.574219 C 87.039062 287.011719 87.039062 286.445312 87.039062 285.867188 C 86.246094 285.550781 86.246094 285.550781 85.441406 285.226562 C 83.296875 283.964844 82.976562 282.929688 81.921875 280.746094 C 81.074219 280.464844 80.230469 280.183594 79.359375 279.894531 C 75.945312 275.308594 75.945312 275.308594 75.945312 273.066406 C 76.792969 273.066406 77.636719 273.066406 78.507812 273.066406 C 79.941406 274.6875 79.941406 274.6875 81.441406 276.800781 C 83.417969 279.585938 84.792969 281.046875 87.894531 282.453125 C 88.460938 283.589844 89.03125 284.730469 89.601562 285.867188 C 90.144531 286.128906 90.691406 286.394531 91.253906 286.667969 C 93.011719 287.574219 93.011719 287.574219 94.148438 289.496094 C 97.273438 294.632812 102.195312 298.925781 106.878906 302.667969 C 109.320312 304.71875 111.242188 306.902344 113.238281 309.375 C 114.3125 310.726562 114.3125 310.726562 116.054688 311.464844 C 116.054688 312.03125 116.054688 312.59375 116.054688 313.171875 C 116.617188 313.171875 117.179688 313.171875 117.761719 313.171875 C 118.304688 313.738281 118.851562 314.300781 119.414062 314.878906 C 121.070312 316.882812 121.070312 316.882812 123.734375 316.585938 C 123.453125 317.429688 123.171875 318.277344 122.878906 319.148438 C 124.632812 321.066406 125.445312 321.707031 128 322.558594 C 128.582031 323.535156 128.582031 323.535156 129.171875 324.535156 C 130.730469 327.109375 132.457031 328.417969 134.828125 330.238281 C 135.390625 331.085938 135.953125 331.929688 136.535156 332.800781 C 138.503906 328.859375 140.476562 324.914062 142.507812 320.851562 C 143.070312 320.851562 143.632812 320.851562 144.214844 320.851562 C 144.285156 320.28125 144.355469 319.710938 144.425781 319.125 C 145.265625 315.800781 146.808594 313.105469 148.480469 310.132812 C 151.113281 305.457031 151.113281 305.457031 152.746094 300.375 C 151.902344 300.089844 151.058594 299.808594 150.1875 299.519531 C 146.773438 295.714844 146.773438 295.714844 146.773438 293.546875 C 146.28125 293.324219 145.789062 293.101562 145.28125 292.871094 C 140.316406 290.207031 136.566406 285.964844 133.121094 281.601562 C 132.273438 280.894531 131.429688 280.191406 130.558594 279.464844 C 128.1875 277.488281 126.472656 275.492188 124.585938 273.066406 C 123.742188 272.644531 123.742188 272.644531 122.878906 272.214844 C 122.878906 271.648438 122.878906 271.085938 122.878906 270.507812 C 122.035156 270.507812 121.191406 270.507812 120.320312 270.507812 C 118.742188 267.847656 118.148438 265.914062 118.613281 262.828125 C 120.578125 260.371094 122.5625 258.941406 125.441406 257.707031 C 125.441406 257.144531 125.441406 256.582031 125.441406 256 C 126.84375 254.617188 126.84375 254.617188 128.691406 253.066406 C 131.265625 250.902344 131.265625 250.902344 133.664062 248.558594 C 134.828125 247.464844 134.828125 247.464844 136.535156 247.464844 C 136.746094 246.9375 136.957031 246.410156 137.171875 245.867188 C 138.417969 243.753906 139.414062 243.242188 141.652344 242.347656 C 141.652344 241.785156 141.652344 241.21875 141.652344 240.640625 C 143.253906 238.828125 143.253906 238.828125 145.066406 237.226562 C 145.628906 237.226562 146.191406 237.226562 146.773438 237.226562 C 147.195312 235.960938 147.195312 235.960938 147.625 234.667969 C 148.191406 234.667969 148.753906 234.667969 149.332031 234.667969 C 149.527344 234.191406 149.71875 233.714844 149.921875 233.226562 C 151.359375 230.6875 153.144531 228.933594 155.308594 226.988281 C 155.871094 226.988281 156.433594 226.988281 157.011719 226.988281 C 157.011719 226.421875 157.011719 225.859375 157.011719 225.28125 C 158.417969 223.957031 158.417969 223.957031 160.265625 222.453125 C 162.949219 220.183594 164.777344 218.195312 166.398438 215.039062 C 168.105469 213.332031 168.105469 213.332031 169.652344 212.640625 C 173.050781 210.796875 175.417969 208.46875 176.640625 204.800781 C 177.203125 204.800781 177.765625 204.800781 178.347656 204.800781 C 178.3125 203.992188 178.277344 203.179688 178.238281 202.347656 C 178.347656 199.679688 178.347656 199.679688 180.054688 197.972656 C 180.261719 195.695312 180.261719 195.695312 180.160156 193.171875 C 180.144531 192.316406 180.128906 191.460938 180.113281 190.578125 C 180.09375 189.921875 180.074219 189.265625 180.054688 188.585938 C 179.488281 188.585938 178.925781 188.585938 178.347656 188.585938 C 178.101562 188.042969 177.855469 187.496094 177.601562 186.933594 C 176.785156 185.042969 176.785156 185.042969 174.933594 184.320312 C 174.511719 183.898438 174.511719 183.898438 174.078125 183.464844 C 173.234375 183.042969 173.234375 183.042969 172.375 182.613281 C 171.949219 181.347656 171.949219 181.347656 171.519531 180.054688 C 166.949219 178.148438 162.652344 177.769531 157.867188 179.199219 C 154.835938 180.953125 151.78125 182.835938 150.1875 186.027344 C 149.183594 186.371094 149.183594 186.371094 148.160156 186.71875 C 145.382812 187.976562 144.804688 189.386719 143.359375 192 C 142.796875 192 142.234375 192 141.652344 192 C 141.460938 192.476562 141.265625 192.949219 141.066406 193.441406 C 139.632812 195.964844 137.777344 197.683594 135.679688 199.679688 C 135.203125 200.191406 134.730469 200.699219 134.238281 201.226562 C 133.121094 202.238281 133.121094 202.238281 131.414062 202.238281 C 131.414062 202.804688 131.414062 203.367188 131.414062 203.945312 C 130.851562 203.945312 130.285156 203.945312 129.707031 203.945312 C 129.511719 204.421875 129.320312 204.898438 129.121094 205.386719 C 128.003906 207.355469 126.738281 208.699219 125.109375 210.25 C 123.320312 212.039062 121.671875 213.941406 120 215.839844 C 117.300781 218.867188 114.554688 221.550781 111.410156 224.105469 C 110.027344 225.328125 108.929688 226.609375 107.785156 228.054688 C 105.9375 230.253906 104.921875 230.976562 102.398438 232.105469 C 101.835938 232.953125 101.273438 233.796875 100.691406 234.667969 C 100.023438 235.035156 99.355469 235.40625 98.667969 235.785156 C 95.894531 237.570312 94.78125 239.585938 93.011719 242.347656 C 91.609375 243.785156 90.1875 245.207031 88.746094 246.613281 C 88.042969 247.457031 87.339844 248.304688 86.613281 249.171875 C 84.480469 251.734375 84.480469 251.734375 82.292969 253.8125 C 77.753906 258.585938 76.1875 263.304688 75.09375 269.652344 C 74.8125 269.652344 74.53125 269.652344 74.238281 269.652344 C 73.597656 262.960938 74.609375 258.117188 78.507812 252.585938 C 81.382812 249.207031 84.507812 246.066406 87.894531 243.199219 C 88.457031 243.199219 89.019531 243.199219 89.601562 243.199219 C 89.789062 242.734375 89.976562 242.265625 90.171875 241.785156 C 91.664062 239.160156 93.6875 237.226562 95.839844 235.148438 C 96.246094 234.75 96.648438 234.355469 97.066406 233.945312 C 98.273438 232.761719 99.484375 231.582031 100.691406 230.398438 C 102.117188 228.980469 103.539062 227.558594 104.960938 226.132812 C 112.640625 218.453125 112.640625 218.453125 114.570312 216.527344 C 116.628906 214.464844 118.679688 212.394531 120.730469 210.320312 C 122.6875 208.339844 124.652344 206.363281 126.613281 204.386719 C 127.652344 203.339844 128.6875 202.292969 129.71875 201.246094 C 131.21875 199.726562 132.71875 198.214844 134.222656 196.703125 C 134.6875 196.230469 135.148438 195.757812 135.625 195.273438 C 136.75 194.148438 137.917969 193.070312 139.09375 192 C 139.65625 192 140.21875 192 140.800781 192 C 140.992188 191.542969 141.1875 191.085938 141.386719 190.613281 C 145.25 183.625 151.777344 178.6875 159.148438 175.734375 C 165.4375 173.945312 171.578125 175.980469 176.847656 179.578125 Z M 176.847656 179.578125 "/>
<path style=" stroke:none;fill-rule:nonzero;fill:rgb(21.176471%,64.313725%,92.941176%);fill-opacity:1;" d="M 351.679688 175.574219 C 352.765625 175.777344 352.765625 175.777344 353.875 175.988281 C 356.011719 176.699219 356.964844 177.492188 358.398438 179.199219 C 352.640625 178.453125 352.640625 178.453125 350.71875 177.492188 C 345.496094 176.710938 341.375 179.050781 337.066406 181.761719 C 333.253906 185.667969 331.699219 189.007812 331.679688 194.453125 C 331.664062 195.3125 331.652344 196.171875 331.636719 197.058594 C 332.644531 205.578125 340.414062 212.023438 346.71875 217.175781 C 348.90625 219.113281 350.746094 221.316406 352.621094 223.550781 C 354.453125 225.644531 356.425781 227.585938 358.398438 229.546875 C 359.539062 230.6875 360.679688 231.828125 361.820312 232.96875 C 362.460938 233.609375 363.101562 234.25 363.761719 234.910156 C 373.636719 244.785156 383.511719 254.660156 393.386719 264.535156 C 392.179688 268.40625 390.035156 270.785156 387.183594 273.546875 C 386.742188 273.984375 386.300781 274.421875 385.84375 274.875 C 384.433594 276.269531 383.019531 277.65625 381.601562 279.039062 C 380.65625 279.96875 379.714844 280.902344 378.773438 281.832031 C 377.03125 283.554688 375.285156 285.269531 373.539062 286.984375 C 369.582031 290.867188 365.832031 294.773438 362.285156 299.03125 C 361.847656 299.472656 361.410156 299.917969 360.960938 300.375 C 360.398438 300.375 359.832031 300.375 359.253906 300.375 C 361.519531 306.957031 364.738281 313.003906 368.039062 319.109375 C 370.445312 323.589844 372.617188 328.121094 374.613281 332.800781 C 377.824219 331.730469 379.109375 330.121094 381.441406 327.679688 C 382.140625 326.976562 382.839844 326.273438 383.5625 325.546875 C 384.675781 324.425781 384.675781 324.425781 385.8125 323.277344 C 390.003906 319.0625 394.195312 314.851562 398.390625 310.640625 C 400.925781 308.097656 403.457031 305.554688 405.984375 303.007812 C 408.433594 300.539062 410.890625 298.070312 413.351562 295.605469 C 414.289062 294.667969 415.222656 293.726562 416.15625 292.785156 C 417.453125 291.472656 418.757812 290.167969 420.0625 288.863281 C 420.804688 288.117188 421.546875 287.371094 422.308594 286.605469 C 424.105469 285.011719 424.105469 285.011719 425.8125 285.011719 C 426.035156 284.519531 426.253906 284.023438 426.484375 283.511719 C 427.597656 281.460938 428.863281 279.996094 430.453125 278.292969 C 434.589844 273.617188 436.414062 270.113281 436.199219 263.84375 C 436.015625 261.480469 435.675781 259.175781 435.199219 256.851562 C 436.90625 257.707031 436.90625 257.707031 437.921875 260.265625 C 439.523438 266.601562 437.949219 271.566406 434.769531 277.085938 C 432.761719 280.164062 430.335938 282.667969 427.722656 285.238281 C 427.160156 285.804688 426.597656 286.371094 426.019531 286.957031 C 424.179688 288.808594 422.328125 290.644531 420.472656 292.484375 C 419.183594 293.773438 417.894531 295.0625 416.605469 296.351562 C 413.917969 299.042969 411.222656 301.730469 408.519531 304.410156 C 405.054688 307.851562 401.601562 311.308594 398.152344 314.765625 C 395.5 317.425781 392.839844 320.082031 390.175781 322.734375 C 388.902344 324.003906 387.625 325.277344 386.351562 326.554688 C 384.582031 328.332031 382.800781 330.097656 381.015625 331.863281 C 380.488281 332.390625 379.960938 332.921875 379.421875 333.46875 C 375.757812 337.066406 375.757812 337.066406 372.90625 337.066406 C 372.769531 336.605469 372.632812 336.140625 372.492188 335.664062 C 370.910156 330.609375 368.78125 326.128906 366.238281 321.492188 C 365.480469 320.074219 364.726562 318.65625 363.96875 317.238281 C 363.605469 316.546875 363.238281 315.859375 362.859375 315.152344 C 361.402344 312.394531 359.984375 309.628906 358.613281 306.828125 C 357.988281 305.5625 357.988281 305.5625 357.347656 304.269531 C 356.691406 302.078125 356.691406 302.078125 357.308594 300.445312 C 358.539062 298.441406 359.902344 296.960938 361.570312 295.300781 C 362.542969 294.328125 362.542969 294.328125 363.539062 293.335938 C 364.238281 292.644531 364.9375 291.953125 365.660156 291.238281 C 366.378906 290.523438 367.09375 289.808594 367.832031 289.074219 C 370.125 286.792969 372.421875 284.515625 374.71875 282.238281 C 376.273438 280.695312 377.828125 279.148438 379.382812 277.601562 C 383.191406 273.808594 387.007812 270.023438 390.828125 266.238281 C 390.019531 265.289062 389.210938 264.339844 388.398438 263.394531 C 387.949219 262.863281 387.5 262.335938 387.035156 261.792969 C 384.550781 258.941406 381.964844 256.410156 378.988281 254.078125 C 376.191406 251.8125 374.214844 249.089844 372.140625 246.167969 C 370.113281 243.777344 367.878906 241.871094 365.503906 239.839844 C 361.632812 236.40625 358.039062 232.6875 354.398438 229.011719 C 353.613281 228.222656 352.824219 227.429688 352.011719 226.613281 C 350.546875 225.140625 349.082031 223.667969 347.621094 222.195312 C 343.550781 218.082031 343.550781 218.082031 339.386719 214.066406 C 333.96875 208.917969 328.921875 203.300781 328.425781 195.496094 C 328.804688 189.152344 331.082031 184.300781 335.445312 179.734375 C 340.035156 175.804688 345.796875 174.386719 351.679688 175.574219 Z M 351.679688 175.574219 "/>
<path style=" stroke:none;fill-rule:nonzero;fill:rgb(22.745098%,59.215686%,94.117647%);fill-opacity:1;" d="M 227.839844 186.027344 C 247.269531 186.027344 266.699219 186.027344 286.71875 186.027344 C 290.476562 197.296875 294.097656 208.246094 297.273438 219.625 C 299.191406 226.363281 301.398438 233.011719 303.5625 239.675781 C 305.75 246.417969 307.832031 253.179688 309.785156 259.992188 C 310.324219 261.835938 310.90625 263.667969 311.542969 265.480469 C 312.300781 267.886719 312.648438 270.027344 312.851562 272.535156 C 312.917969 273.277344 312.980469 274.023438 313.046875 274.792969 C 313.089844 275.351562 313.128906 275.90625 313.171875 276.480469 C 310.742188 273.433594 309.902344 270.882812 308.90625 267.09375 C 308.523438 265.917969 308.132812 264.742188 307.734375 263.574219 C 306.636719 260.339844 305.628906 257.082031 304.640625 253.8125 C 303.695312 250.699219 302.710938 247.65625 301.492188 244.640625 C 300.273438 241.210938 299.84375 238.277344 299.519531 234.667969 C 298.957031 234.667969 298.394531 234.667969 297.8125 234.667969 C 297.679688 234.085938 297.542969 233.503906 297.402344 232.90625 C 296.121094 227.574219 294.671875 222.308594 293.066406 217.066406 C 292.886719 216.46875 292.707031 215.875 292.523438 215.261719 C 291.464844 211.84375 291.464844 211.84375 289.28125 209.066406 C 287.574219 206.507812 287.574219 206.507812 287.574219 204.800781 C 288.136719 204.800781 288.699219 204.800781 289.28125 204.800781 C 287.773438 199.589844 286.125 194.496094 284.160156 189.441406 C 277.808594 188.671875 271.542969 188.449219 265.148438 188.441406 C 263.695312 188.4375 263.695312 188.4375 262.210938 188.433594 C 260.179688 188.429688 258.148438 188.429688 256.117188 188.429688 C 253 188.425781 249.878906 188.410156 246.761719 188.394531 C 244.78125 188.390625 242.804688 188.390625 240.828125 188.390625 C 239.890625 188.382812 238.957031 188.378906 237.992188 188.371094 C 237.132812 188.375 236.273438 188.375 235.386719 188.378906 C 234.246094 188.378906 234.246094 188.378906 233.085938 188.375 C 231.070312 188.414062 231.070312 188.414062 229.546875 190.292969 C 230.109375 190.855469 230.671875 191.417969 231.253906 192 C 230.585938 192.617188 229.914062 193.230469 229.226562 193.867188 C 225.527344 197.828125 225.03125 201.75 224.0625 206.921875 C 223.394531 209.84375 222.304688 212.339844 221.011719 215.039062 C 220.449219 214.757812 219.886719 214.476562 219.308594 214.1875 C 220.160156 207.359375 220.160156 207.359375 227.839844 186.027344 Z M 227.839844 186.027344 "/>
<path style=" stroke:none;fill-rule:nonzero;fill:rgb(22.745098%,59.607843%,94.117647%);fill-opacity:1;" d="M 315.734375 288.425781 C 316.296875 288.425781 316.859375 288.425781 317.441406 288.425781 C 320.816406 296.292969 323.65625 304.28125 326.292969 312.425781 C 326.597656 313.355469 326.902344 314.289062 327.21875 315.246094 C 327.640625 316.574219 327.640625 316.574219 328.074219 317.925781 C 328.453125 319.113281 328.453125 319.113281 328.839844 320.320312 C 329.394531 322.585938 329.425781 324.507812 329.386719 326.828125 C 323.25 326.992188 317.117188 327.144531 310.980469 327.285156 C 308.894531 327.335938 306.804688 327.386719 304.71875 327.445312 C 301.71875 327.523438 298.71875 327.59375 295.71875 327.660156 C 294.785156 327.6875 293.851562 327.714844 292.890625 327.742188 C 292.019531 327.761719 291.148438 327.777344 290.25 327.796875 C 289.101562 327.824219 289.101562 327.824219 287.929688 327.851562 C 285.675781 327.664062 284.335938 327.214844 282.453125 325.972656 C 281.621094 323.863281 281.621094 323.863281 281.058594 321.222656 C 280.847656 320.261719 280.636719 319.300781 280.417969 318.3125 C 280.207031 317.300781 280 316.292969 279.785156 315.253906 C 279.570312 314.265625 279.359375 313.28125 279.136719 312.265625 C 278.730469 310.402344 278.332031 308.535156 277.941406 306.667969 C 277.195312 303.140625 276.410156 299.625 275.625 296.105469 C 262.671875 296.105469 249.71875 296.105469 236.375 296.105469 C 235.246094 301.175781 234.121094 306.246094 232.960938 311.464844 C 231.078125 319.074219 231.078125 319.074219 230.398438 320.851562 C 229.554688 321.277344 229.554688 321.277344 228.691406 321.707031 C 228.417969 316.753906 229.082031 313.054688 230.777344 308.390625 C 231.332031 306.011719 231.027344 304.417969 230.398438 302.078125 C 230.964844 301.796875 231.527344 301.515625 232.105469 301.226562 C 232.265625 299.773438 232.265625 299.773438 232.425781 298.292969 C 232.960938 295.253906 232.960938 295.253906 234.453125 294.1875 C 236.695312 293.4375 237.992188 293.5625 240.320312 293.921875 C 244.734375 294.425781 248.917969 294.320312 253.332031 294.027344 C 270.332031 292.917969 270.332031 292.917969 274.773438 294.398438 C 275.054688 293.835938 275.335938 293.273438 275.625 292.691406 C 277.332031 293.652344 277.332031 293.652344 279.039062 295.253906 C 279.253906 297.972656 279.253906 297.972656 279.039062 300.375 C 279.886719 300.089844 280.730469 299.808594 281.601562 299.519531 C 282.023438 300.789062 282.023438 300.789062 282.453125 302.078125 C 282.03125 302.871094 282.03125 302.871094 281.601562 303.679688 C 280.5 306.019531 280.921875 307.320312 281.601562 309.761719 C 282.164062 309.761719 282.726562 309.761719 283.308594 309.761719 C 283.308594 308.914062 283.308594 308.070312 283.308594 307.199219 C 283.871094 307.199219 284.433594 307.199219 285.011719 307.199219 C 285.011719 309.453125 285.011719 311.707031 285.011719 314.027344 C 283.746094 313.605469 283.746094 313.605469 282.453125 313.171875 C 282.734375 313.71875 283.015625 314.265625 283.308594 314.828125 C 284.441406 318.304688 284.300781 321.496094 284.160156 325.121094 C 286.132812 325.121094 288.101562 325.121094 290.132812 325.121094 C 290.554688 324.273438 290.554688 324.273438 290.988281 323.414062 C 290.988281 323.976562 290.988281 324.539062 290.988281 325.121094 C 291.550781 325.121094 292.113281 325.121094 292.691406 325.121094 C 292.691406 324.558594 292.691406 323.992188 292.691406 323.414062 C 293.75 323.554688 294.804688 323.695312 295.894531 323.839844 C 298.9375 324.179688 301.898438 324.300781 304.960938 324.265625 C 312.261719 324.191406 319.539062 324.691406 326.828125 325.121094 C 326.621094 324.53125 326.414062 323.9375 326.199219 323.328125 C 324.496094 318.351562 322.96875 313.363281 321.652344 308.265625 C 320.488281 303.789062 319.144531 299.550781 317.441406 295.253906 C 317.3125 294.667969 317.183594 294.082031 317.050781 293.476562 C 316.675781 291.652344 316.675781 291.652344 314.878906 290.132812 C 315.160156 289.570312 315.441406 289.007812 315.734375 288.425781 Z M 315.734375 288.425781 "/>
<path style=" stroke:none;fill-rule:nonzero;fill:rgb(22.745098%,58.823529%,94.117647%);fill-opacity:1;" d="M 255.148438 213.332031 C 257.960938 214.742188 260.777344 216.148438 263.679688 217.601562 C 262.835938 218.445312 261.992188 219.289062 261.121094 220.160156 C 260.558594 219.316406 259.992188 218.46875 259.414062 217.601562 C 259.695312 219.007812 259.976562 220.414062 260.265625 221.867188 C 261.113281 221.867188 261.957031 221.867188 262.828125 221.867188 C 263.390625 222.992188 263.953125 224.121094 264.535156 225.28125 C 263.679688 226.132812 262.828125 226.988281 261.972656 227.839844 C 263.367188 233.011719 264.800781 238.164062 266.292969 243.308594 C 267.28125 246.742188 268.207031 250.160156 268.960938 253.652344 C 269.476562 256.675781 269.476562 256.675781 270.507812 258.558594 C 271.070312 257.714844 271.632812 256.871094 272.214844 256 C 272.214844 258.253906 272.214844 260.503906 272.214844 262.828125 C 273.058594 263.25 273.058594 263.25 273.921875 263.679688 C 273.601562 266.1875 273.601562 266.1875 273.066406 268.800781 C 270.449219 270.109375 267.714844 269.757812 264.847656 269.738281 C 263.882812 269.734375 263.882812 269.734375 262.902344 269.734375 C 260.851562 269.726562 258.796875 269.71875 256.746094 269.707031 C 255.355469 269.703125 253.964844 269.699219 252.578125 269.695312 C 249.167969 269.6875 245.757812 269.671875 242.347656 269.652344 C 242.347656 269.371094 242.347656 269.089844 242.347656 268.800781 C 251.359375 268.800781 260.367188 268.800781 269.652344 268.800781 C 268.882812 266.015625 268.109375 263.226562 267.316406 260.355469 C 266.5625 257.632812 265.808594 254.90625 265.054688 252.179688 C 264.535156 250.300781 264.011719 248.417969 263.492188 246.535156 C 262.742188 243.820312 261.988281 241.101562 261.238281 238.382812 C 261.007812 237.554688 260.777344 236.726562 260.542969 235.871094 C 259.015625 230.351562 257.503906 224.832031 256 219.308594 C 255.867188 219.871094 255.734375 220.433594 255.597656 221.011719 C 255.066406 223.273438 254.519531 225.53125 253.972656 227.785156 C 253.785156 228.59375 253.59375 229.398438 253.398438 230.230469 C 253.214844 231 253.027344 231.765625 252.832031 232.558594 C 252.664062 233.265625 252.492188 233.976562 252.320312 234.710938 C 251.734375 236.375 251.734375 236.375 250.027344 237.226562 C 249.464844 238.070312 248.898438 238.917969 248.320312 239.785156 C 248.320312 236.664062 248.710938 234.722656 249.601562 231.785156 C 250.582031 228.351562 251.0625 225.460938 250.878906 221.867188 C 251.160156 221.304688 251.441406 220.742188 251.734375 220.160156 C 252.296875 220.160156 252.859375 220.160156 253.441406 220.160156 C 253.160156 219.035156 252.875 217.90625 252.585938 216.746094 C 253.148438 216.746094 253.714844 216.746094 254.292969 216.746094 C 254.574219 215.621094 254.855469 214.492188 255.148438 213.332031 Z M 255.148438 213.332031 "/>
<path style=" stroke:none;fill-rule:nonzero;fill:rgb(21.176471%,62.352941%,94.117647%);fill-opacity:1;" d="M 358.398438 179.199219 C 361.9375 180.363281 363.945312 181.90625 366.507812 184.585938 C 367.132812 185.234375 367.757812 185.882812 368.398438 186.550781 C 369.042969 187.222656 369.683594 187.894531 370.347656 188.585938 C 371.765625 190.011719 373.1875 191.433594 374.613281 192.851562 C 383.148438 201.386719 383.148438 201.386719 385.308594 203.554688 C 386.644531 204.886719 387.984375 206.214844 389.328125 207.539062 C 392.242188 210.414062 395.101562 213.269531 397.707031 216.425781 C 400.019531 219.207031 402.636719 221.453125 405.386719 223.785156 C 406.949219 225.199219 408.265625 226.640625 409.601562 228.265625 C 411.40625 230.460938 413.292969 232.300781 415.464844 234.132812 C 418.671875 236.851562 421.351562 239.847656 424.089844 243.027344 C 425.792969 244.882812 427.566406 246.488281 429.492188 248.105469 C 431.984375 250.21875 433.886719 252.085938 435.199219 255.148438 C 434.917969 255.710938 434.636719 256.273438 434.347656 256.851562 C 433.171875 255.753906 432.035156 254.613281 430.933594 253.441406 C 430.933594 252.875 430.933594 252.3125 430.933594 251.734375 C 430.195312 251.417969 430.195312 251.417969 429.441406 251.09375 C 427.238281 249.871094 425.761719 248.503906 424.105469 246.613281 C 424.105469 246.050781 424.105469 245.488281 424.105469 244.90625 C 423.542969 244.90625 422.980469 244.90625 422.398438 244.90625 C 422.398438 244.34375 422.398438 243.78125 422.398438 243.199219 C 421.835938 243.199219 421.273438 243.199219 420.691406 243.199219 C 420.691406 242.636719 420.691406 242.074219 420.691406 241.492188 C 420.128906 241.492188 419.566406 241.492188 418.988281 241.492188 C 418.988281 240.929688 418.988281 240.367188 418.988281 239.785156 C 418.527344 239.59375 418.070312 239.398438 417.601562 239.199219 C 414.082031 237.257812 410.90625 235.175781 409.601562 231.253906 C 408.203125 229.898438 408.203125 229.898438 406.558594 228.640625 C 404.902344 227.328125 404.902344 227.328125 403.625 226.132812 C 403.625 225.570312 403.625 225.007812 403.625 224.425781 C 403.097656 224.164062 402.570312 223.898438 402.027344 223.625 C 400.851562 223.039062 399.679688 222.453125 398.507812 221.867188 C 398.507812 221.304688 398.507812 220.742188 398.507812 220.160156 C 397.660156 220.160156 396.816406 220.160156 395.945312 220.160156 C 395.945312 219.597656 395.945312 219.035156 395.945312 218.453125 C 394.820312 217.890625 393.695312 217.328125 392.535156 216.746094 C 392.535156 215.902344 392.535156 215.058594 392.535156 214.1875 C 391.6875 213.90625 390.84375 213.625 389.972656 213.332031 C 389.972656 212.769531 389.972656 212.207031 389.972656 211.625 C 389.410156 211.625 388.847656 211.625 388.265625 211.625 C 387.316406 210.378906 387.316406 210.378906 386.292969 208.746094 C 384.4375 206.011719 383.027344 204.792969 379.734375 203.945312 C 379.734375 203.382812 379.734375 202.820312 379.734375 202.238281 C 379.171875 201.675781 378.605469 201.113281 378.027344 200.535156 C 377.464844 199.96875 376.898438 199.40625 376.320312 198.828125 C 376.320312 198.261719 376.320312 197.699219 376.320312 197.121094 C 375.84375 196.925781 375.371094 196.734375 374.878906 196.535156 C 372.347656 195.09375 370.683594 193.230469 368.640625 191.148438 C 367.757812 190.277344 366.871094 189.414062 365.984375 188.550781 C 365.074219 187.65625 364.164062 186.761719 363.253906 185.867188 C 362.785156 185.410156 362.316406 184.957031 361.832031 184.488281 C 360.65625 183.328125 359.523438 182.121094 358.398438 180.90625 C 358.398438 180.34375 358.398438 179.78125 358.398438 179.199219 Z M 358.398438 179.199219 "/>
<path style=" stroke:none;fill-rule:nonzero;fill:rgb(24.705882%,52.941176%,94.509804%);fill-opacity:1;" d="M 201.386719 274.773438 C 202.230469 275.898438 203.078125 277.027344 203.945312 278.1875 C 203.664062 278.75 203.382812 279.3125 203.09375 279.894531 C 202.25 280.175781 201.402344 280.457031 200.535156 280.746094 C 199.664062 282.339844 199.664062 282.339844 199.09375 284.214844 C 198.878906 284.839844 198.664062 285.464844 198.441406 286.109375 C 198.289062 286.59375 198.132812 287.074219 197.972656 287.574219 C 198.535156 287.855469 199.101562 288.136719 199.679688 288.425781 C 199.117188 291.804688 198.554688 295.183594 197.972656 298.667969 C 197.128906 297.539062 196.285156 296.414062 195.414062 295.253906 C 194.851562 298.351562 194.285156 301.449219 193.707031 304.640625 C 194.972656 304.21875 194.972656 304.21875 196.265625 303.785156 C 196.546875 304.351562 196.828125 304.914062 197.121094 305.492188 C 196.273438 305.914062 196.273438 305.914062 195.414062 306.347656 C 194.640625 308.148438 194.640625 308.148438 194.027344 310.238281 C 193.804688 310.945312 193.582031 311.648438 193.351562 312.375 C 193.1875 312.921875 193.023438 313.464844 192.851562 314.027344 C 192.289062 312.898438 191.726562 311.773438 191.148438 310.613281 C 190.582031 310.613281 190.019531 310.613281 189.441406 310.613281 C 189.722656 313.148438 190.003906 315.683594 190.292969 318.292969 C 189.730469 318.011719 189.167969 317.730469 188.585938 317.441406 C 188.164062 319.550781 188.164062 319.550781 187.734375 321.707031 C 186.464844 322.128906 186.464844 322.128906 185.171875 322.558594 C 185.015625 318.347656 185.4375 315.042969 186.761719 311.046875 C 187.097656 310.023438 187.433594 309 187.777344 307.941406 C 188.132812 306.886719 188.488281 305.832031 188.851562 304.746094 C 189.199219 303.699219 189.542969 302.648438 189.898438 301.570312 C 190.875 298.609375 191.863281 295.648438 192.851562 292.691406 C 193.363281 291.164062 193.875 289.632812 194.382812 288.101562 C 194.722656 287.082031 195.0625 286.0625 195.414062 285.011719 C 195.976562 285.011719 196.539062 285.011719 197.121094 285.011719 C 197.683594 282.480469 198.246094 279.945312 198.828125 277.332031 C 199.390625 277.332031 199.953125 277.332031 200.535156 277.332031 C 200.816406 276.488281 201.097656 275.644531 201.386719 274.773438 Z M 201.386719 274.773438 "/>
<path style=" stroke:none;fill-rule:nonzero;fill:rgb(24.313725%,54.901961%,93.333333%);fill-opacity:1;" d="M 215.894531 224.425781 C 216.175781 224.425781 216.457031 224.425781 216.746094 224.425781 C 216.164062 231.347656 216.164062 231.347656 214.988281 234.667969 C 213.910156 238.113281 214.042969 241.324219 214.1875 244.90625 C 213.34375 245.1875 212.496094 245.46875 211.625 245.761719 C 210.527344 247.878906 210.527344 247.878906 209.707031 250.398438 C 209.402344 251.242188 209.097656 252.085938 208.785156 252.957031 C 207.964844 255.117188 207.964844 255.117188 209.066406 256.851562 C 208.433594 258.304688 208.433594 258.304688 207.464844 260 C 205.75 263.222656 205.296875 266.03125 204.800781 269.652344 C 203.464844 271.308594 203.464844 271.308594 202.238281 272.214844 C 201.675781 271.933594 201.113281 271.648438 200.535156 271.359375 C 202.332031 264.597656 204.285156 257.890625 206.347656 251.199219 C 206.644531 250.238281 206.941406 249.273438 207.246094 248.28125 C 209.023438 242.554688 210.859375 236.855469 212.851562 231.199219 C 213.0625 230.601562 213.273438 230.003906 213.492188 229.386719 C 214.925781 225.394531 214.925781 225.394531 215.894531 224.425781 Z M 215.894531 224.425781 "/>
<path style=" stroke:none;fill-rule:nonzero;fill:rgb(24.705882%,58.039216%,91.372549%);fill-opacity:1;" d="M 230.144531 186.777344 C 231.6875 186.78125 231.6875 186.78125 233.261719 186.78125 C 233.828125 186.78125 234.394531 186.78125 234.980469 186.78125 C 236.859375 186.785156 238.738281 186.789062 240.617188 186.796875 C 241.917969 186.796875 243.214844 186.800781 244.515625 186.800781 C 247.941406 186.804688 251.371094 186.8125 254.796875 186.820312 C 258.292969 186.832031 261.785156 186.835938 265.28125 186.839844 C 272.144531 186.847656 279.003906 186.863281 285.867188 186.878906 C 285.585938 187.441406 285.304688 188.007812 285.011719 188.585938 C 284.34375 188.582031 283.675781 188.578125 282.984375 188.574219 C 276.679688 188.542969 270.378906 188.515625 264.074219 188.5 C 260.832031 188.488281 257.589844 188.476562 254.351562 188.457031 C 251.226562 188.4375 248.097656 188.429688 244.972656 188.425781 C 243.777344 188.421875 242.585938 188.414062 241.390625 188.40625 C 239.71875 188.394531 238.050781 188.394531 236.382812 188.394531 C 235.429688 188.390625 234.480469 188.386719 233.5 188.382812 C 231.117188 188.359375 231.117188 188.359375 229.546875 190.292969 C 230.109375 190.855469 230.671875 191.417969 231.253906 192 C 230.585938 192.617188 229.914062 193.230469 229.226562 193.867188 C 225.527344 197.828125 225.03125 201.75 224.0625 206.921875 C 223.394531 209.84375 222.304688 212.339844 221.011719 215.039062 C 220.449219 214.757812 219.886719 214.476562 219.308594 214.1875 C 219.773438 208.136719 221.527344 202.863281 223.574219 197.171875 C 223.886719 196.273438 224.203125 195.378906 224.527344 194.453125 C 227.195312 186.910156 227.195312 186.910156 230.144531 186.777344 Z M 230.144531 186.777344 "/>
<path style=" stroke:none;fill-rule:nonzero;fill:rgb(24.313725%,53.72549%,92.156863%);fill-opacity:1;" d="M 240.761719 293.835938 C 245.167969 294.292969 249.535156 294.546875 253.960938 294.671875 C 254.59375 294.6875 255.230469 294.707031 255.882812 294.726562 C 257.84375 294.777344 259.800781 294.828125 261.761719 294.878906 C 263.109375 294.917969 264.460938 294.953125 265.8125 294.992188 C 269.085938 295.082031 272.355469 295.167969 275.625 295.253906 C 275.625 295.535156 275.625 295.816406 275.625 296.105469 C 262.671875 296.105469 249.71875 296.105469 236.375 296.105469 C 235.246094 301.175781 234.121094 306.246094 232.960938 311.464844 C 231.078125 319.074219 231.078125 319.074219 230.398438 320.851562 C 229.554688 321.277344 229.554688 321.277344 228.691406 321.707031 C 228.417969 316.753906 229.082031 313.054688 230.777344 308.390625 C 231.332031 306.011719 231.027344 304.417969 230.398438 302.078125 C 230.964844 301.796875 231.527344 301.515625 232.105469 301.226562 C 232.265625 299.773438 232.265625 299.773438 232.425781 298.292969 C 232.960938 295.253906 232.960938 295.253906 234.425781 294.191406 C 236.773438 293.414062 238.308594 293.535156 240.761719 293.835938 Z M 240.761719 293.835938 "/>
<path style=" stroke:none;fill-rule:nonzero;fill:rgb(25.098039%,53.333333%,94.901961%);fill-opacity:1;" d="M 191.148438 320.851562 C 192.851562 323.414062 192.851562 323.414062 192.851562 325.121094 C 193.875 324.980469 194.894531 324.839844 195.945312 324.691406 C 198.917969 324.3125 201.804688 324.265625 204.800781 324.265625 C 205.082031 323.984375 205.363281 323.703125 205.652344 323.414062 C 206.800781 323.339844 207.949219 323.320312 209.097656 323.328125 C 209.785156 323.332031 210.476562 323.335938 211.1875 323.339844 C 211.914062 323.34375 212.640625 323.351562 213.386719 323.359375 C 214.117188 323.363281 214.84375 323.367188 215.59375 323.371094 C 217.402344 323.382812 219.207031 323.398438 221.011719 323.414062 C 221.011719 322.570312 221.011719 321.722656 221.011719 320.851562 C 221.578125 321.136719 222.140625 321.417969 222.71875 321.707031 C 222.71875 322.550781 222.71875 323.394531 222.71875 324.265625 C 224.78125 324.410156 224.78125 324.410156 226.988281 324.265625 C 227.550781 323.703125 228.113281 323.140625 228.691406 322.558594 C 228.691406 323.6875 228.691406 324.8125 228.691406 325.972656 C 214.050781 325.972656 199.40625 325.972656 184.320312 325.972656 C 184.601562 325.128906 184.882812 324.285156 185.171875 323.414062 C 185.171875 323.976562 185.171875 324.539062 185.171875 325.121094 C 186.863281 325.121094 188.550781 325.121094 190.292969 325.121094 C 190.574219 323.710938 190.855469 322.304688 191.148438 320.851562 Z M 191.148438 320.851562 "/>
<path style=" stroke:none;fill-rule:nonzero;fill:rgb(28.235294%,46.666667%,88.627451%);fill-opacity:1;" d="M 118.613281 264.535156 C 119.175781 264.535156 119.738281 264.535156 120.320312 264.535156 C 120.320312 265.378906 120.320312 266.222656 120.320312 267.09375 C 121.164062 267.375 122.007812 267.65625 122.878906 267.945312 C 124.109375 269.191406 124.109375 269.191406 125.441406 270.828125 C 129.433594 275.527344 133.808594 279.824219 138.1875 284.160156 C 139.023438 284.992188 139.859375 285.824219 140.695312 286.65625 C 142.71875 288.671875 144.746094 290.683594 146.773438 292.691406 C 142.335938 292.691406 139.585938 288.851562 136.535156 285.867188 C 135.382812 284.453125 134.242188 283.035156 133.121094 281.601562 C 131.851562 280.542969 131.851562 280.542969 130.558594 279.464844 C 128.1875 277.488281 126.472656 275.492188 124.585938 273.066406 C 124.023438 272.785156 123.460938 272.503906 122.878906 272.214844 C 122.878906 271.648438 122.878906 271.085938 122.878906 270.507812 C 122.035156 270.507812 121.191406 270.507812 120.320312 270.507812 C 119.074219 268.246094 118.613281 267.183594 118.613281 264.535156 Z M 118.613281 264.535156 "/>
<path style=" stroke:none;fill-rule:nonzero;fill:rgb(23.921569%,51.764706%,98.823529%);fill-opacity:1;" d="M 195.414062 315.734375 C 196.539062 316.859375 197.667969 317.984375 198.828125 319.148438 C 198.261719 319.710938 197.699219 320.273438 197.121094 320.851562 C 197.929688 321.117188 198.738281 321.382812 199.574219 321.652344 C 202.238281 322.558594 202.238281 322.558594 203.945312 323.414062 C 203.945312 323.976562 203.945312 324.539062 203.945312 325.121094 C 200.285156 325.121094 196.625 325.121094 192.851562 325.121094 C 192.570312 323.429688 192.289062 321.742188 192 320 C 193.707031 318.292969 193.707031 318.292969 195.414062 317.441406 C 195.414062 316.875 195.414062 316.3125 195.414062 315.734375 Z M 195.414062 315.734375 "/>
<path style=" stroke:none;fill-rule:nonzero;fill:rgb(25.098039%,58.431373%,90.588235%);fill-opacity:1;" d="M 268.800781 260.265625 C 270.507812 262.828125 270.507812 262.828125 270.507812 265.386719 C 271.070312 265.386719 271.632812 265.386719 272.214844 265.386719 C 272.496094 264.542969 272.777344 263.695312 273.066406 262.828125 C 273.652344 264.800781 273.652344 264.800781 273.921875 267.09375 C 273.070312 268.5 273.070312 268.5 271.359375 269.652344 C 269.089844 269.875 267.027344 269.953125 264.761719 269.902344 C 264.121094 269.898438 263.484375 269.894531 262.824219 269.890625 C 260.78125 269.878906 258.738281 269.847656 256.691406 269.8125 C 255.308594 269.800781 253.921875 269.789062 252.535156 269.777344 C 249.136719 269.75 245.742188 269.707031 242.347656 269.652344 C 242.347656 269.371094 242.347656 269.089844 242.347656 268.800781 C 251.359375 268.800781 260.367188 268.800781 269.652344 268.800781 C 269.230469 264.574219 269.230469 264.574219 268.800781 260.265625 Z M 268.800781 260.265625 "/>
<path style=" stroke:none;fill-rule:nonzero;fill:rgb(21.176471%,66.666667%,91.764706%);fill-opacity:1;" d="M 376.320312 197.121094 C 379.890625 200.113281 383.300781 203.167969 386.558594 206.507812 C 387.136719 207.066406 387.714844 207.625 388.308594 208.199219 C 388.929688 208.804688 389.546875 209.40625 390.1875 210.027344 C 390.773438 210.59375 391.355469 211.15625 391.960938 211.738281 C 393.386719 213.332031 393.386719 213.332031 394.238281 215.894531 C 395.34375 217.0625 396.476562 218.207031 397.652344 219.308594 C 397.089844 219.589844 396.527344 219.871094 395.945312 220.160156 C 395.945312 219.597656 395.945312 219.035156 395.945312 218.453125 C 394.820312 217.890625 393.695312 217.328125 392.535156 216.746094 C 392.535156 215.902344 392.535156 215.058594 392.535156 214.1875 C 391.6875 213.90625 390.84375 213.625 389.972656 213.332031 C 389.972656 212.769531 389.972656 212.207031 389.972656 211.625 C 389.410156 211.625 388.847656 211.625 388.265625 211.625 C 387.316406 210.378906 387.316406 210.378906 386.292969 208.746094 C 384.4375 206.011719 383.027344 204.792969 379.734375 203.945312 C 379.734375 203.382812 379.734375 202.820312 379.734375 202.238281 C 379.171875 201.675781 378.605469 201.113281 378.027344 200.535156 C 377.464844 199.96875 376.898438 199.40625 376.320312 198.828125 C 376.320312 198.261719 376.320312 197.699219 376.320312 197.121094 Z M 376.320312 197.121094 "/>
<path style=" stroke:none;fill-rule:nonzero;fill:rgb(27.45098%,47.843137%,89.803922%);fill-opacity:1;" d="M 146.773438 293.546875 C 147.175781 293.894531 147.578125 294.246094 147.988281 294.605469 C 148.519531 295.066406 149.050781 295.527344 149.601562 296 C 150.386719 296.683594 150.386719 296.683594 151.191406 297.378906 C 152.863281 298.808594 152.863281 298.808594 155.308594 300.375 C 154.558594 304.425781 154.558594 304.425781 153.601562 306.347656 C 153.035156 306.347656 152.472656 306.347656 151.894531 306.347656 C 151.550781 307.480469 151.550781 307.480469 151.199219 308.640625 C 150.257812 311.269531 149.136719 313.398438 147.625 315.734375 C 147.34375 315.171875 147.0625 314.605469 146.773438 314.027344 C 147.523438 312.324219 148.355469 310.65625 149.226562 309.011719 C 151.441406 304.859375 151.441406 304.859375 152.746094 300.375 C 151.902344 300.089844 151.058594 299.808594 150.1875 299.519531 C 146.773438 295.714844 146.773438 295.714844 146.773438 293.546875 Z M 146.773438 293.546875 "/>
<path style=" stroke:none;fill-rule:nonzero;fill:rgb(26.27451%,50.196078%,90.980392%);fill-opacity:1;" d="M 167.253906 213.332031 C 168.660156 213.613281 170.070312 213.898438 171.519531 214.1875 C 171.519531 214.75 171.519531 215.3125 171.519531 215.894531 C 170.109375 217.171875 168.640625 218.390625 167.148438 219.574219 C 166.292969 220.253906 165.441406 220.9375 164.5625 221.640625 C 163.761719 222.277344 162.960938 222.914062 162.132812 223.574219 C 161.082031 224.441406 160.03125 225.3125 158.988281 226.1875 C 158.011719 227.003906 158.011719 227.003906 157.011719 227.839844 C 157.011719 225.28125 157.011719 225.28125 158.417969 223.875 C 159.027344 223.386719 159.636719 222.902344 160.265625 222.398438 C 162.953125 220.15625 164.851562 218.230469 166.398438 215.039062 C 166.679688 214.476562 166.964844 213.914062 167.253906 213.332031 Z M 167.253906 213.332031 "/>
<path style=" stroke:none;fill-rule:nonzero;fill:rgb(16.862745%,69.411765%,95.686275%);fill-opacity:1;" d="M 361.8125 297.8125 C 362.375 298.65625 362.941406 299.503906 363.519531 300.375 C 364.082031 300.9375 364.644531 301.5 365.226562 302.078125 C 364.804688 302.433594 364.382812 302.785156 363.945312 303.148438 C 362.296875 304.742188 362.296875 304.742188 362.667969 308.054688 C 363.230469 308.335938 363.792969 308.617188 364.375 308.90625 C 364.089844 310.03125 363.808594 311.160156 363.519531 312.320312 C 362.800781 310.972656 362.089844 309.621094 361.386719 308.265625 C 360.992188 307.515625 360.59375 306.761719 360.1875 305.988281 C 359.253906 303.785156 359.253906 303.785156 359.253906 300.375 C 359.816406 300.375 360.378906 300.375 360.960938 300.375 C 361.242188 299.527344 361.523438 298.683594 361.8125 297.8125 Z M 361.8125 297.8125 "/>
<path style=" stroke:none;fill-rule:nonzero;fill:rgb(24.313725%,52.941176%,93.72549%);fill-opacity:1;" d="M 122.027344 320.851562 C 122.535156 321.136719 123.046875 321.417969 123.574219 321.707031 C 125.484375 322.738281 125.484375 322.738281 128 322.558594 C 130.066406 325.484375 131.550781 328.734375 133.121094 331.945312 C 130.882812 331.050781 129.882812 330.539062 128.640625 328.425781 C 128.429688 327.898438 128.21875 327.371094 128 326.828125 C 127.4375 326.828125 126.875 326.828125 126.292969 326.828125 C 126.292969 326.261719 126.292969 325.699219 126.292969 325.121094 C 125.746094 324.890625 125.203125 324.664062 124.640625 324.425781 C 122.878906 323.414062 122.878906 323.414062 122.027344 320.851562 Z M 122.027344 320.851562 "/>
<path style=" stroke:none;fill-rule:nonzero;fill:rgb(27.45098%,48.627451%,91.372549%);fill-opacity:1;" d="M 143.359375 189.441406 C 143.359375 190.285156 143.359375 191.128906 143.359375 192 C 142.796875 192 142.234375 192 141.652344 192 C 141.460938 192.476562 141.265625 192.949219 141.066406 193.441406 C 139.632812 195.964844 137.777344 197.683594 135.679688 199.679688 C 135.167969 200.191406 134.660156 200.699219 134.132812 201.226562 C 133.800781 201.5625 133.464844 201.894531 133.121094 202.238281 C 132.558594 201.957031 131.992188 201.675781 131.414062 201.386719 C 132.066406 200.769531 132.714844 200.15625 133.386719 199.519531 C 135.699219 197.300781 135.699219 197.300781 136.90625 194.933594 C 138.613281 192.269531 140.675781 191.050781 143.359375 189.441406 Z M 143.359375 189.441406 "/>
<path style=" stroke:none;fill-rule:nonzero;fill:rgb(25.098039%,55.294118%,90.196078%);fill-opacity:1;" d="M 244.90625 250.878906 C 245.1875 250.878906 245.46875 250.878906 245.761719 250.878906 C 245.425781 256.476562 244.546875 261.074219 242.347656 266.238281 C 242.066406 266.238281 241.785156 266.238281 241.492188 266.238281 C 241.304688 262.324219 241.890625 259.367188 243.199219 255.679688 C 243.515625 254.777344 243.832031 253.871094 244.160156 252.941406 C 244.40625 252.261719 244.652344 251.582031 244.90625 250.878906 Z M 244.90625 250.878906 "/>
<path style=" stroke:none;fill-rule:nonzero;fill:rgb(23.137255%,54.117647%,94.509804%);fill-opacity:1;" d="M 163.839844 221.011719 C 163.839844 223.574219 163.839844 223.574219 161.601562 225.875 C 160.644531 226.734375 159.6875 227.582031 158.71875 228.425781 C 158.230469 228.863281 157.742188 229.300781 157.238281 229.75 C 156.03125 230.824219 154.816406 231.894531 153.601562 232.960938 C 153.320312 232.113281 153.035156 231.269531 152.746094 230.398438 C 153.761719 228.585938 153.761719 228.585938 155.308594 226.988281 C 155.84375 226.867188 156.382812 226.746094 156.9375 226.625 C 159.105469 226.027344 159.96875 225.148438 161.492188 223.519531 C 161.9375 223.050781 162.382812 222.585938 162.839844 222.101562 C 163.171875 221.742188 163.5 221.382812 163.839844 221.011719 Z M 163.839844 221.011719 "/>
<path style=" stroke:none;fill-rule:nonzero;fill:rgb(25.098039%,51.764706%,93.333333%);fill-opacity:1;" d="M 126.292969 258.558594 C 126.292969 259.40625 126.292969 260.25 126.292969 261.121094 C 125.730469 261.121094 125.167969 261.121094 124.585938 261.121094 C 124.585938 261.683594 124.585938 262.246094 124.585938 262.828125 C 123.742188 263.390625 122.898438 263.953125 122.027344 264.535156 C 121.183594 265.800781 121.183594 265.800781 120.320312 267.09375 C 120.320312 266.25 120.320312 265.402344 120.320312 264.535156 C 119.757812 264.535156 119.195312 264.535156 118.613281 264.535156 C 118.613281 262.828125 118.613281 262.828125 120.160156 261.066406 C 122.1875 259.273438 123.5625 258.558594 126.292969 258.558594 Z M 126.292969 258.558594 "/>
<path style=" stroke:none;fill-rule:nonzero;fill:rgb(26.666667%,50.588235%,92.54902%);fill-opacity:1;" d="M 191.148438 320.851562 C 192.851562 323.414062 192.851562 323.414062 192.851562 325.121094 C 194.542969 324.839844 196.234375 324.558594 197.972656 324.265625 C 198.253906 324.828125 198.535156 325.394531 198.828125 325.972656 C 194.039062 325.972656 189.253906 325.972656 184.320312 325.972656 C 184.601562 325.128906 184.882812 324.285156 185.171875 323.414062 C 185.171875 323.976562 185.171875 324.539062 185.171875 325.121094 C 186.863281 325.121094 188.550781 325.121094 190.292969 325.121094 C 190.574219 323.710938 190.855469 322.304688 191.148438 320.851562 Z M 191.148438 320.851562 "/>
<path style=" stroke:none;fill-rule:nonzero;fill:rgb(16.862745%,69.411765%,95.686275%);fill-opacity:1;" d="M 355.839844 221.011719 C 356.746094 222.613281 356.746094 222.613281 357.546875 224.425781 C 357.265625 224.988281 356.984375 225.554688 356.691406 226.132812 C 357.539062 226.132812 358.382812 226.132812 359.253906 226.132812 C 359.535156 227.257812 359.816406 228.386719 360.105469 229.546875 C 359.261719 229.546875 358.417969 229.546875 357.546875 229.546875 C 357.546875 228.984375 357.546875 228.421875 357.546875 227.839844 C 357.019531 227.609375 356.492188 227.382812 355.945312 227.148438 C 354.132812 226.132812 354.132812 226.132812 352.425781 223.574219 C 352.988281 223.574219 353.554688 223.574219 354.132812 223.574219 C 354.414062 223.011719 354.695312 222.445312 354.988281 221.867188 C 355.269531 221.585938 355.550781 221.304688 355.839844 221.011719 Z M 355.839844 221.011719 "/>
<path style=" stroke:none;fill-rule:nonzero;fill:rgb(25.490196%,52.941176%,94.509804%);fill-opacity:1;" d="M 162.988281 178.347656 C 166.644531 178.753906 168.335938 179.761719 170.667969 182.613281 C 170.667969 183.175781 170.667969 183.738281 170.667969 184.320312 C 169.855469 184.019531 169.046875 183.722656 168.214844 183.414062 C 165.65625 182.3125 165.65625 182.3125 163.839844 183.464844 C 163.839844 182.902344 163.839844 182.339844 163.839844 181.761719 C 163.277344 181.476562 162.714844 181.195312 162.132812 180.90625 C 162.414062 180.0625 162.695312 179.21875 162.988281 178.347656 Z M 162.988281 178.347656 "/>
<path style=" stroke:none;fill-rule:nonzero;fill:rgb(23.921569%,51.764706%,98.823529%);fill-opacity:1;" d="M 188.585938 316.585938 C 190.660156 319.695312 190.429688 321.460938 190.292969 325.121094 C 188.886719 325.121094 187.476562 325.121094 186.027344 325.121094 C 186.289062 323.855469 186.558594 322.59375 186.828125 321.332031 C 186.976562 320.628906 187.125 319.925781 187.277344 319.203125 C 187.734375 317.441406 187.734375 317.441406 188.585938 316.585938 Z M 188.585938 316.585938 "/>
<path style=" stroke:none;fill-rule:nonzero;fill:rgb(25.490196%,53.72549%,91.372549%);fill-opacity:1;" d="M 223.574219 200.535156 C 223.855469 200.535156 224.136719 200.535156 224.425781 200.535156 C 224.597656 204.179688 224.210938 206.605469 222.71875 209.921875 C 222.140625 211.625 221.570312 213.328125 221.011719 215.039062 C 220.449219 214.476562 219.886719 213.914062 219.308594 213.332031 C 220.714844 209.109375 222.121094 204.886719 223.574219 200.535156 Z M 223.574219 200.535156 "/>
<path style=" stroke:none;fill-rule:nonzero;fill:rgb(23.137255%,58.823529%,94.509804%);fill-opacity:1;" d="M 238.933594 262.828125 C 239.777344 262.828125 240.621094 262.828125 241.492188 262.828125 C 241.773438 265.078125 242.054688 267.332031 242.347656 269.652344 C 240.109375 268.757812 239.109375 268.246094 237.867188 266.132812 C 237.65625 265.605469 237.445312 265.078125 237.226562 264.535156 C 237.789062 263.96875 238.351562 263.40625 238.933594 262.828125 Z M 238.933594 262.828125 "/>
<path style=" stroke:none;fill-rule:nonzero;fill:rgb(20.392157%,61.568627%,95.686275%);fill-opacity:1;" d="M 425.8125 245.761719 C 428.449219 246.914062 430.085938 248.15625 431.945312 250.347656 C 432.597656 251.097656 432.597656 251.097656 433.261719 251.859375 C 434.410156 253.535156 434.835938 254.871094 435.199219 256.851562 C 432.070312 254.570312 430.234375 252.554688 428.375 249.171875 C 427.535156 248.023438 426.6875 246.882812 425.8125 245.761719 Z M 425.8125 245.761719 "/>
<path style=" stroke:none;fill-rule:nonzero;fill:rgb(16.862745%,69.019608%,96.078431%);fill-opacity:1;" d="M 350.71875 176.640625 C 349.03125 177.484375 349.03125 177.484375 347.308594 178.347656 C 348.433594 179.191406 349.558594 180.035156 350.71875 180.90625 C 349.3125 181.46875 347.902344 182.03125 346.453125 182.613281 C 345.609375 180.921875 344.765625 179.234375 343.894531 177.492188 C 346.203125 176.335938 348.167969 176.585938 350.71875 176.640625 Z M 350.71875 176.640625 "/>
<path style=" stroke:none;fill-rule:nonzero;fill:rgb(16.862745%,69.803922%,95.686275%);fill-opacity:1;" d="M 367.785156 291.839844 C 367.785156 294.398438 367.785156 296.960938 367.785156 299.519531 C 366.941406 299.519531 366.097656 299.519531 365.226562 299.519531 C 365.226562 298.957031 365.226562 298.394531 365.226562 297.8125 C 364.382812 297.53125 363.535156 297.25 362.667969 296.960938 C 364.355469 295.269531 366.046875 293.582031 367.785156 291.839844 Z M 367.785156 291.839844 "/>
<path style=" stroke:none;fill-rule:nonzero;fill:rgb(17.647059%,69.411765%,94.117647%);fill-opacity:1;" d="M 388.265625 210.773438 C 389.8125 210.933594 389.8125 210.933594 391.679688 211.625 C 392.582031 213.019531 393.433594 214.445312 394.238281 215.894531 C 395.347656 217.0625 396.476562 218.210938 397.652344 219.308594 C 396.808594 219.730469 396.808594 219.730469 395.945312 220.160156 C 395.945312 219.597656 395.945312 219.035156 395.945312 218.453125 C 394.820312 217.890625 393.695312 217.328125 392.535156 216.746094 C 392.535156 215.902344 392.535156 215.058594 392.535156 214.1875 C 391.6875 213.90625 390.84375 213.625 389.972656 213.332031 C 389.972656 212.769531 389.972656 212.207031 389.972656 211.625 C 389.410156 211.34375 388.847656 211.0625 388.265625 210.773438 Z M 388.265625 210.773438 "/>
<path style=" stroke:none;fill-rule:nonzero;fill:rgb(24.313725%,58.039216%,91.764706%);fill-opacity:1;" d="M 247.464844 240.640625 C 247.75 240.640625 248.03125 240.640625 248.320312 240.640625 C 248.636719 247.046875 248.636719 247.046875 247.039062 249.171875 C 246.617188 249.453125 246.195312 249.738281 245.761719 250.027344 C 245.546875 243.519531 245.546875 243.519531 247.464844 240.640625 Z M 247.464844 240.640625 "/>
<path style=" stroke:none;fill-rule:nonzero;fill:rgb(26.27451%,47.45098%,97.254902%);fill-opacity:1;" d="M 146.773438 186.027344 C 148.179688 186.871094 149.589844 187.714844 151.039062 188.585938 C 150.757812 189.714844 150.476562 190.839844 150.1875 192 C 148.050781 190.933594 146.71875 189.441406 145.066406 187.734375 C 145.628906 187.171875 146.191406 186.605469 146.773438 186.027344 Z M 146.773438 186.027344 "/>
<path style=" stroke:none;fill-rule:nonzero;fill:rgb(28.627451%,46.666667%,88.627451%);fill-opacity:1;" d="M 134.828125 247.464844 C 135.671875 247.75 136.515625 248.03125 137.386719 248.320312 C 135.414062 250.292969 133.445312 252.261719 131.414062 254.292969 C 131.132812 253.449219 130.851562 252.605469 130.558594 251.734375 C 131.96875 250.324219 133.375 248.917969 134.828125 247.464844 Z M 134.828125 247.464844 "/>
<path style=" stroke:none;fill-rule:nonzero;fill:rgb(16.862745%,68.235294%,96.862745%);fill-opacity:1;" d="M 352.425781 216.746094 C 353.269531 217.589844 354.117188 218.4375 354.988281 219.308594 C 354.140625 219.730469 354.140625 219.730469 353.28125 220.160156 C 352.71875 219.878906 352.152344 219.597656 351.574219 219.308594 C 351.292969 220.433594 351.011719 221.558594 350.71875 222.71875 C 350.71875 222.15625 350.71875 221.59375 350.71875 221.011719 C 349.875 220.730469 349.03125 220.449219 348.160156 220.160156 C 349.230469 218.015625 350.292969 217.710938 352.425781 216.746094 Z M 352.425781 216.746094 "/>
<path style=" stroke:none;fill-rule:nonzero;fill:rgb(25.098039%,55.686275%,91.372549%);fill-opacity:1;" d="M 226.988281 191.148438 C 227.957031 194.054688 227.726562 194.5625 226.613281 197.28125 C 226.246094 198.195312 226.246094 198.195312 225.871094 199.128906 C 225.675781 199.59375 225.480469 200.054688 225.28125 200.535156 C 224.15625 197.160156 225.027344 195.316406 226.132812 192 C 226.414062 191.71875 226.695312 191.4375 226.988281 191.148438 Z M 226.988281 191.148438 "/>
<path style=" stroke:none;fill-rule:nonzero;fill:rgb(18.431373%,64.705882%,98.431373%);fill-opacity:1;" d="M 331.09375 192 C 331.65625 192 332.21875 192 332.800781 192 C 333.363281 193.972656 333.925781 195.941406 334.507812 197.972656 C 333.378906 197.972656 332.253906 197.972656 331.09375 197.972656 C 331.09375 196.003906 331.09375 194.03125 331.09375 192 Z M 331.09375 192 "/>
<path style=" stroke:none;fill-rule:nonzero;fill:rgb(16.470588%,69.803922%,96.470588%);fill-opacity:1;" d="M 383.148438 319.148438 C 384.835938 319.710938 386.527344 320.273438 388.265625 320.851562 C 386.558594 322.558594 386.558594 322.558594 384 323.414062 C 383.15625 322.570312 382.308594 321.722656 381.441406 320.851562 C 382.003906 320.289062 382.566406 319.726562 383.148438 319.148438 Z M 383.148438 319.148438 "/>
</g>
</svg>
