<?xml version="1.0" encoding="UTF-8"?>
<svg version="1.1" xmlns="http://www.w3.org/2000/svg" width="600" height="600">
<path d="M0 0 C22.77 0 45.54 0 69 0 C73.40204309 13.20612928 77.64647285 26.03735621 81.3671875 39.375 C83.62077556 47.28976162 86.2137205 55.09797768 88.75585938 62.92358398 C90.93678093 69.65069719 93.03284186 76.3813903 94.97021484 83.18261719 C96.37010496 88.02118742 97.89594888 92.81551502 99.453125 97.60546875 C99.67569473 98.29063065 99.89826447 98.97579254 100.12757874 99.68171692 C101.25278101 103.14070557 102.38418245 106.59753669 103.52319336 110.05200195 C107.04286019 120.78972934 107.04286019 120.78972934 107.98046875 125.484375 C109.49040689 132.93887586 112.34415086 140.12593922 114.83740234 147.29980469 C115.52574478 149.28623234 116.20473078 151.27567569 116.8828125 153.265625 C117.49213623 155.02567871 117.49213623 155.02567871 118.11376953 156.82128906 C118.93722661 159.77484585 119.07288842 161.97161683 119 165 C111.81037796 165.19364012 104.62048712 165.371038 97.43017578 165.53710938 C94.9837943 165.5955343 92.5374989 165.6576872 90.09130859 165.72363281 C86.57665683 165.81773708 83.06191428 165.89846239 79.546875 165.9765625 C77.9044986 166.02485703 77.9044986 166.02485703 76.22894287 166.0741272 C74.69780853 166.10438492 74.69780853 166.10438492 73.13574219 166.13525391 C72.23861511 166.15746002 71.34148804 166.17966614 70.41717529 166.20254517 C67.77545479 165.98118442 66.207761 165.45418844 64 164 C63.02685547 161.52905273 63.02685547 161.52905273 62.3671875 158.43359375 C62.11839844 157.30759766 61.86960937 156.18160156 61.61328125 155.02148438 C61.36964844 153.83876953 61.12601562 152.65605469 60.875 151.4375 C60.62363281 150.28185547 60.37226563 149.12621094 60.11328125 147.93554688 C59.63938287 145.75090018 59.17227594 143.56476056 58.71435547 141.37670898 C57.84018065 137.24454495 56.9162317 133.12304265 56 129 C40.82 129 25.64 129 10 129 C8.68 134.94 7.36 140.88 6 147 C5.27866506 150.1899034 4.55469584 153.37763432 3.8125 156.5625 C3.64814453 157.28373047 3.48378906 158.00496094 3.31445312 158.74804688 C2.11671606 163.88328394 2.11671606 163.88328394 1 165 C-0.68801985 165.09353163 -2.37995207 165.11744791 -4.07055664 165.11352539 C-5.15160172 165.11344986 -6.23264679 165.11337433 -7.34645081 165.11329651 C-9.110485 165.10555458 -9.110485 165.10555458 -10.91015625 165.09765625 C-12.10732773 165.0962413 -13.30449921 165.09482635 -14.53794861 165.09336853 C-18.37949066 165.08774979 -22.22097543 165.07519411 -26.0625 165.0625 C-28.65950437 165.05748741 -31.25650965 165.05292409 -33.85351562 165.04882812 C-40.23569679 165.03777427 -46.6178443 165.02101792 -53 165 C-51.89763381 159.7838646 -50.68779707 154.68166729 -49.0390625 149.60546875 C-48.6560498 148.42106201 -48.27303711 147.23665527 -47.87841797 146.01635742 C-47.46073935 144.74002993 -47.04292945 143.46374539 -46.625 142.1875 C-46.18483043 140.83251225 -45.74489479 139.47744849 -45.30517578 138.12231445 C-41.63943236 126.85161276 -37.8707133 115.61538428 -34.10049438 104.37930298 C-30.52704351 93.72145639 -27.11866385 83.02896432 -23.87548828 72.26513672 C-21.18628694 63.41593523 -18.15151687 54.70395262 -15.07568359 45.98291016 C-13.13624064 40.43886307 -11.35753196 34.94889478 -9.9375 29.25 C-7.27892336 19.30177772 -3.5190436 9.67736991 0 0 Z M33 37 C32.70649658 38.06806885 32.41299316 39.1361377 32.1105957 40.23657227 C29.83282337 48.49642152 27.5116419 56.74141757 25.10546875 64.96484375 C24.86563263 65.78570465 24.62579651 66.60656555 24.37869263 67.45230103 C23.39663297 70.81130306 22.4134833 74.16996723 21.42504883 77.52709961 C20.68992456 80.02614381 19.9597932 82.52660179 19.23046875 85.02734375 C19.00554245 85.78659653 18.78061615 86.5458493 18.5488739 87.32810974 C17.68034447 90.31753014 17 92.86942915 17 96 C27.56 96 38.12 96 49 96 C47.68166474 89.40832371 46.28436316 83.03407061 44.46875 76.58984375 C44.23216675 75.73749649 43.9955835 74.88514923 43.75183105 74.00697327 C43.00460832 71.3161919 42.25272753 68.62674616 41.5 65.9375 C40.74772865 63.24456209 39.99657259 60.55133056 39.24816895 57.85731506 C38.78527121 56.19148814 38.32017765 54.52626911 37.85241699 52.86180115 C36.39099889 47.60866722 35.13167509 42.33378685 34 37 C33.67 37 33.34 37 33 37 Z " fill="#3891FC" transform="translate(267,218)"/>
<path d="M0 0 C4.70828565 4.17467994 7.1925357 9.40784697 8.03125 15.56640625 C8.49437157 25.22070977 3.52130592 32.18979625 -2.69140625 39.16015625 C-4.2421875 40.55859375 -4.2421875 40.55859375 -6.2421875 40.55859375 C-6.2421875 41.21859375 -6.2421875 41.87859375 -6.2421875 42.55859375 C-7.52734375 43.78515625 -7.52734375 43.78515625 -9.3046875 45.18359375 C-12.0474725 47.44721751 -14.38833749 49.77709546 -16.6796875 52.49609375 C-19.03917107 55.27785626 -21.45735039 57.70301862 -24.2421875 60.05859375 C-27.00488591 62.39626164 -29.40451961 64.79589534 -31.7421875 67.55859375 C-34.66172861 71.00896052 -37.8293122 73.86308388 -41.2734375 76.77734375 C-43.91859878 79.17058491 -46.13963154 81.84496756 -48.4375 84.56640625 C-50.95622329 87.34681507 -53.757627 89.72005897 -56.640625 92.11328125 C-58.35806565 93.48668392 -58.35806565 93.48668392 -59.2421875 95.55859375 C-59.9021875 95.55859375 -60.5621875 95.55859375 -61.2421875 95.55859375 C-61.2421875 96.21859375 -61.2421875 96.87859375 -61.2421875 97.55859375 C-62.2321875 98.21859375 -63.2221875 98.87859375 -64.2421875 99.55859375 C-63.67566313 102.97238356 -62.77205017 104.2908437 -60.078125 106.41796875 C-53.95583422 111.53763538 -48.41481191 117.2367716 -42.78564453 122.88476562 C-40.85432794 124.82148931 -38.91766296 126.75275099 -36.98046875 128.68359375 C-35.74707467 129.91764784 -34.51399039 131.15201167 -33.28125 132.38671875 C-32.70420319 132.96174133 -32.12715637 133.53676392 -31.53262329 134.12921143 C-29.16291825 136.51288873 -27.11284233 138.7526115 -25.2421875 141.55859375 C-25.55498607 146.04725328 -27.69474132 149.76400146 -29.7421875 153.68359375 C-30.46403401 155.09543815 -31.18400338 156.50824347 -31.90234375 157.921875 C-32.28148926 158.66775879 -32.66063477 159.41364258 -33.05126953 160.18212891 C-35.15604697 164.38219114 -37.16937455 168.6252022 -39.1796875 172.87109375 C-39.56898438 173.68916504 -39.95828125 174.50723633 -40.359375 175.35009766 C-40.72160156 176.11628418 -41.08382812 176.8824707 -41.45703125 177.671875 C-41.77792725 178.35032471 -42.09882324 179.02877441 -42.42944336 179.7277832 C-43.35045986 181.72358905 -43.35045986 181.72358905 -44.2421875 184.55859375 C-48.7031178 183.15658708 -51.08896053 180.96075969 -54.2421875 177.55859375 C-54.8403125 177.00171875 -55.4384375 176.44484375 -56.0546875 175.87109375 C-57.2421875 174.55859375 -57.2421875 174.55859375 -57.2421875 172.55859375 C-57.9021875 172.55859375 -58.5621875 172.55859375 -59.2421875 172.55859375 C-59.2421875 171.89859375 -59.2421875 171.23859375 -59.2421875 170.55859375 C-59.7990625 170.33171875 -60.3559375 170.10484375 -60.9296875 169.87109375 C-66.06810667 166.95469368 -69.51275771 162.0339095 -73.2421875 157.55859375 C-76.25776203 154.37548731 -79.45981841 151.46055583 -82.7421875 148.55859375 C-89.43832571 142.633797 -89.43832571 142.633797 -92.2421875 139.55859375 C-92.2421875 138.89859375 -92.2421875 138.23859375 -92.2421875 137.55859375 C-93.5621875 136.89859375 -94.8821875 136.23859375 -96.2421875 135.55859375 C-96.2421875 134.89859375 -96.2421875 134.23859375 -96.2421875 133.55859375 C-97.0775 133.21828125 -97.0775 133.21828125 -97.9296875 132.87109375 C-100.90378338 131.18309339 -102.96227615 129.09182858 -105.2421875 126.55859375 C-105.2421875 125.89859375 -105.2421875 125.23859375 -105.2421875 124.55859375 C-106.1703125 124.18734375 -106.1703125 124.18734375 -107.1171875 123.80859375 C-109.62929046 122.33088613 -110.00326094 121.11904198 -111.2421875 118.55859375 C-112.2321875 118.22859375 -113.2221875 117.89859375 -114.2421875 117.55859375 C-115.59375 115.8515625 -115.59375 115.8515625 -116.8671875 113.74609375 C-117.29257813 113.05902344 -117.71796875 112.37195313 -118.15625 111.6640625 C-121.09910415 105.9583129 -121.30505593 99.17916696 -119.51171875 93.0703125 C-116.18914128 85.54953245 -110.44688785 79.81410483 -104.2421875 74.55859375 C-103.5821875 74.55859375 -102.9221875 74.55859375 -102.2421875 74.55859375 C-102.02175781 74.01074219 -101.80132812 73.46289062 -101.57421875 72.8984375 C-99.82348621 69.82310381 -97.45271684 67.55700654 -94.9296875 65.12109375 C-94.45595703 64.65638672 -93.98222656 64.19167969 -93.49414062 63.71289062 C-92.07952364 62.32536617 -90.66087238 60.94195868 -89.2421875 59.55859375 C-87.57298983 57.89446193 -85.90617249 56.22793779 -84.2421875 54.55859375 C-75.2421875 45.55859375 -75.2421875 45.55859375 -72.98120117 43.30200195 C-70.56761877 40.88454715 -68.16326661 38.45853659 -65.76289368 36.02799988 C-63.46774871 33.70602119 -61.16720438 31.38942216 -58.86645508 29.07299805 C-57.6514698 27.84786197 -56.43827185 26.62095096 -55.22680664 25.39233398 C-53.47225457 23.61365298 -51.71143528 21.84139604 -49.94921875 20.0703125 C-49.40650833 19.51727951 -48.86379791 18.96424652 -48.30464172 18.39445496 C-46.98791145 17.07733022 -45.6193575 15.81238757 -44.2421875 14.55859375 C-43.5821875 14.55859375 -42.9221875 14.55859375 -42.2421875 14.55859375 C-42.0153125 14.02234375 -41.7884375 13.48609375 -41.5546875 12.93359375 C-37.02778288 4.74205205 -29.37731939 -1.04372929 -20.7421875 -4.50390625 C-13.37028938 -6.59716127 -6.17559046 -4.2129028 0 0 Z " fill="#4177FD" transform="translate(207.2421875,210.44140625)"/>
<path d="M0 0 C4.32897169 3.26369182 8.10616833 6.87181012 11.8125 10.8125 C13.47508005 12.48324329 15.14209223 14.14958285 16.8125 15.8125 C26.8125 25.8125 26.8125 25.8125 29.34765625 28.3515625 C30.91271153 29.9141375 32.48249205 31.47200522 34.05859375 33.0234375 C37.47006723 36.39234358 40.82359806 39.73579929 43.875 43.4375 C46.58329311 46.69345349 49.65197593 49.32781291 52.875 52.0625 C54.70599314 53.71630025 56.24857986 55.40859722 57.8125 57.3125 C59.92812121 59.88555282 62.14208667 62.03825995 64.6875 64.1875 C68.45032831 67.37803503 71.59564452 70.89522127 74.8046875 74.6328125 C76.73006728 76.72301079 78.71652535 78.42254296 80.9375 80.1875 C86.52883385 84.94068518 90.51367664 91.68193615 91.875 98.9375 C91.6982544 109.89572698 85.68373399 117.24622119 78.25561523 124.64404297 C77.60636078 125.29840836 76.95710632 125.95277374 76.28817749 126.62696838 C74.15426831 128.77470762 72.01308269 130.91500843 69.87109375 133.0546875 C68.38162067 134.54804889 66.89237119 136.04163333 65.40333557 137.53543091 C62.28896945 140.65724339 59.17077567 143.77517155 56.05004883 146.890625 C52.044286 150.89057143 48.05005271 154.90181767 44.05879116 158.91622734 C40.99031049 161.99940333 37.9149701 165.07566358 34.8375721 168.14993668 C33.36118634 169.62683698 31.88717304 171.10611277 30.41555595 172.58776474 C28.36409556 174.65150103 26.30340149 176.70554663 24.23999023 178.75732422 C23.32584602 179.68293404 23.32584602 179.68293404 22.39323425 180.62724304 C18.15508971 184.8125 18.15508971 184.8125 14.8125 184.8125 C14.65177002 184.27012695 14.49104004 183.72775391 14.32543945 183.16894531 C12.47369678 177.2448923 9.98006678 171.99320571 7 166.5625 C6.11121746 164.90084181 5.2245039 163.23807534 4.33984375 161.57421875 C3.9104248 160.76774902 3.48100586 159.9612793 3.03857422 159.13037109 C1.32976554 155.89989926 -0.33119716 152.65809009 -1.9375 149.375 C-2.67226563 147.89193359 -2.67226563 147.89193359 -3.421875 146.37890625 C-4.1875 143.8125 -4.1875 143.8125 -3.46755981 141.89849854 C-2.02593387 139.54921019 -0.42807724 137.81307341 1.52783203 135.87011719 C2.6687883 134.72938751 2.6687883 134.72938751 3.83279419 133.56561279 C4.65367523 132.75505432 5.47455627 131.94449585 6.3203125 131.109375 C7.16093231 130.27158508 8.00155212 129.43379517 8.86764526 128.57061768 C11.55294001 125.89651569 14.24510655 123.22945276 16.9375 120.5625 C18.75957155 118.75045938 20.58119177 116.93796482 22.40234375 115.125 C26.86717252 110.68221964 31.33766283 106.24519835 35.8125 101.8125 C34.86550139 100.69973888 33.91736178 99.58794874 32.96875 98.4765625 C32.44087891 97.8573291 31.91300781 97.2380957 31.36914062 96.60009766 C28.45989498 93.25921049 25.42650758 90.29302767 21.9375 87.5625 C18.66198638 84.90532314 16.34371694 81.71549825 13.9140625 78.2890625 C11.53898993 75.49018516 8.9187632 73.25687381 6.13574219 70.87353516 C1.6013898 66.85094133 -2.61009902 62.49158381 -6.875 58.1875 C-7.79861328 57.259375 -8.72222656 56.33125 -9.67382812 55.375 C-11.39008788 53.65009098 -13.10530997 51.92414833 -14.8190918 50.19677734 C-19.58844603 45.37749242 -19.58844603 45.37749242 -24.46875 40.671875 C-30.81601803 34.63750047 -36.73076225 28.05434658 -37.3125 18.91015625 C-36.86958136 11.47742778 -34.20240298 5.79143856 -29.0859375 0.4375 C-20.31373989 -7.07121236 -9.13462406 -6.19650565 0 0 Z " fill="#24B6FC" transform="translate(422.1875,210.1875)"/>
<path d="M0 0 C6.07857628 0.01896592 12.03084615 0.41368193 18.06640625 1.1328125 C19.06503184 3.35790543 20.05826486 5.58510914 21.04296875 7.81640625 C21.79103481 9.50954813 22.55044233 11.19769187 23.31640625 12.8828125 C24.159659 15.41257075 24.21779572 17.48349678 24.06640625 20.1328125 C23.40640625 20.1328125 22.74640625 20.1328125 22.06640625 20.1328125 C22.64390625 20.7515625 23.22140625 21.3703125 23.81640625 22.0078125 C28.35541379 28.31198964 30.37308515 35.63381907 32.06640625 43.1328125 C32.44012211 44.54981846 32.81511357 45.96648865 33.19140625 47.3828125 C34.06640625 51.1328125 34.06640625 51.1328125 34.06640625 55.1328125 C34.72640625 55.1328125 35.38640625 55.1328125 36.06640625 55.1328125 C36.52080078 56.60427734 36.52080078 56.60427734 36.984375 58.10546875 C39.54028966 66.34965743 42.18032553 74.55658107 44.953125 82.73046875 C45.71821036 85.06867698 46.43450824 87.42323745 47.109375 89.7890625 C47.87017586 92.44720754 48.69723601 94.99450778 49.69140625 97.5703125 C50.14515625 98.7459375 50.59890625 99.9215625 51.06640625 101.1328125 C51.56140625 99.6478125 51.56140625 99.6478125 52.06640625 98.1328125 C53.27110193 101.54366018 54.45210717 104.96224983 55.62890625 108.3828125 C55.97115234 109.35089844 56.31339844 110.31898438 56.66601562 111.31640625 C57.14458008 112.71826172 57.14458008 112.71826172 57.6328125 114.1484375 C57.93131104 115.00727539 58.22980957 115.86611328 58.53735352 116.75097656 C59.10324909 119.29868178 58.91732901 120.69596704 58.06640625 123.1328125 C57.73640625 121.4828125 57.40640625 119.8328125 57.06640625 118.1328125 C56.40640625 118.1328125 55.74640625 118.1328125 55.06640625 118.1328125 C55.51693359 118.95845703 55.51693359 118.95845703 55.9765625 119.80078125 C57.15624905 122.32505677 57.8276197 124.74398713 58.50390625 127.4453125 C59.36303376 130.72918569 60.26043957 133.80448906 61.69140625 136.8828125 C63.16449291 140.3646537 63.54280086 143.40212411 64.06640625 147.1328125 C64.75377862 149.14025227 65.52141803 151.08891536 66.34765625 153.04296875 C67.26111939 155.69896211 67.62713476 158.36309264 68.06640625 161.1328125 C62.85198349 161.1822311 57.63769691 161.21854081 52.4230957 161.24267578 C50.64898301 161.25273661 48.8748869 161.26638672 47.10083008 161.28369141 C44.55155341 161.30793628 42.00249588 161.31929468 39.453125 161.328125 C38.65927902 161.33844757 37.86543304 161.34877014 37.04753113 161.35940552 C33.18417582 161.3601936 31.35801179 161.32721619 28.06640625 159.1328125 C28.06640625 159.7928125 28.06640625 160.4528125 28.06640625 161.1328125 C24.76640625 161.1328125 21.46640625 161.1328125 18.06640625 161.1328125 C17.40640625 156.5128125 16.74640625 151.8928125 16.06640625 147.1328125 C16.72640625 147.1328125 17.38640625 147.1328125 18.06640625 147.1328125 C18.39640625 144.8228125 18.72640625 142.5128125 19.06640625 140.1328125 C18.40640625 140.1328125 17.74640625 140.1328125 17.06640625 140.1328125 C17.06640625 141.1228125 17.06640625 142.1128125 17.06640625 143.1328125 C16.40640625 143.1328125 15.74640625 143.1328125 15.06640625 143.1328125 C12.85102163 137.71742788 12.85102163 137.71742788 13.94140625 134.7578125 C14.31265625 134.2215625 14.68390625 133.6853125 15.06640625 133.1328125 C14.07640625 132.8028125 13.08640625 132.4728125 12.06640625 132.1328125 C12.06640625 130.1528125 12.06640625 128.1728125 12.06640625 126.1328125 C8.5904271 123.94423304 6.98152158 124.33199345 3.06640625 125.1328125 C0.96317091 125.198786 -1.14195099 125.21843495 -3.24609375 125.1953125 C-4.31472656 125.18628906 -5.38335937 125.17726563 -6.484375 125.16796875 C-7.69673828 125.15056641 -7.69673828 125.15056641 -8.93359375 125.1328125 C-8.93359375 124.1428125 -8.93359375 123.1528125 -8.93359375 122.1328125 C-10.58359375 121.8028125 -12.23359375 121.4728125 -13.93359375 121.1328125 C-13.91296875 120.0603125 -13.89234375 118.9878125 -13.87109375 117.8828125 C-13.78842939 114.35274829 -13.78842939 114.35274829 -14.49609375 111.8828125 C-14.93359375 110.1328125 -14.93359375 110.1328125 -13.93359375 107.1328125 C-13.27359375 107.1328125 -12.61359375 107.1328125 -11.93359375 107.1328125 C-10.88088912 104.50174489 -10.88088912 104.50174489 -10.93359375 103.1328125 C-12.58359375 102.8028125 -14.23359375 102.4728125 -15.93359375 102.1328125 C-15.93359375 100.1528125 -15.93359375 98.1728125 -15.93359375 96.1328125 C-5.53859375 95.6378125 -5.53859375 95.6378125 5.06640625 95.1328125 C5.06640625 93.1528125 5.06640625 91.1728125 5.06640625 89.1328125 C4.40640625 89.7928125 3.74640625 90.4528125 3.06640625 91.1328125 C3.06640625 88.4928125 3.06640625 85.8528125 3.06640625 83.1328125 C2.07640625 83.6278125 2.07640625 83.6278125 1.06640625 84.1328125 C0.751875 82.91207031 0.43734375 81.69132812 0.11328125 80.43359375 C-0.31829227 78.77064679 -0.75063801 77.10790013 -1.18359375 75.4453125 C-1.40885742 74.57986816 -1.63412109 73.71442383 -1.86621094 72.82275391 C-3.17866658 67.83486713 -4.59654342 62.91483207 -6.18359375 58.0078125 C-7.77282027 53.0030306 -8.57870273 48.36745502 -8.93359375 43.1328125 C-8.27359375 43.7928125 -7.61359375 44.4528125 -6.93359375 45.1328125 C-6.60359375 44.4728125 -6.27359375 43.8128125 -5.93359375 43.1328125 C-6.59359375 42.1428125 -7.25359375 41.1528125 -7.93359375 40.1328125 C-8.92359375 40.1328125 -9.91359375 40.1328125 -10.93359375 40.1328125 C-11.42859375 37.6578125 -11.42859375 37.6578125 -11.93359375 35.1328125 C-10.94359375 34.6378125 -10.94359375 34.6378125 -9.93359375 34.1328125 C-9.27359375 35.1228125 -8.61359375 36.1128125 -7.93359375 37.1328125 C-7.60359375 36.4728125 -7.27359375 35.8128125 -6.93359375 35.1328125 C-8.89825788 34.06506026 -10.90214734 33.06727785 -12.93359375 32.1328125 C-13.92359375 32.6278125 -13.92359375 32.6278125 -14.93359375 33.1328125 C-15.26359375 32.4728125 -15.59359375 31.8128125 -15.93359375 31.1328125 C-17.39422225 33.78020166 -17.93359375 35.02729584 -17.93359375 38.1328125 C-18.59359375 38.1328125 -19.25359375 38.1328125 -19.93359375 38.1328125 C-19.87171875 39.2259375 -19.80984375 40.3190625 -19.74609375 41.4453125 C-19.74609375 46.84209701 -20.89080163 52.13932065 -22.93359375 57.1328125 C-23.92359375 57.7928125 -24.91359375 58.4528125 -25.93359375 59.1328125 C-27.05859375 57.4453125 -27.05859375 57.4453125 -27.93359375 55.1328125 C-27.05859375 52.3828125 -27.05859375 52.3828125 -25.93359375 50.1328125 C-25.27359375 50.1328125 -24.61359375 50.1328125 -23.93359375 50.1328125 C-24.0521875 49.18019531 -24.17078125 48.22757812 -24.29296875 47.24609375 C-24.421875 45.99183594 -24.55078125 44.73757813 -24.68359375 43.4453125 C-24.8228125 42.20394531 -24.96203125 40.96257812 -25.10546875 39.68359375 C-24.89934028 35.42516691 -23.68007174 34.25719735 -20.93359375 31.1328125 C-20.93359375 29.8128125 -20.93359375 28.4928125 -20.93359375 27.1328125 C-21.59359375 26.8028125 -22.25359375 26.4728125 -22.93359375 26.1328125 C-22.40765625 24.4621875 -22.40765625 24.4621875 -21.87109375 22.7578125 C-20.56120044 19.33016774 -20.56120044 19.33016774 -21.93359375 17.1328125 C-22.92359375 17.1328125 -23.91359375 17.1328125 -24.93359375 17.1328125 C-22.68359375 14.6328125 -22.68359375 14.6328125 -19.93359375 12.1328125 C-18.61359375 12.1328125 -17.29359375 12.1328125 -15.93359375 12.1328125 C-16.60227689 9.01949002 -16.60227689 9.01949002 -18.99609375 7.9453125 C-19.63546875 7.6771875 -20.27484375 7.4090625 -20.93359375 7.1328125 C-20.60359375 6.1428125 -20.27359375 5.1528125 -19.93359375 4.1328125 C-18.61055658 3.7607083 -17.2762144 3.42651077 -15.93359375 3.1328125 C-15.60359375 2.4728125 -15.27359375 1.8128125 -14.93359375 1.1328125 C-14.07894531 1.14441406 -13.22429687 1.15601563 -12.34375 1.16796875 C-11.23902344 1.17699219 -10.13429688 1.18601563 -8.99609375 1.1953125 C-7.34287109 1.21271484 -7.34287109 1.21271484 -5.65625 1.23046875 C-2.71059426 1.12481395 -2.66562964 0.18309375 0 0 Z " fill="#32A0FD" transform="translate(314.93359375,219.8671875)"/>
<path d="M0 0 C4.70828565 4.17467994 7.1925357 9.40784697 8.03125 15.56640625 C8.49437157 25.22070977 3.52130592 32.18979625 -2.69140625 39.16015625 C-4.2421875 40.55859375 -4.2421875 40.55859375 -6.2421875 40.55859375 C-6.2421875 41.21859375 -6.2421875 41.87859375 -6.2421875 42.55859375 C-7.52734375 43.78515625 -7.52734375 43.78515625 -9.3046875 45.18359375 C-12.0474725 47.44721751 -14.38833749 49.77709546 -16.6796875 52.49609375 C-19.03917107 55.27785626 -21.45735039 57.70301862 -24.2421875 60.05859375 C-27.00488591 62.39626164 -29.40451961 64.79589534 -31.7421875 67.55859375 C-34.66172861 71.00896052 -37.8293122 73.86308388 -41.2734375 76.77734375 C-43.91859878 79.17058491 -46.13963154 81.84496756 -48.4375 84.56640625 C-50.95622329 87.34681507 -53.757627 89.72005897 -56.640625 92.11328125 C-58.35806565 93.48668392 -58.35806565 93.48668392 -59.2421875 95.55859375 C-59.9021875 95.55859375 -60.5621875 95.55859375 -61.2421875 95.55859375 C-61.2421875 96.21859375 -61.2421875 96.87859375 -61.2421875 97.55859375 C-62.2321875 98.21859375 -63.2221875 98.87859375 -64.2421875 99.55859375 C-63.67566313 102.97238356 -62.77205017 104.2908437 -60.078125 106.41796875 C-53.95583422 111.53763538 -48.41481191 117.2367716 -42.78564453 122.88476562 C-40.85432794 124.82148931 -38.91766296 126.75275099 -36.98046875 128.68359375 C-35.74707467 129.91764784 -34.51399039 131.15201167 -33.28125 132.38671875 C-32.70420319 132.96174133 -32.12715637 133.53676392 -31.53262329 134.12921143 C-29.16291825 136.51288873 -27.11284233 138.7526115 -25.2421875 141.55859375 C-25.55498607 146.04725328 -27.69474132 149.76400146 -29.7421875 153.68359375 C-30.46403401 155.09543815 -31.18400338 156.50824347 -31.90234375 157.921875 C-32.28148926 158.66775879 -32.66063477 159.41364258 -33.05126953 160.18212891 C-35.15604697 164.38219114 -37.16937455 168.6252022 -39.1796875 172.87109375 C-39.56898438 173.68916504 -39.95828125 174.50723633 -40.359375 175.35009766 C-40.72160156 176.11628418 -41.08382812 176.8824707 -41.45703125 177.671875 C-41.77792725 178.35032471 -42.09882324 179.02877441 -42.42944336 179.7277832 C-43.35045986 181.72358905 -43.35045986 181.72358905 -44.2421875 184.55859375 C-48.7031178 183.15658708 -51.08896053 180.96075969 -54.2421875 177.55859375 C-54.8403125 177.00171875 -55.4384375 176.44484375 -56.0546875 175.87109375 C-57.2421875 174.55859375 -57.2421875 174.55859375 -57.2421875 172.55859375 C-57.9021875 172.55859375 -58.5621875 172.55859375 -59.2421875 172.55859375 C-59.2421875 171.89859375 -59.2421875 171.23859375 -59.2421875 170.55859375 C-59.7990625 170.33171875 -60.3559375 170.10484375 -60.9296875 169.87109375 C-66.06810667 166.95469368 -69.51275771 162.0339095 -73.2421875 157.55859375 C-76.25776203 154.37548731 -79.45981841 151.46055583 -82.7421875 148.55859375 C-89.43832571 142.633797 -89.43832571 142.633797 -92.2421875 139.55859375 C-92.2421875 138.89859375 -92.2421875 138.23859375 -92.2421875 137.55859375 C-93.5621875 136.89859375 -94.8821875 136.23859375 -96.2421875 135.55859375 C-96.2421875 134.89859375 -96.2421875 134.23859375 -96.2421875 133.55859375 C-97.0775 133.21828125 -97.0775 133.21828125 -97.9296875 132.87109375 C-100.90378338 131.18309339 -102.96227615 129.09182858 -105.2421875 126.55859375 C-105.2421875 125.89859375 -105.2421875 125.23859375 -105.2421875 124.55859375 C-106.1703125 124.18734375 -106.1703125 124.18734375 -107.1171875 123.80859375 C-109.62929046 122.33088613 -110.00326094 121.11904198 -111.2421875 118.55859375 C-112.2321875 118.22859375 -113.2221875 117.89859375 -114.2421875 117.55859375 C-118.2421875 112.18716518 -118.2421875 112.18716518 -118.2421875 109.55859375 C-117.2521875 109.55859375 -116.2621875 109.55859375 -115.2421875 109.55859375 C-113.55859375 111.45703125 -113.55859375 111.45703125 -111.8046875 113.93359375 C-109.48797445 117.1987598 -107.87418061 118.90838881 -104.2421875 120.55859375 C-103.57552083 121.89192708 -102.90885417 123.22526042 -102.2421875 124.55859375 C-101.6028125 124.86796875 -100.9634375 125.17734375 -100.3046875 125.49609375 C-98.2421875 126.55859375 -98.2421875 126.55859375 -96.9140625 128.8125 C-93.24959716 134.83146995 -87.48149102 139.86338722 -81.9921875 144.24609375 C-79.13213889 146.65113463 -76.88102246 149.20949676 -74.5390625 152.10546875 C-73.28438047 153.69146986 -73.28438047 153.69146986 -71.2421875 154.55859375 C-71.2421875 155.21859375 -71.2421875 155.87859375 -71.2421875 156.55859375 C-70.5821875 156.55859375 -69.9221875 156.55859375 -69.2421875 156.55859375 C-68.6028125 157.21859375 -67.9634375 157.87859375 -67.3046875 158.55859375 C-65.36206418 160.90666667 -65.36206418 160.90666667 -62.2421875 160.55859375 C-62.5721875 161.54859375 -62.9021875 162.53859375 -63.2421875 163.55859375 C-61.18985065 165.80639125 -60.23551489 166.56081795 -57.2421875 167.55859375 C-56.5615625 168.70328125 -56.5615625 168.70328125 -55.8671875 169.87109375 C-54.04163985 172.89026871 -52.01796282 174.42338197 -49.2421875 176.55859375 C-48.5821875 177.54859375 -47.9221875 178.53859375 -47.2421875 179.55859375 C-44.9321875 174.93859375 -42.6221875 170.31859375 -40.2421875 165.55859375 C-39.5821875 165.55859375 -38.9221875 165.55859375 -38.2421875 165.55859375 C-38.1596875 164.88957031 -38.0771875 164.22054687 -37.9921875 163.53125 C-37.00942564 159.63603241 -35.20209523 156.48075487 -33.2421875 152.99609375 C-30.15441513 147.51799796 -30.15441513 147.51799796 -28.2421875 141.55859375 C-29.2321875 141.22859375 -30.2221875 140.89859375 -31.2421875 140.55859375 C-35.2421875 136.10145089 -35.2421875 136.10145089 -35.2421875 133.55859375 C-35.8196875 133.29691406 -36.3971875 133.03523437 -36.9921875 132.765625 C-42.80903953 129.64512626 -47.20384871 124.67382289 -51.2421875 119.55859375 C-52.2321875 118.73359375 -53.2221875 117.90859375 -54.2421875 117.05859375 C-57.02413399 114.74030501 -59.0313652 112.40107957 -61.2421875 109.55859375 C-62.2321875 109.06359375 -62.2321875 109.06359375 -63.2421875 108.55859375 C-63.2421875 107.89859375 -63.2421875 107.23859375 -63.2421875 106.55859375 C-64.2321875 106.55859375 -65.2221875 106.55859375 -66.2421875 106.55859375 C-68.08971888 103.44088454 -68.78501438 101.17743964 -68.2421875 97.55859375 C-65.94099113 94.68209828 -63.6142924 93.00378156 -60.2421875 91.55859375 C-60.2421875 90.89859375 -60.2421875 90.23859375 -60.2421875 89.55859375 C-58.59765625 87.9375 -58.59765625 87.9375 -56.4296875 86.12109375 C-53.41755485 83.58520043 -53.41755485 83.58520043 -50.60546875 80.8359375 C-49.2421875 79.55859375 -49.2421875 79.55859375 -47.2421875 79.55859375 C-46.9946875 78.93984375 -46.7471875 78.32109375 -46.4921875 77.68359375 C-45.03590111 75.20790688 -43.86406244 74.60734373 -41.2421875 73.55859375 C-41.2421875 72.89859375 -41.2421875 72.23859375 -41.2421875 71.55859375 C-39.7421875 69.93359375 -39.7421875 69.93359375 -38.2421875 68.55859375 C-38.9021875 68.55859375 -39.5621875 68.55859375 -40.2421875 68.55859375 C-40.2421875 69.21859375 -40.2421875 69.87859375 -40.2421875 70.55859375 C-41.7271875 70.06359375 -41.7271875 70.06359375 -43.2421875 69.55859375 C-43.2421875 68.89859375 -43.2421875 68.23859375 -43.2421875 67.55859375 C-45.2221875 66.56859375 -45.2221875 66.56859375 -47.2421875 65.55859375 C-47.2421875 64.89859375 -47.2421875 64.23859375 -47.2421875 63.55859375 C-46.5821875 63.55859375 -45.9221875 63.55859375 -45.2421875 63.55859375 C-44.9121875 62.89859375 -44.5821875 62.23859375 -44.2421875 61.55859375 C-44.2421875 62.21859375 -44.2421875 62.87859375 -44.2421875 63.55859375 C-42.7571875 64.05359375 -42.7571875 64.05359375 -41.2421875 64.55859375 C-41.2421875 65.21859375 -41.2421875 65.87859375 -41.2421875 66.55859375 C-39.18948287 64.71670763 -39.18948287 64.71670763 -38.2421875 62.55859375 C-38.4071875 61.93984375 -38.5721875 61.32109375 -38.7421875 60.68359375 C-39.2421875 58.55859375 -39.2421875 58.55859375 -38.71484375 56.75390625 C-38.12137784 53.99747779 -38.5666645 52.04916718 -39.1796875 49.30859375 C-39.37433594 48.4165625 -39.56898438 47.52453125 -39.76953125 46.60546875 C-39.92550781 45.93 -40.08148438 45.25453125 -40.2421875 44.55859375 C-39.2521875 44.55859375 -38.2621875 44.55859375 -37.2421875 44.55859375 C-37.2834375 43.81609375 -37.3246875 43.07359375 -37.3671875 42.30859375 C-37.23603649 39.4232715 -36.85356843 37.93326038 -35.2421875 35.55859375 C-34.2521875 35.22859375 -33.2621875 34.89859375 -32.2421875 34.55859375 C-32.2421875 33.89859375 -32.2421875 33.23859375 -32.2421875 32.55859375 C-33.7271875 32.06359375 -33.7271875 32.06359375 -35.2421875 31.55859375 C-34.9121875 30.56859375 -34.5821875 29.57859375 -34.2421875 28.55859375 C-34.5721875 27.56859375 -34.9021875 26.57859375 -35.2421875 25.55859375 C-34.5821875 25.55859375 -33.9221875 25.55859375 -33.2421875 25.55859375 C-33.2421875 24.89859375 -33.2421875 24.23859375 -33.2421875 23.55859375 C-34.5621875 23.88859375 -35.8821875 24.21859375 -37.2421875 24.55859375 C-37.45875 22.91890625 -37.45875 22.91890625 -37.6796875 21.24609375 C-38.12506854 17.62736388 -38.12506854 17.62736388 -39.2421875 14.55859375 C-39.9021875 14.55859375 -40.5621875 14.55859375 -41.2421875 14.55859375 C-41.4690625 15.11546875 -41.6959375 15.67234375 -41.9296875 16.24609375 C-43.60937585 19.20554465 -45.78352035 21.21986159 -48.2421875 23.55859375 C-48.7990625 24.15671875 -49.3559375 24.75484375 -49.9296875 25.37109375 C-51.2421875 26.55859375 -51.2421875 26.55859375 -53.2421875 26.55859375 C-53.2421875 27.21859375 -53.2421875 27.87859375 -53.2421875 28.55859375 C-53.9021875 28.55859375 -54.5621875 28.55859375 -55.2421875 28.55859375 C-55.4690625 29.11546875 -55.6959375 29.67234375 -55.9296875 30.24609375 C-57.2384128 32.55194309 -58.72051339 34.12699128 -60.62890625 35.9453125 C-62.72657435 38.0429806 -64.65743693 40.26925622 -66.6171875 42.49609375 C-69.78212244 46.04481648 -73.00008036 49.18914407 -76.68359375 52.18359375 C-78.30356379 53.61274025 -79.59111456 55.11605168 -80.9296875 56.80859375 C-83.09640641 59.38523246 -84.28533943 60.23311013 -87.2421875 61.55859375 C-87.9021875 62.54859375 -88.5621875 63.53859375 -89.2421875 64.55859375 C-90.0259375 64.99171875 -90.8096875 65.42484375 -91.6171875 65.87109375 C-94.86743309 67.96053734 -96.17020137 70.32111543 -98.2421875 73.55859375 C-99.8876253 75.24622226 -101.55507327 76.91262865 -103.2421875 78.55859375 C-104.0671875 79.54859375 -104.8921875 80.53859375 -105.7421875 81.55859375 C-108.2421875 84.55859375 -108.2421875 84.55859375 -110.8046875 86.99609375 C-116.12293275 92.58706952 -117.9604226 98.12098424 -119.2421875 105.55859375 C-119.5721875 105.55859375 -119.9021875 105.55859375 -120.2421875 105.55859375 C-120.9932021 97.71466353 -119.81005106 92.04107247 -115.2421875 85.55859375 C-111.8723846 81.59811437 -108.2089659 77.9185381 -104.2421875 74.55859375 C-103.5821875 74.55859375 -102.9221875 74.55859375 -102.2421875 74.55859375 C-102.02175781 74.01074219 -101.80132812 73.46289062 -101.57421875 72.8984375 C-99.82348621 69.82310381 -97.45271684 67.55700654 -94.9296875 65.12109375 C-94.45595703 64.65638672 -93.98222656 64.19167969 -93.49414062 63.71289062 C-92.07952364 62.32536617 -90.66087238 60.94195868 -89.2421875 59.55859375 C-87.57298983 57.89446193 -85.90617249 56.22793779 -84.2421875 54.55859375 C-75.2421875 45.55859375 -75.2421875 45.55859375 -72.98120117 43.30200195 C-70.56761877 40.88454715 -68.16326661 38.45853659 -65.76289368 36.02799988 C-63.46774871 33.70602119 -61.16720438 31.38942216 -58.86645508 29.07299805 C-57.6514698 27.84786197 -56.43827185 26.62095096 -55.22680664 25.39233398 C-53.47225457 23.61365298 -51.71143528 21.84139604 -49.94921875 20.0703125 C-49.40650833 19.51727951 -48.86379791 18.96424652 -48.30464172 18.39445496 C-46.98791145 17.07733022 -45.6193575 15.81238757 -44.2421875 14.55859375 C-43.5821875 14.55859375 -42.9221875 14.55859375 -42.2421875 14.55859375 C-42.0153125 14.02234375 -41.7884375 13.48609375 -41.5546875 12.93359375 C-37.02778288 4.74205205 -29.37731939 -1.04372929 -20.7421875 -4.50390625 C-13.37028938 -6.59716127 -6.17559046 -4.2129028 0 0 Z M-43.2421875 51.55859375 C-41.9221875 52.21859375 -40.6021875 52.87859375 -39.2421875 53.55859375 C-39.2421875 54.54859375 -39.2421875 55.53859375 -39.2421875 56.55859375 C-39.9021875 56.22859375 -40.5621875 55.89859375 -41.2421875 55.55859375 C-41.5721875 56.54859375 -41.9021875 57.53859375 -42.2421875 58.55859375 C-42.9021875 58.55859375 -43.5621875 58.55859375 -44.2421875 58.55859375 C-43.9121875 56.24859375 -43.5821875 53.93859375 -43.2421875 51.55859375 Z " fill="#3E83FC" transform="translate(207.2421875,210.44140625)"/>
<path d="M0 0 C4.70828565 4.17467994 7.1925357 9.40784697 8.03125 15.56640625 C8.49437157 25.22070977 3.52130592 32.18979625 -2.69140625 39.16015625 C-4.2421875 40.55859375 -4.2421875 40.55859375 -6.2421875 40.55859375 C-6.2421875 41.21859375 -6.2421875 41.87859375 -6.2421875 42.55859375 C-7.52734375 43.78515625 -7.52734375 43.78515625 -9.3046875 45.18359375 C-12.0474725 47.44721751 -14.38833749 49.77709546 -16.6796875 52.49609375 C-19.03917107 55.27785626 -21.45735039 57.70301862 -24.2421875 60.05859375 C-27.00488591 62.39626164 -29.40451961 64.79589534 -31.7421875 67.55859375 C-34.66172861 71.00896052 -37.8293122 73.86308388 -41.2734375 76.77734375 C-43.91859878 79.17058491 -46.13963154 81.84496756 -48.4375 84.56640625 C-50.95622329 87.34681507 -53.757627 89.72005897 -56.640625 92.11328125 C-58.35806565 93.48668392 -58.35806565 93.48668392 -59.2421875 95.55859375 C-59.9021875 95.55859375 -60.5621875 95.55859375 -61.2421875 95.55859375 C-61.2421875 96.21859375 -61.2421875 96.87859375 -61.2421875 97.55859375 C-62.2321875 98.21859375 -63.2221875 98.87859375 -64.2421875 99.55859375 C-63.67566313 102.97238356 -62.77205017 104.2908437 -60.078125 106.41796875 C-53.95583422 111.53763538 -48.41481191 117.2367716 -42.78564453 122.88476562 C-40.85432794 124.82148931 -38.91766296 126.75275099 -36.98046875 128.68359375 C-35.74707467 129.91764784 -34.51399039 131.15201167 -33.28125 132.38671875 C-32.70420319 132.96174133 -32.12715637 133.53676392 -31.53262329 134.12921143 C-29.16291825 136.51288873 -27.11284233 138.7526115 -25.2421875 141.55859375 C-25.55498607 146.04725328 -27.69474132 149.76400146 -29.7421875 153.68359375 C-30.46403401 155.09543815 -31.18400338 156.50824347 -31.90234375 157.921875 C-32.28148926 158.66775879 -32.66063477 159.41364258 -33.05126953 160.18212891 C-35.15604697 164.38219114 -37.16937455 168.6252022 -39.1796875 172.87109375 C-39.56898438 173.68916504 -39.95828125 174.50723633 -40.359375 175.35009766 C-40.72160156 176.11628418 -41.08382812 176.8824707 -41.45703125 177.671875 C-41.77792725 178.35032471 -42.09882324 179.02877441 -42.42944336 179.7277832 C-43.35045986 181.72358905 -43.35045986 181.72358905 -44.2421875 184.55859375 C-48.7031178 183.15658708 -51.08896053 180.96075969 -54.2421875 177.55859375 C-54.8403125 177.00171875 -55.4384375 176.44484375 -56.0546875 175.87109375 C-57.2421875 174.55859375 -57.2421875 174.55859375 -57.2421875 172.55859375 C-57.9021875 172.55859375 -58.5621875 172.55859375 -59.2421875 172.55859375 C-59.2421875 171.89859375 -59.2421875 171.23859375 -59.2421875 170.55859375 C-59.7990625 170.33171875 -60.3559375 170.10484375 -60.9296875 169.87109375 C-66.06810667 166.95469368 -69.51275771 162.0339095 -73.2421875 157.55859375 C-76.25776203 154.37548731 -79.45981841 151.46055583 -82.7421875 148.55859375 C-89.43832571 142.633797 -89.43832571 142.633797 -92.2421875 139.55859375 C-92.2421875 138.89859375 -92.2421875 138.23859375 -92.2421875 137.55859375 C-93.5621875 136.89859375 -94.8821875 136.23859375 -96.2421875 135.55859375 C-96.2421875 134.89859375 -96.2421875 134.23859375 -96.2421875 133.55859375 C-97.0775 133.21828125 -97.0775 133.21828125 -97.9296875 132.87109375 C-100.90378338 131.18309339 -102.96227615 129.09182858 -105.2421875 126.55859375 C-105.2421875 125.89859375 -105.2421875 125.23859375 -105.2421875 124.55859375 C-106.1703125 124.18734375 -106.1703125 124.18734375 -107.1171875 123.80859375 C-109.62929046 122.33088613 -110.00326094 121.11904198 -111.2421875 118.55859375 C-112.2321875 118.22859375 -113.2221875 117.89859375 -114.2421875 117.55859375 C-118.2421875 112.18716518 -118.2421875 112.18716518 -118.2421875 109.55859375 C-117.2521875 109.55859375 -116.2621875 109.55859375 -115.2421875 109.55859375 C-113.55859375 111.45703125 -113.55859375 111.45703125 -111.8046875 113.93359375 C-109.48797445 117.1987598 -107.87418061 118.90838881 -104.2421875 120.55859375 C-103.57552083 121.89192708 -102.90885417 123.22526042 -102.2421875 124.55859375 C-101.6028125 124.86796875 -100.9634375 125.17734375 -100.3046875 125.49609375 C-98.2421875 126.55859375 -98.2421875 126.55859375 -96.9140625 128.8125 C-93.24959716 134.83146995 -87.48149102 139.86338722 -81.9921875 144.24609375 C-79.13213889 146.65113463 -76.88102246 149.20949676 -74.5390625 152.10546875 C-73.28438047 153.69146986 -73.28438047 153.69146986 -71.2421875 154.55859375 C-71.2421875 155.21859375 -71.2421875 155.87859375 -71.2421875 156.55859375 C-70.5821875 156.55859375 -69.9221875 156.55859375 -69.2421875 156.55859375 C-68.6028125 157.21859375 -67.9634375 157.87859375 -67.3046875 158.55859375 C-65.36206418 160.90666667 -65.36206418 160.90666667 -62.2421875 160.55859375 C-62.5721875 161.54859375 -62.9021875 162.53859375 -63.2421875 163.55859375 C-61.18985065 165.80639125 -60.23551489 166.56081795 -57.2421875 167.55859375 C-56.5615625 168.70328125 -56.5615625 168.70328125 -55.8671875 169.87109375 C-54.04163985 172.89026871 -52.01796282 174.42338197 -49.2421875 176.55859375 C-48.5821875 177.54859375 -47.9221875 178.53859375 -47.2421875 179.55859375 C-44.9321875 174.93859375 -42.6221875 170.31859375 -40.2421875 165.55859375 C-39.5821875 165.55859375 -38.9221875 165.55859375 -38.2421875 165.55859375 C-38.1596875 164.88957031 -38.0771875 164.22054687 -37.9921875 163.53125 C-37.00942564 159.63603241 -35.20209523 156.48075487 -33.2421875 152.99609375 C-30.15441513 147.51799796 -30.15441513 147.51799796 -28.2421875 141.55859375 C-29.2321875 141.22859375 -30.2221875 140.89859375 -31.2421875 140.55859375 C-35.2421875 136.10145089 -35.2421875 136.10145089 -35.2421875 133.55859375 C-35.8196875 133.29691406 -36.3971875 133.03523437 -36.9921875 132.765625 C-42.80903953 129.64512626 -47.20384871 124.67382289 -51.2421875 119.55859375 C-52.2321875 118.73359375 -53.2221875 117.90859375 -54.2421875 117.05859375 C-57.02413399 114.74030501 -59.0313652 112.40107957 -61.2421875 109.55859375 C-62.2321875 109.06359375 -62.2321875 109.06359375 -63.2421875 108.55859375 C-63.2421875 107.89859375 -63.2421875 107.23859375 -63.2421875 106.55859375 C-64.2321875 106.55859375 -65.2221875 106.55859375 -66.2421875 106.55859375 C-68.08971888 103.44088454 -68.78501438 101.17743964 -68.2421875 97.55859375 C-65.94099113 94.68209828 -63.6142924 93.00378156 -60.2421875 91.55859375 C-60.2421875 90.89859375 -60.2421875 90.23859375 -60.2421875 89.55859375 C-58.59765625 87.9375 -58.59765625 87.9375 -56.4296875 86.12109375 C-53.41755485 83.58520043 -53.41755485 83.58520043 -50.60546875 80.8359375 C-49.2421875 79.55859375 -49.2421875 79.55859375 -47.2421875 79.55859375 C-46.9946875 78.93984375 -46.7471875 78.32109375 -46.4921875 77.68359375 C-45.03590111 75.20790688 -43.86406244 74.60734373 -41.2421875 73.55859375 C-41.2421875 72.89859375 -41.2421875 72.23859375 -41.2421875 71.55859375 C-39.3671875 69.43359375 -39.3671875 69.43359375 -37.2421875 67.55859375 C-36.5821875 67.55859375 -35.9221875 67.55859375 -35.2421875 67.55859375 C-34.7471875 66.07359375 -34.7471875 66.07359375 -34.2421875 64.55859375 C-33.5821875 64.55859375 -32.9221875 64.55859375 -32.2421875 64.55859375 C-32.0153125 64.00171875 -31.7884375 63.44484375 -31.5546875 62.87109375 C-29.86668714 59.89699787 -27.77542233 57.8385051 -25.2421875 55.55859375 C-24.5821875 55.55859375 -23.9221875 55.55859375 -23.2421875 55.55859375 C-23.2421875 54.89859375 -23.2421875 54.23859375 -23.2421875 53.55859375 C-21.59765625 52.0078125 -21.59765625 52.0078125 -19.4296875 50.24609375 C-16.28568721 47.5845062 -14.14492224 45.25835574 -12.2421875 41.55859375 C-10.2421875 39.55859375 -10.2421875 39.55859375 -8.4296875 38.74609375 C-4.44813818 36.58468126 -1.67519894 33.85762807 -0.2421875 29.55859375 C0.4178125 29.55859375 1.0778125 29.55859375 1.7578125 29.55859375 C1.7165625 28.60984375 1.6753125 27.66109375 1.6328125 26.68359375 C1.7578125 23.55859375 1.7578125 23.55859375 3.7578125 21.55859375 C4.00096906 18.88909966 4.00096906 18.88909966 3.8828125 15.93359375 C3.86476563 14.93070313 3.84671875 13.9278125 3.828125 12.89453125 C3.80492187 12.12367188 3.78171875 11.3528125 3.7578125 10.55859375 C3.0978125 10.55859375 2.4378125 10.55859375 1.7578125 10.55859375 C1.4690625 9.91921875 1.1803125 9.27984375 0.8828125 8.62109375 C-0.07042201 6.40653296 -0.07042201 6.40653296 -2.2421875 5.55859375 C-2.7371875 5.06359375 -2.7371875 5.06359375 -3.2421875 4.55859375 C-4.2321875 4.06359375 -4.2321875 4.06359375 -5.2421875 3.55859375 C-5.7371875 2.07359375 -5.7371875 2.07359375 -6.2421875 0.55859375 C-11.59984704 -1.67376439 -16.63452587 -2.11891187 -22.2421875 -0.44140625 C-25.79585409 1.61408724 -29.37205727 3.81833328 -31.2421875 7.55859375 C-32.4178125 7.96078125 -32.4178125 7.96078125 -33.6171875 8.37109375 C-36.87333601 9.84411331 -37.55091039 11.49818755 -39.2421875 14.55859375 C-39.9021875 14.55859375 -40.5621875 14.55859375 -41.2421875 14.55859375 C-41.4690625 15.11546875 -41.6959375 15.67234375 -41.9296875 16.24609375 C-43.60937585 19.20554465 -45.78352035 21.21986159 -48.2421875 23.55859375 C-48.7990625 24.15671875 -49.3559375 24.75484375 -49.9296875 25.37109375 C-51.2421875 26.55859375 -51.2421875 26.55859375 -53.2421875 26.55859375 C-53.2421875 27.21859375 -53.2421875 27.87859375 -53.2421875 28.55859375 C-53.9021875 28.55859375 -54.5621875 28.55859375 -55.2421875 28.55859375 C-55.4690625 29.11546875 -55.6959375 29.67234375 -55.9296875 30.24609375 C-57.2384128 32.55194309 -58.72051339 34.12699128 -60.62890625 35.9453125 C-62.72657435 38.0429806 -64.65743693 40.26925622 -66.6171875 42.49609375 C-69.78212244 46.04481648 -73.00008036 49.18914407 -76.68359375 52.18359375 C-78.30356379 53.61274025 -79.59111456 55.11605168 -80.9296875 56.80859375 C-83.09640641 59.38523246 -84.28533943 60.23311013 -87.2421875 61.55859375 C-87.9021875 62.54859375 -88.5621875 63.53859375 -89.2421875 64.55859375 C-90.0259375 64.99171875 -90.8096875 65.42484375 -91.6171875 65.87109375 C-94.86743309 67.96053734 -96.17020137 70.32111543 -98.2421875 73.55859375 C-99.8876253 75.24622226 -101.55507327 76.91262865 -103.2421875 78.55859375 C-104.0671875 79.54859375 -104.8921875 80.53859375 -105.7421875 81.55859375 C-108.2421875 84.55859375 -108.2421875 84.55859375 -110.8046875 86.99609375 C-116.12293275 92.58706952 -117.9604226 98.12098424 -119.2421875 105.55859375 C-119.5721875 105.55859375 -119.9021875 105.55859375 -120.2421875 105.55859375 C-120.9932021 97.71466353 -119.81005106 92.04107247 -115.2421875 85.55859375 C-111.8723846 81.59811437 -108.2089659 77.9185381 -104.2421875 74.55859375 C-103.5821875 74.55859375 -102.9221875 74.55859375 -102.2421875 74.55859375 C-102.02175781 74.01074219 -101.80132812 73.46289062 -101.57421875 72.8984375 C-99.82348621 69.82310381 -97.45271684 67.55700654 -94.9296875 65.12109375 C-94.45595703 64.65638672 -93.98222656 64.19167969 -93.49414062 63.71289062 C-92.07952364 62.32536617 -90.66087238 60.94195868 -89.2421875 59.55859375 C-87.57298983 57.89446193 -85.90617249 56.22793779 -84.2421875 54.55859375 C-75.2421875 45.55859375 -75.2421875 45.55859375 -72.98120117 43.30200195 C-70.56761877 40.88454715 -68.16326661 38.45853659 -65.76289368 36.02799988 C-63.46774871 33.70602119 -61.16720438 31.38942216 -58.86645508 29.07299805 C-57.6514698 27.84786197 -56.43827185 26.62095096 -55.22680664 25.39233398 C-53.47225457 23.61365298 -51.71143528 21.84139604 -49.94921875 20.0703125 C-49.40650833 19.51727951 -48.86379791 18.96424652 -48.30464172 18.39445496 C-46.98791145 17.07733022 -45.6193575 15.81238757 -44.2421875 14.55859375 C-43.5821875 14.55859375 -42.9221875 14.55859375 -42.2421875 14.55859375 C-42.0153125 14.02234375 -41.7884375 13.48609375 -41.5546875 12.93359375 C-37.02778288 4.74205205 -29.37731939 -1.04372929 -20.7421875 -4.50390625 C-13.37028938 -6.59716127 -6.17559046 -4.2129028 0 0 Z " fill="#3F85EC" transform="translate(207.2421875,210.44140625)"/>
<path d="M0 0 C1.27230469 0.23976562 1.27230469 0.23976562 2.5703125 0.484375 C5.07765038 1.31732114 6.19330698 2.24955471 7.875 4.25 C1.125 3.375 1.125 3.375 -1.125 2.25 C-7.24615298 1.33182705 -12.07509808 4.07428848 -17.125 7.25 C-21.59096845 11.82761766 -23.41313989 15.74265091 -23.4375 22.125 C-23.45425781 23.13304687 -23.47101563 24.14109375 -23.48828125 25.1796875 C-22.30696664 35.16370129 -13.20340936 42.71457522 -5.8125 48.75390625 C-3.25170366 51.0242419 -1.094049 53.60398791 1.1015625 56.22265625 C3.2502345 58.6789575 5.56224975 60.95025322 7.875 63.25 C9.21145005 64.58575038 10.54751394 65.92188717 11.88330078 67.25830078 C12.63402863 68.00902863 13.38475647 68.75975647 14.15823364 69.53323364 C25.7304891 81.1054891 37.30274455 92.67774455 48.875 104.25 C47.46056941 108.78935934 44.94709682 111.5745696 41.60546875 114.8125 C41.08745193 115.32627197 40.56943512 115.84004395 40.03572083 116.36938477 C38.38492452 118.00347219 36.72401625 119.62682087 35.0625 121.25 C33.95699074 122.34044518 32.85216588 123.43158466 31.74804688 124.5234375 C29.70758089 126.53949897 27.66315031 128.55134736 25.61401367 130.55859375 C20.98051643 135.11155512 16.58408587 139.68765974 12.42578125 144.67578125 C11.91402344 145.19527344 11.40226562 145.71476563 10.875 146.25 C10.215 146.25 9.555 146.25 8.875 146.25 C11.53290509 153.96585881 15.30140836 161.04926825 19.16943359 168.20825195 C21.99226266 173.45771401 24.53363564 178.76855865 26.875 184.25 C30.6392343 182.99525523 32.14491663 181.11175621 34.875 178.25 C35.69538254 177.42517624 36.51576508 176.60035248 37.36100769 175.75053406 C38.66767143 174.4348217 38.66767143 174.4348217 40.00073242 173.0925293 C44.90941423 168.15134607 49.82303856 163.21511029 54.739604 158.28177166 C57.70787201 155.30301159 60.67421695 152.32238462 63.63647461 149.33764648 C66.51024793 146.4422135 69.38881739 143.55163113 72.27083778 140.66440773 C73.36785301 139.56369078 74.4631034 138.46121206 75.55657005 137.35696983 C77.07894861 135.82016363 78.6073791 134.28963904 80.13745117 132.76049805 C81.00617355 131.88733444 81.87489594 131.01417084 82.76994324 130.11454773 C84.875 128.25 84.875 128.25 86.875 128.25 C87.13410156 127.66992188 87.39320313 127.08984375 87.66015625 126.4921875 C88.96385441 124.08600505 90.44797556 122.37184553 92.3125 120.375 C97.15858015 114.89287183 99.29556794 110.79028276 99.046875 103.44140625 C98.8296256 100.67147634 98.43320362 97.97124263 97.875 95.25 C99.875 96.25 99.875 96.25 101.0625 99.25 C102.94147597 106.6749857 101.09708318 112.49181917 97.37118912 118.95948601 C95.01537832 122.56599372 92.1736203 125.50135007 89.11279297 128.51391602 C88.45363892 129.17847305 87.79448486 129.84303009 87.11535645 130.52772522 C84.95904313 132.6964306 82.78871087 134.8504394 80.6171875 137.00390625 C79.10628618 138.51496268 77.59605265 140.0266871 76.0864563 141.53904724 C72.93389493 144.69298798 69.77451586 147.8398823 66.60986328 150.98168945 C62.54795415 155.01508141 58.50194779 159.06400029 54.46063042 163.11801243 C51.3505212 166.23506032 48.23311248 169.34472119 45.11331558 172.45207024 C43.61766872 173.94319441 42.12411776 175.43642385 40.63268661 176.9317646 C38.55517995 179.01216899 36.4682784 181.08265072 34.37841797 183.15063477 C33.7612088 183.77234558 33.14399963 184.3940564 32.50808716 185.03460693 C28.21802456 189.25 28.21802456 189.25 24.875 189.25 C24.71427002 188.70762695 24.55354004 188.16525391 24.38793945 187.60644531 C22.53619678 181.6823923 20.04256678 176.43070571 17.0625 171 C16.17371746 169.33834181 15.2870039 167.67557534 14.40234375 166.01171875 C13.9729248 165.20524902 13.54350586 164.3987793 13.10107422 163.56787109 C11.39226554 160.33739926 9.73130284 157.09559009 8.125 153.8125 C7.39023437 152.32943359 7.39023437 152.32943359 6.640625 150.81640625 C5.875 148.25 5.875 148.25 6.59494019 146.33599854 C8.03656613 143.98671019 9.63442276 142.25057341 11.59033203 140.30761719 C12.7312883 139.16688751 12.7312883 139.16688751 13.89529419 138.00311279 C14.71617523 137.19255432 15.53705627 136.38199585 16.3828125 135.546875 C17.22343231 134.70908508 18.06405212 133.87129517 18.93014526 133.00811768 C21.61544001 130.33401569 24.30760655 127.66695276 27 125 C28.82207155 123.18795938 30.64369177 121.37546482 32.46484375 119.5625 C36.92967252 115.11971964 41.40016283 110.68269835 45.875 106.25 C44.92800139 105.13723888 43.97986178 104.02544874 43.03125 102.9140625 C42.50337891 102.2948291 41.97550781 101.6755957 41.43164062 101.03759766 C38.52239498 97.69671049 35.48900758 94.73052767 32 92 C28.72448638 89.34282314 26.40621694 86.15299825 23.9765625 82.7265625 C21.60148993 79.92768516 18.9812632 77.69437381 16.19824219 75.31103516 C11.6638898 71.28844133 7.45240098 66.92908381 3.1875 62.625 C2.26388672 61.696875 1.34027344 60.76875 0.38867188 59.8125 C-1.32758788 58.08759098 -3.04280997 56.36164833 -4.7565918 54.63427734 C-9.52594603 49.81499242 -9.52594603 49.81499242 -14.40625 45.109375 C-20.75351803 39.07500047 -26.66826225 32.49184658 -27.25 23.34765625 C-26.80708136 15.91492778 -24.13990298 10.22893856 -19.0234375 4.875 C-13.64622188 0.27228046 -6.89254732 -1.39115634 0 0 Z " fill="#36A4ED" transform="translate(412.125,205.75)"/>
<path d="M0 0 C22.77 0 45.54 0 69 0 C73.40204309 13.20612928 77.64647285 26.03735621 81.3671875 39.375 C83.61551221 47.27127637 86.20155831 55.06148718 88.73828125 62.86865234 C91.30065565 70.77112869 93.73976152 78.69364776 96.02734375 86.6796875 C96.66010364 88.83971121 97.34534115 90.98527439 98.08984375 93.109375 C98.97763734 95.92897697 99.38672702 98.43629992 99.625 101.375 C99.69976562 102.24898438 99.77453125 103.12296875 99.8515625 104.0234375 C99.90054688 104.67570312 99.94953125 105.32796875 100 106 C97.14911912 102.42865195 96.16496743 99.44143834 95 95 C94.55220067 93.62153339 94.09313744 92.24669303 93.625 90.875 C92.34173936 87.08354809 91.16032503 83.26834409 90 79.4375 C88.89300621 75.78993427 87.73877004 72.22186673 86.3125 68.6875 C84.88139654 64.66678075 84.3779023 61.23250576 84 57 C83.34 57 82.68 57 82 57 C81.84144531 56.319375 81.68289063 55.63875 81.51953125 54.9375 C80.0155082 48.68874123 78.32050985 42.51860658 76.4375 36.375 C76.22778564 35.67632812 76.01807129 34.97765625 75.80200195 34.2578125 C74.56167828 30.25599814 74.56167828 30.25599814 72 27 C70 24 70 24 70 22 C70.66 22 71.32 22 72 22 C70.23536928 15.89262558 68.30442525 9.92566493 66 4 C58.55657586 3.09764719 51.21242447 2.83975589 43.71875 2.83203125 C42.01579773 2.82703865 42.01579773 2.82703865 40.27844238 2.82194519 C37.89852297 2.8169141 35.5185966 2.81453567 33.13867188 2.81469727 C29.48295807 2.81248971 25.82753638 2.79423676 22.171875 2.77539062 C19.8541677 2.77246019 17.53645896 2.77047305 15.21875 2.76953125 C14.12300659 2.76234573 13.02726318 2.75516022 11.89831543 2.74775696 C10.88966431 2.75083359 9.88101318 2.75391022 8.84179688 2.75708008 C7.50804016 2.75494255 7.50804016 2.75494255 6.14733887 2.75276184 C3.78642753 2.7991817 3.78642753 2.7991817 2 5 C2.66 5.66 3.32 6.32 4 7 C3.21625 7.721875 2.4325 8.44375 1.625 9.1875 C-2.70834346 13.83036799 -3.2923115 18.42711263 -4.42578125 24.484375 C-5.20762835 27.9096099 -6.48691308 30.83627281 -8 34 C-8.66 33.67 -9.32 33.34 -10 33 C-9 25 -9 25 0 0 Z " fill="#3A97F0" transform="translate(267,218)"/>
<path d="M0 0 C0.66 0 1.32 0 2 0 C5.95730379 9.21871905 9.28583151 18.58187327 12.375 28.125 C12.73271484 29.21546631 13.09042969 30.30593262 13.45898438 31.42944336 C13.95495117 32.98417358 13.95495117 32.98417358 14.4609375 34.5703125 C14.90638916 35.95887451 14.90638916 35.95887451 15.36083984 37.37548828 C16.00724128 40.02973406 16.0464818 42.28193299 16 45 C8.81037796 45.19364012 1.62048712 45.371038 -5.56982422 45.53710938 C-8.0162057 45.5955343 -10.4625011 45.6576872 -12.90869141 45.72363281 C-16.42334317 45.81773708 -19.93808572 45.89846239 -23.453125 45.9765625 C-24.5480426 46.00875885 -25.64296021 46.0409552 -26.77105713 46.0741272 C-27.79181335 46.09429901 -28.81256958 46.11447083 -29.86425781 46.13525391 C-31.20994843 46.16856308 -31.20994843 46.16856308 -32.58282471 46.20254517 C-35.22454521 45.98118442 -36.792239 45.45418844 -39 44 C-39.97314453 41.52905273 -39.97314453 41.52905273 -40.6328125 38.43359375 C-40.88160156 37.30759766 -41.13039063 36.18160156 -41.38671875 35.02148438 C-41.63035156 33.83876953 -41.87398438 32.65605469 -42.125 31.4375 C-42.37636719 30.28185547 -42.62773437 29.12621094 -42.88671875 27.93554688 C-43.36061713 25.75090018 -43.82772406 23.56476056 -44.28564453 21.37670898 C-45.15981935 17.24454495 -46.0837683 13.12304265 -47 9 C-62.18 9 -77.36 9 -93 9 C-94.32 14.94 -95.64 20.88 -97 27 C-99.20703125 35.91301082 -99.20703125 35.91301082 -100 38 C-100.99 38.495 -100.99 38.495 -102 39 C-102.32243588 33.19615419 -101.54515021 28.85976881 -99.55859375 23.39453125 C-98.90798468 20.60555671 -99.26476312 18.74131367 -100 16 C-99.34 15.67 -98.68 15.34 -98 15 C-97.814375 13.2984375 -97.814375 13.2984375 -97.625 11.5625 C-97 8 -97 8 -95.25 6.75 C-92.62167874 5.87389291 -91.10356954 6.01738691 -88.375 6.4375 C-83.20408606 7.03201684 -78.29865578 6.9047347 -73.125 6.5625 C-53.2055688 5.2648104 -53.2055688 5.2648104 -48 7 C-47.67 6.34 -47.34 5.68 -47 5 C-45 6.125 -45 6.125 -43 8 C-42.75 11.1875 -42.75 11.1875 -43 14 C-42.01 13.67 -41.02 13.34 -40 13 C-39.505 14.485 -39.505 14.485 -39 16 C-39.495 16.928125 -39.495 16.928125 -40 17.875 C-41.2911399 20.61867229 -40.79461686 22.13937931 -40 25 C-39.34 25 -38.68 25 -38 25 C-38 24.01 -38 23.02 -38 22 C-37.34 22 -36.68 22 -36 22 C-36 24.64 -36 27.28 -36 30 C-37.485 29.505 -37.485 29.505 -39 29 C-38.67 29.639375 -38.34 30.27875 -38 30.9375 C-36.66943072 35.01236841 -36.83340801 38.75190425 -37 43 C-34.69 43 -32.38 43 -30 43 C-29.505 42.01 -29.505 42.01 -29 41 C-29 41.66 -29 42.32 -29 43 C-28.34 43 -27.68 43 -27 43 C-27 42.34 -27 41.68 -27 41 C-25.7625 41.165 -24.525 41.33 -23.25 41.5 C-19.68288087 41.89757365 -16.21302667 42.04042847 -12.625 42 C-4.06840748 41.91110034 4.46172071 42.49984975 13 43 C12.75765625 42.30777344 12.5153125 41.61554688 12.265625 40.90234375 C10.26704574 35.06802969 8.47935466 29.22103268 6.9375 23.25 C5.57303964 18.00166232 3.99531567 13.0357967 2 8 C1.84917969 7.31292969 1.69835937 6.62585938 1.54296875 5.91796875 C1.10651149 3.78133867 1.10651149 3.78133867 -1 2 C-0.67 1.34 -0.34 0.68 0 0 Z " fill="#3A98F0" transform="translate(370,338)"/>
<path d="M0 0 C3.3 1.65 6.6 3.3 10 5 C9.01 5.99 8.02 6.98 7 8 C6.34 7.01 5.68 6.02 5 5 C5.33 6.65 5.66 8.3 6 10 C6.99 10 7.98 10 9 10 C9.66 11.32 10.32 12.64 11 14 C10 15 9 16 8 17 C9.63209705 23.05854209 11.31365865 29.0990298 13.0625 35.125 C14.22116054 39.14935532 15.30551859 43.15602661 16.1875 47.25 C16.79292187 50.79223895 16.79292187 50.79223895 18 53 C18.66 52.01 19.32 51.02 20 50 C20 52.64 20 55.28 20 58 C20.99 58.495 20.99 58.495 22 59 C21.625 61.9375 21.625 61.9375 21 65 C17.93405406 66.53297297 14.72888147 66.12131455 11.3671875 66.09765625 C10.23943405 66.09553383 10.23943405 66.09553383 9.08889771 66.09336853 C6.6842249 66.08776465 4.27964473 66.07521157 1.875 66.0625 C0.24609509 66.0574855 -1.38281127 66.0529225 -3.01171875 66.04882812 C-7.00784827 66.03779397 -11.00390842 66.02052679 -15 66 C-15 65.67 -15 65.34 -15 65 C-4.44 65 6.12 65 17 65 C16.09636719 61.73480469 15.19273437 58.46960938 14.26171875 55.10546875 C13.37796257 51.91155313 12.49427588 48.71761829 11.6105957 45.52368164 C11.00064219 43.31923449 10.39061746 41.11480704 9.78051758 38.91040039 C8.89905971 35.72547616 8.01786565 32.54047903 7.13671875 29.35546875 C6.86784348 28.38417526 6.5989682 27.41288177 6.32194519 26.41215515 C4.53325139 19.94541905 2.76120135 13.47427678 1 7 C0.84466797 7.65995972 0.68933594 8.31991943 0.52929688 8.99987793 C-0.09623327 11.64802 -0.73577838 14.29263076 -1.375 16.9375 C-1.59671875 17.88302734 -1.8184375 18.82855469 -2.046875 19.80273438 C-2.26601563 20.70185547 -2.48515625 21.60097656 -2.7109375 22.52734375 C-2.90993652 23.35999756 -3.10893555 24.19265137 -3.31396484 25.05053711 C-4 27 -4 27 -6 28 C-6.66 28.99 -7.32 29.98 -8 31 C-8 27.33978252 -7.54113957 25.0665447 -6.5 21.625 C-5.34936833 17.59778917 -4.78396784 14.2126272 -5 10 C-4.67 9.34 -4.34 8.68 -4 8 C-3.34 8 -2.68 8 -2 8 C-2.33 6.68 -2.66 5.36 -3 4 C-2.34 4 -1.68 4 -1 4 C-0.67 2.68 -0.34 1.36 0 0 Z " fill="#3A96F0" transform="translate(299,250)"/>
<path d="M0 0 C4.1458001 1.3649025 6.49942906 3.16929629 9.5 6.3125 C10.2321875 7.07175781 10.964375 7.83101562 11.71875 8.61328125 C12.4715625 9.40089844 13.224375 10.18851563 14 11 C15.66271568 12.67060831 17.32947085 14.33720478 19 16 C29 26 29 26 31.53515625 28.5390625 C33.10021153 30.1016375 34.66999205 31.65950522 36.24609375 33.2109375 C39.65756723 36.57984358 43.01109806 39.92329929 46.0625 43.625 C48.77079311 46.88095349 51.83947593 49.51531291 55.0625 52.25 C56.89349314 53.90380025 58.43607986 55.59609722 60 57.5 C62.11562121 60.07305282 64.32958667 62.22575995 66.875 64.375 C70.6309602 67.5597115 73.76967471 71.07311387 76.98046875 74.796875 C78.97452224 76.97220608 81.05571051 78.85215144 83.3125 80.75 C86.23008235 83.22535038 88.4618771 85.41104656 90 89 C89.67 89.66 89.34 90.32 89 91 C87.62437146 89.71034824 86.29233607 88.37310707 85 87 C85 86.34 85 85.68 85 85 C84.13375 84.62875 84.13375 84.62875 83.25 84.25 C80.67060021 82.81700012 78.93878408 81.21575324 77 79 C77 78.34 77 77.68 77 77 C76.34 77 75.68 77 75 77 C75 76.34 75 75.68 75 75 C74.34 75 73.68 75 73 75 C73 74.34 73 73.68 73 73 C72.34 73 71.68 73 71 73 C71 72.34 71 71.68 71 71 C70.46375 70.773125 69.9275 70.54625 69.375 70.3125 C65.25299737 68.03455118 61.53293843 65.59881529 60 61 C58.36497064 59.41441619 58.36497064 59.41441619 56.4375 57.9375 C54.49609375 56.40234375 54.49609375 56.40234375 53 55 C53 54.34 53 53.68 53 53 C52.38125 52.690625 51.7625 52.38125 51.125 52.0625 C49.75 51.375 48.375 50.6875 47 50 C47 49.34 47 48.68 47 48 C46.01 48 45.02 48 44 48 C44 47.34 44 46.68 44 46 C42.68 45.34 41.36 44.68 40 44 C40 43.01 40 42.02 40 41 C39.01 40.67 38.02 40.34 37 40 C37 39.34 37 38.68 37 38 C36.34 38 35.68 38 35 38 C33.88671875 36.5390625 33.88671875 36.5390625 32.6875 34.625 C30.51188757 31.41985669 28.85843545 29.99216912 25 29 C25 28.34 25 27.68 25 27 C24.34 26.34 23.68 25.68 23 25 C22.34 24.34 21.68 23.68 21 23 C21 22.34 21 21.68 21 21 C20.443125 20.773125 19.88625 20.54625 19.3125 20.3125 C16.34403393 18.62769493 14.39300509 16.44059326 12 14 C10.96434225 12.98353028 9.92651118 11.96927102 8.88671875 10.95703125 C7.82026777 9.90889967 6.75386196 8.86072214 5.6875 7.8125 C5.13771484 7.27947266 4.58792969 6.74644531 4.02148438 6.19726562 C2.64284322 4.83575044 1.31660273 3.42159498 0 2 C0 1.34 0 0.68 0 0 Z " fill="#369FF0" transform="translate(420,210)"/>
<path d="M0 0 C0.99 1.32 1.98 2.64 3 4 C2.67 4.66 2.34 5.32 2 6 C1.01 6.33 0.02 6.66 -1 7 C-2.01754868 8.8653245 -2.01754868 8.8653245 -2.6875 11.0625 C-2.93886719 11.79597656 -3.19023437 12.52945312 -3.44921875 13.28515625 C-3.63097656 13.85105469 -3.81273437 14.41695313 -4 15 C-3.34 15.33 -2.68 15.66 -2 16 C-2.66 19.96 -3.32 23.92 -4 28 C-4.99 26.68 -5.98 25.36 -7 24 C-7.66 27.63 -8.32 31.26 -9 35 C-7.515 34.505 -7.515 34.505 -6 34 C-5.67 34.66 -5.34 35.32 -5 36 C-5.99 36.495 -5.99 36.495 -7 37 C-7.90725434 39.11327425 -7.90725434 39.11327425 -8.625 41.5625 C-8.88539063 42.38878906 -9.14578125 43.21507812 -9.4140625 44.06640625 C-9.60742188 44.70449219 -9.80078125 45.34257812 -10 46 C-10.66 44.68 -11.32 43.36 -12 42 C-12.66 42 -13.32 42 -14 42 C-13.67 44.97 -13.34 47.94 -13 51 C-13.66 50.67 -14.32 50.34 -15 50 C-15.495 52.475 -15.495 52.475 -16 55 C-17.485 55.495 -17.485 55.495 -19 56 C-19.18576077 51.06429342 -18.68947988 47.1888124 -17.13671875 42.5078125 C-16.74419922 41.30769531 -16.35167969 40.10757813 -15.94726562 38.87109375 C-15.53154297 37.63488281 -15.11582031 36.39867187 -14.6875 35.125 C-14.28337891 33.89652344 -13.87925781 32.66804688 -13.46289062 31.40234375 C-12.31891557 27.93135601 -11.16177848 24.4650628 -10 21 C-9.40204412 19.205829 -8.80434067 17.41157382 -8.20703125 15.6171875 C-7.80871094 14.42351562 -7.41039062 13.22984375 -7 12 C-6.34 12 -5.68 12 -5 12 C-4.34 9.03 -3.68 6.06 -3 3 C-2.34 3 -1.68 3 -1 3 C-0.67 2.01 -0.34 1.02 0 0 Z " fill="#3F87F1" transform="translate(236,322)"/>
<path d="M0 0 C0.33 0 0.66 0 1 0 C0.31513903 8.11019567 0.31513903 8.11019567 -1.0625 12 C-2.32482973 16.03945514 -2.16788229 19.80294263 -2 24 C-2.99 24.33 -3.98 24.66 -5 25 C-6.28919109 27.4816114 -6.28919109 27.4816114 -7.25 30.4375 C-7.60578125 31.42621094 -7.9615625 32.41492188 -8.328125 33.43359375 C-9.29211998 35.96505756 -9.29211998 35.96505756 -8 38 C-8.7421875 39.69921875 -8.7421875 39.69921875 -9.875 41.6875 C-11.88680048 45.46391729 -12.41757827 48.75664167 -13 53 C-14.5625 54.9375 -14.5625 54.9375 -16 56 C-16.66 55.67 -17.32 55.34 -18 55 C-15.89064295 47.07339319 -13.60167056 39.21389191 -11.1875 31.375 C-10.84001709 30.24650635 -10.49253418 29.1180127 -10.13452148 27.95532227 C-8.05102791 21.24407352 -5.89714902 14.56578146 -3.5625 7.9375 C-3.31588623 7.23608887 -3.06927246 6.53467773 -2.81518555 5.81201172 C-1.13406833 1.13406833 -1.13406833 1.13406833 0 0 Z " fill="#3E8CEE" transform="translate(253,263)"/>
<path d="M0 0 C1.80868813 0.00333092 1.80868813 0.00333092 3.65391541 0.00672913 C4.31730423 0.0065831 4.98069305 0.00643707 5.66418457 0.00628662 C7.86644207 0.00698571 10.06861596 0.01477787 12.27085876 0.02259827 C13.79400588 0.02446246 15.31715359 0.02588636 16.84030151 0.02688599 C20.85657903 0.03071105 24.87282059 0.04054124 28.88908386 0.05158997 C32.98443617 0.06180433 37.07979427 0.06638366 41.17515564 0.07142639 C49.21618779 0.08216352 57.25719069 0.0992398 65.29820251 0.12025452 C64.96820251 0.78025452 64.63820251 1.44025452 64.29820251 2.12025452 C63.51337494 2.11581329 62.72854736 2.11137207 61.91993713 2.10679626 C54.53306294 2.06676534 47.14624114 2.03629353 39.75928688 2.01663017 C35.96133939 2.00618131 32.16348134 1.99200215 28.36558533 1.96937561 C24.70218905 1.94768631 21.03887894 1.9356942 17.37542343 1.93050003 C15.97593707 1.92679721 14.57645557 1.91956674 13.17700577 1.9087944 C11.22086921 1.89433226 9.26464643 1.89343805 7.30845642 1.89320374 C6.19370941 1.88876251 5.0789624 1.88432129 3.93043518 1.87974548 C1.14025737 1.85164459 1.14025737 1.85164459 -0.70179749 4.12025452 C-0.04179749 4.78025452 0.61820251 5.44025452 1.29820251 6.12025452 C0.51445251 6.84212952 -0.26929749 7.56400452 -1.07679749 8.30775452 C-5.41014094 12.95062251 -5.99410898 17.54736715 -7.12757874 23.60462952 C-7.90942583 27.02986441 -9.18871057 29.95652732 -10.70179749 33.12025452 C-11.36179749 32.79025452 -12.02179749 32.46025452 -12.70179749 32.12025452 C-12.15705129 25.03004231 -10.09939029 18.85158346 -7.70179749 12.18275452 C-7.33312561 11.13023499 -6.96445374 10.07771545 -6.58460999 8.99330139 C-3.45743179 0.1538871 -3.45743179 0.1538871 0 0 Z " fill="#3F94E9" transform="translate(269.70179748535156,218.87974548339844)"/>
<path d="M0 0 C5.16518379 0.53300301 10.28173615 0.83205604 15.46875 0.9765625 C16.21306274 0.99778168 16.95737549 1.01900085 17.72424316 1.04086304 C20.01922576 1.10404492 22.31428696 1.16344221 24.609375 1.22265625 C26.19271671 1.26597103 27.77605015 1.30958881 29.359375 1.35351562 C33.19262229 1.45921498 37.02595724 1.56083995 40.859375 1.66015625 C40.859375 1.99015625 40.859375 2.32015625 40.859375 2.66015625 C25.679375 2.66015625 10.499375 2.66015625 -5.140625 2.66015625 C-6.460625 8.60015625 -7.780625 14.54015625 -9.140625 20.66015625 C-11.34765625 29.57316707 -11.34765625 29.57316707 -12.140625 31.66015625 C-13.130625 32.15515625 -13.130625 32.15515625 -14.140625 32.66015625 C-14.46306088 26.85631044 -13.68577521 22.51992506 -11.69921875 17.0546875 C-11.04860968 14.26571296 -11.40538812 12.40146992 -12.140625 9.66015625 C-11.480625 9.33015625 -10.820625 9.00015625 -10.140625 8.66015625 C-9.955 6.95859375 -9.955 6.95859375 -9.765625 5.22265625 C-9.140625 1.66015625 -9.140625 1.66015625 -7.42285156 0.41625977 C-4.67313062 -0.49472502 -2.8730104 -0.35134417 0 0 Z " fill="#3E89EB" transform="translate(282.140625,344.33984375)"/>
<path d="M0 0 C2 3 2 3 2 5 C3.19625 4.835 4.3925 4.67 5.625 4.5 C9.10765001 4.0546167 12.48872019 4 16 4 C16.33 3.67 16.66 3.34 17 3 C18.34267413 2.91368126 19.68974322 2.89293527 21.03515625 2.90234375 C21.84404297 2.90556641 22.65292969 2.90878906 23.48632812 2.91210938 C24.33646484 2.92048828 25.18660156 2.92886719 26.0625 2.9375 C26.91650391 2.94201172 27.77050781 2.94652344 28.65039062 2.95117188 C30.76695663 2.96299627 32.88348685 2.98093231 35 3 C35 2.01 35 1.02 35 0 C35.66 0.33 36.32 0.66 37 1 C37 1.99 37 2.98 37 4 C39.41645782 4.16687448 39.41645782 4.16687448 42 4 C42.66 3.34 43.32 2.68 44 2 C44 3.32 44 4.64 44 6 C26.84 6 9.68 6 -8 6 C-7.67 5.01 -7.34 4.02 -7 3 C-7 3.66 -7 4.32 -7 5 C-5.02 5 -3.04 5 -1 5 C-0.67 3.35 -0.34 1.7 0 0 Z " fill="#4088F2" transform="translate(224,376)"/>
<path d="M0 0 C0.66 0 1.32 0 2 0 C2 0.99 2 1.98 2 3 C2.99 3.33 3.98 3.66 5 4 C6.43969727 5.4609375 6.43969727 5.4609375 8.00390625 7.375 C12.67876728 12.88496512 17.80857808 17.91725319 22.9375 23 C23.9175531 23.97502386 24.8973724 24.9502828 25.87695312 25.92578125 C28.24902313 28.28616618 30.6234086 30.64416905 33 33 C27.79799212 33 24.5758152 28.49751268 21 25 C19.65263027 23.34466005 18.31665664 21.67987227 17 20 C15.515 18.7625 15.515 18.7625 14 17.5 C11.21805351 15.18171126 9.2108223 12.84248582 7 10 C6.34 9.67 5.68 9.34 5 9 C5 8.34 5 7.68 5 7 C4.01 7 3.02 7 2 7 C0.5393715 4.35261084 0 3.10551666 0 0 Z " fill="#4877E2" transform="translate(139,310)"/>
<path d="M0 0 C1.32 1.32 2.64 2.64 4 4 C3.34 4.66 2.68 5.32 2 6 C2.94875 6.309375 3.8975 6.61875 4.875 6.9375 C8 8 8 8 10 9 C10 9.66 10 10.32 10 11 C5.71 11 1.42 11 -3 11 C-3.33 9.02 -3.66 7.04 -4 5 C-2 3 -2 3 0 2 C0 1.34 0 0.68 0 0 Z " fill="#3D84FC" transform="translate(229,370)"/>
<path d="M0 0 C2 3 2 3 2 6 C2.66 6 3.32 6 4 6 C4.33 5.01 4.66 4.02 5 3 C5.6875 5.3125 5.6875 5.3125 6 8 C5.00268555 9.6496582 5.00268555 9.6496582 3 11 C0.34165372 11.26154123 -2.07685104 11.34939122 -4.73046875 11.29296875 C-5.48088943 11.28872391 -6.23131012 11.28447906 -7.00447083 11.28010559 C-9.39918026 11.2633245 -11.79304534 11.2256749 -14.1875 11.1875 C-15.8118368 11.17245235 -17.4361868 11.15876409 -19.06054688 11.14648438 C-23.04068948 11.11342305 -27.02020163 11.06164594 -31 11 C-31 10.67 -31 10.34 -31 10 C-20.44 10 -9.88 10 1 10 C0.505 5.05 0.505 5.05 0 0 Z " fill="#4095E7" transform="translate(315,305)"/>
<path d="M0 0 C4.18474529 3.50939735 8.1814583 7.08832313 12 11 C12.67675781 11.65484375 13.35351562 12.3096875 14.05078125 12.984375 C14.77652344 13.69078125 15.50226563 14.3971875 16.25 15.125 C16.93578125 15.78757813 17.6215625 16.45015625 18.328125 17.1328125 C20 19 20 19 21 22 C22.29355827 23.37195574 23.62298702 24.71182656 25 26 C24.34 26.33 23.68 26.66 23 27 C23 26.34 23 25.68 23 25 C21.68 24.34 20.36 23.68 19 23 C19 22.01 19 21.02 19 20 C18.01 19.67 17.02 19.34 16 19 C16 18.34 16 17.68 16 17 C15.34 17 14.68 17 14 17 C12.88671875 15.5390625 12.88671875 15.5390625 11.6875 13.625 C9.51188757 10.41985669 7.85843545 8.99216912 4 8 C4 7.34 4 6.68 4 6 C3.34 5.34 2.68 4.68 2 4 C1.34 3.34 0.68 2.68 0 2 C0 1.34 0 0.68 0 0 Z " fill="#36AAEA" transform="translate(441,231)"/>
<path d="M0 0 C0.47050781 0.40992188 0.94101563 0.81984375 1.42578125 1.2421875 C2.04839844 1.78101563 2.67101562 2.31984375 3.3125 2.875 C4.23482422 3.67550781 4.23482422 3.67550781 5.17578125 4.4921875 C7.13498212 6.1640447 7.13498212 6.1640447 10 8 C9.125 12.75 9.125 12.75 8 15 C7.34 15 6.68 15 6 15 C5.5978125 16.3303125 5.5978125 16.3303125 5.1875 17.6875 C4.08289181 20.76877548 2.77150856 23.26221405 1 26 C0.67 25.34 0.34 24.68 0 24 C0.87845912 22.00455975 1.85315927 20.05095788 2.875 18.125 C5.47069016 13.25850964 5.47069016 13.25850964 7 8 C6.01 7.67 5.02 7.34 4 7 C0 2.54285714 0 2.54285714 0 0 Z " fill="#467AE5" transform="translate(172,344)"/>
<path d="M0 0 C1.65 0.33 3.3 0.66 5 1 C5 1.66 5 2.32 5 3 C3.34516392 4.49877503 1.62409488 5.92488473 -0.125 7.3125 C-1.12402344 8.11171875 -2.12304688 8.9109375 -3.15234375 9.734375 C-4.09207031 10.48203125 -5.03179687 11.2296875 -6 12 C-7.2329831 13.01622048 -8.46318867 14.03584857 -9.6875 15.0625 C-10.8321875 16.0215625 -10.8321875 16.0215625 -12 17 C-12 14 -12 14 -10.35546875 12.3515625 C-9.64003906 11.78179687 -8.92460937 11.21203125 -8.1875 10.625 C-5.04147025 7.9958974 -2.81670321 5.74027132 -1 2 C-0.67 1.34 -0.34 0.68 0 0 Z " fill="#4380E8" transform="translate(196,250)"/>
<path d="M0 0 C0.66 0.99 1.32 1.98 2 3 C2.66 3.66 3.32 4.32 4 5 C3.505 5.4125 3.01 5.825 2.5 6.25 C0.56613908 8.12202338 0.56613908 8.12202338 1 12 C1.66 12.33 2.32 12.66 3 13 C2.67 14.32 2.34 15.64 2 17 C1.15675328 15.421924 0.32576082 13.8372958 -0.5 12.25 C-0.9640625 11.36828125 -1.428125 10.4865625 -1.90625 9.578125 C-3 7 -3 7 -3 3 C-2.34 3 -1.68 3 -1 3 C-0.67 2.01 -0.34 1.02 0 0 Z " fill="#2BB1F4" transform="translate(424,349)"/>
<path d="M0 0 C0.598125 0.33 1.19625 0.66 1.8125 1 C4.05386471 2.20787988 4.05386471 2.20787988 7 2 C9.41961916 5.42779381 11.16122529 9.23488987 13 13 C10.37812506 11.95125002 9.20628639 11.35068687 7.75 8.875 C7.5025 8.25625 7.255 7.6375 7 7 C6.34 7 5.68 7 5 7 C5 6.34 5 5.68 5 5 C4.360625 4.731875 3.72125 4.46375 3.0625 4.1875 C1 3 1 3 0 0 Z " fill="#3E87EF" transform="translate(143,376)"/>
<path d="M0 0 C0 0.99 0 1.98 0 3 C-0.66 3 -1.32 3 -2 3 C-2.226875 3.556875 -2.45375 4.11375 -2.6875 4.6875 C-4.36718835 7.6469509 -6.54133285 9.66126784 -9 12 C-9.598125 12.598125 -10.19625 13.19625 -10.8125 13.8125 C-11.204375 14.204375 -11.59625 14.59625 -12 15 C-12.66 14.67 -13.32 14.34 -14 14 C-13.236875 13.278125 -12.47375 12.55625 -11.6875 11.8125 C-8.97889618 9.21140841 -8.97889618 9.21140841 -7.5625 6.4375 C-5.56242569 3.31738407 -3.14591892 1.88755135 0 0 Z " fill="#467CE9" transform="translate(168,222)"/>
<path d="M0 0 C0.33 0 0.66 0 1 0 C0.61020794 6.55925943 -0.42113193 11.94526627 -3 18 C-3.33 18 -3.66 18 -4 18 C-4.22058508 13.40907294 -3.5361591 9.94544748 -2 5.625 C-1.62875 4.56539063 -1.2575 3.50578125 -0.875 2.4140625 C-0.58625 1.61742187 -0.2975 0.82078125 0 0 Z " fill="#408DE6" transform="translate(287,294)"/>
<path d="M0 0 C0 3 0 3 -2.625 5.69921875 C-3.74254026 6.70367458 -4.86791033 7.69947129 -6 8.6875 C-6.57234375 9.19861328 -7.1446875 9.70972656 -7.734375 10.23632812 C-9.14967213 11.4983014 -10.57400269 12.75013033 -12 14 C-12.33 13.01 -12.66 12.02 -13 11 C-11.8125 8.875 -11.8125 8.875 -10 7 C-9.36964844 6.85949219 -8.73929688 6.71898437 -8.08984375 6.57421875 C-5.54747912 5.87566249 -4.53701383 4.84635568 -2.75 2.9375 C-2.22921875 2.38964844 -1.7084375 1.84179688 -1.171875 1.27734375 C-0.78515625 0.85582031 -0.3984375 0.43429687 0 0 Z " fill="#3B8AF1" transform="translate(192,259)"/>
<path d="M0 0 C0 0.99 0 1.98 0 3 C-0.66 3 -1.32 3 -2 3 C-2 3.66 -2 4.32 -2 5 C-2.99 5.66 -3.98 6.32 -5 7 C-5.99 8.485 -5.99 8.485 -7 10 C-7 9.01 -7 8.02 -7 7 C-7.66 7 -8.32 7 -9 7 C-9 5 -9 5 -7.1875 2.9375 C-4.81299912 0.83437065 -3.19968781 0 0 0 Z " fill="#4084EE" transform="translate(148,303)"/>
<path d="M0 0 C2 3 2 3 2 5 C3.98 4.67 5.96 4.34 8 4 C8.33 4.66 8.66 5.32 9 6 C3.39 6 -2.22 6 -8 6 C-7.67 5.01 -7.34 4.02 -7 3 C-7 3.66 -7 4.32 -7 5 C-5.02 5 -3.04 5 -1 5 C-0.67 3.35 -0.34 1.7 0 0 Z " fill="#4481EC" transform="translate(224,376)"/>
<path d="M0 0 C1.0625 1.875 1.0625 1.875 2 4 C1.67 4.66 1.34 5.32 1 6 C1.99 6 2.98 6 4 6 C4.33 7.32 4.66 8.64 5 10 C4.01 10 3.02 10 2 10 C2 9.34 2 8.68 2 8 C1.38125 7.731875 0.7625 7.46375 0.125 7.1875 C-2 6 -2 6 -4 3 C-3.34 3 -2.68 3 -2 3 C-1.67 2.34 -1.34 1.68 -1 1 C-0.67 0.67 -0.34 0.34 0 0 Z " fill="#2BB1F4" transform="translate(417,259)"/>
<path d="M0 0 C4.28806873 0.47645208 6.26647487 1.65902484 9 5 C9 5.66 9 6.32 9 7 C8.05125 6.649375 7.1025 6.29875 6.125 5.9375 C3.12939828 4.64973223 3.12939828 4.64973223 1 6 C1 5.34 1 4.68 1 4 C0.34 3.67 -0.32 3.34 -1 3 C-0.67 2.01 -0.34 1.02 0 0 Z " fill="#4187F1" transform="translate(191,209)"/>
<path d="M0 0 C2.4294516 3.6441774 2.16179575 5.71241272 2 10 C0.35 10 -1.3 10 -3 10 C-2.69201674 8.51988629 -2.378482 7.04092675 -2.0625 5.5625 C-1.88847656 4.73878906 -1.71445313 3.91507812 -1.53515625 3.06640625 C-1 1 -1 1 0 0 Z " fill="#3D84FC" transform="translate(221,371)"/>
<path d="M0 0 C0.33 0 0.66 0 1 0 C1.19876487 4.27344465 0.7481085 7.11531444 -1 11 C-1.67795528 12.99620166 -2.34733531 14.99538701 -3 17 C-3.66 16.34 -4.32 15.68 -5 15 C-3.35 10.05 -1.7 5.1 0 0 Z " fill="#4189E9" transform="translate(262,235)"/>
<path d="M0 0 C0.99 0 1.98 0 3 0 C3.33 2.64 3.66 5.28 4 8 C1.37812506 6.95125002 0.20628639 6.35068687 -1.25 3.875 C-1.4975 3.25625 -1.745 2.6375 -2 2 C-1.34 1.34 -0.68 0.68 0 0 Z " fill="#3B96F1" transform="translate(280,308)"/>
<path d="M0 0 C3.08859947 1.35335595 5.007964 2.80886249 7.1875 5.375 C7.95126953 6.25285156 7.95126953 6.25285156 8.73046875 7.1484375 C10.07559273 9.11024909 10.57514402 10.676089 11 13 C7.33455245 10.32521395 5.17874513 7.96135478 3 4 C2.01755155 2.65368175 1.02323436 1.31558703 0 0 Z " fill="#349DF4" transform="translate(499,288)"/>
<path d="M0 0 C-1.98 0.99 -1.98 0.99 -4 2 C-2.68 2.99 -1.36 3.98 0 5 C-1.65 5.66 -3.3 6.32 -5 7 C-5.99 5.02 -6.98 3.04 -8 1 C-5.29120665 -0.35439668 -2.99066732 -0.06501451 0 0 Z " fill="#2BB0F5" transform="translate(411,207)"/>
<path d="M0 0 C0 3 0 6 0 9 C-0.99 9 -1.98 9 -3 9 C-3 8.34 -3 7.68 -3 7 C-3.99 6.67 -4.98 6.34 -6 6 C-4.02 4.02 -2.04 2.04 0 0 Z " fill="#2BB2F4" transform="translate(431,342)"/>
<path d="M0 0 C1.8125 0.1875 1.8125 0.1875 4 1 C5.05771739 2.63064764 6.05273046 4.30280873 7 6 C8.29579647 7.36984198 9.61992749 8.7151049 11 10 C10.01 10.495 10.01 10.495 9 11 C9 10.34 9 9.68 9 9 C7.68 8.34 6.36 7.68 5 7 C5 6.01 5 5.02 5 4 C4.01 3.67 3.02 3.34 2 3 C2 2.34 2 1.68 2 1 C1.34 0.67 0.68 0.34 0 0 Z " fill="#2DB1F0" transform="translate(455,247)"/>
<path d="M0 0 C0.33 0 0.66 0 1 0 C1.36923077 7.50769231 1.36923077 7.50769231 -0.5 10 C-0.995 10.33 -1.49 10.66 -2 11 C-2.25 3.375 -2.25 3.375 0 0 Z " fill="#3E94EA" transform="translate(290,282)"/>
<path d="M0 0 C1.65 0.99 3.3 1.98 5 3 C4.67 4.32 4.34 5.64 4 7 C1.49642808 5.74821404 -0.06433379 4.00018842 -2 2 C-1.34 1.34 -0.68 0.68 0 0 Z " fill="#4379F8" transform="translate(172,218)"/>
<path d="M0 0 C0.99 0.33 1.98 0.66 3 1 C0.69 3.31 -1.62 5.62 -4 8 C-4.33 7.01 -4.66 6.02 -5 5 C-3.35 3.35 -1.7 1.7 0 0 Z " fill="#4977E2" transform="translate(158,290)"/>
<path d="M0 0 C0.99 0.99 1.98 1.98 3 3 C2.01 3.495 2.01 3.495 1 4 C0.34 3.67 -0.32 3.34 -1 3 C-1.33 4.32 -1.66 5.64 -2 7 C-2 6.34 -2 5.68 -2 5 C-2.99 4.67 -3.98 4.34 -5 4 C-3.74458443 1.48916886 -2.49936512 1.12874554 0 0 Z " fill="#2BAEF7" transform="translate(413,254)"/>
<path d="M0 0 C1.13643966 3.40931897 0.86747764 4.00335456 -0.4375 7.1875 C-0.86869141 8.26064453 -0.86869141 8.26064453 -1.30859375 9.35546875 C-1.53675781 9.89816406 -1.76492188 10.44085938 -2 11 C-3.31826804 7.04519588 -2.29536133 4.88608399 -1 1 C-0.67 0.67 -0.34 0.34 0 0 Z " fill="#408EE9" transform="translate(266,224)"/>
<path d="M0 0 C0.66 0 1.32 0 2 0 C2.66 2.31 3.32 4.62 4 7 C2.68 7 1.36 7 0 7 C0 4.69 0 2.38 0 0 Z " fill="#2FA5FB" transform="translate(388,225)"/>
<path d="M0 0 C1.98 0.66 3.96 1.32 6 2 C4 4 4 4 1 5 C0.01 4.01 -0.98 3.02 -2 2 C-1.34 1.34 -0.68 0.68 0 0 Z " fill="#2AB2F6" transform="translate(449,374)"/>
</svg>
